<?xml version="1.0" standalone="no"?>
<!DOCTYPE svg PUBLIC "-//W3C//DTD SVG 1.1//EN" "http://www.w3.org/Graphics/SVG/1.1/DTD/svg11.dtd" >
<!--
2013-9-30: Created.
-->
<svg>
<metadata>
Created by iconfont
</metadata>
<defs>

<font id="iconfont" horiz-adv-x="1024" >
  <font-face
    font-family="iconfont"
    font-weight="500"
    font-stretch="normal"
    units-per-em="1024"
    ascent="896"
    descent="-128"
  />
    <missing-glyph />
    
    <glyph glyph-name="x" unicode="x" horiz-adv-x="1001"
d="M281 543q-27 -1 -53 -1h-83q-18 0 -36.5 -6t-32.5 -18.5t-23 -32t-9 -45.5v-76h912v41q0 16 -0.5 30t-0.5 18q0 13 -5 29t-17 29.5t-31.5 22.5t-49.5 9h-133v-97h-438v97zM955 310v-52q0 -23 0.5 -52t0.5 -58t-10.5 -47.5t-26 -30t-33 -16t-31.5 -4.5q-14 -1 -29.5 -0.5
t-29.5 0.5h-32l-45 128h-439l-44 -128h-29h-34q-20 0 -45 1q-25 0 -41 9.5t-25.5 23t-13.5 29.5t-4 30v167h911zM163 247q-12 0 -21 -8.5t-9 -21.5t9 -21.5t21 -8.5q13 0 22 8.5t9 21.5t-9 21.5t-22 8.5zM316 123q-8 -26 -14 -48q-5 -19 -10.5 -37t-7.5 -25t-3 -15t1 -14.5
t9.5 -10.5t21.5 -4h37h67h81h80h64h36q23 0 34 12t2 38q-5 13 -9.5 30.5t-9.5 34.5q-5 19 -11 39h-368zM336 498v228q0 11 2.5 23t10 21.5t20.5 15.5t34 6h188q31 0 51.5 -14.5t20.5 -52.5v-227h-327z" />
    

    
    <glyph glyph-name="bianjiwenjian" unicode="&#58885;" d="M746.027944 705.916168q-11.241517 0-18.906188 7.664671t-12.774451 17.884232-7.664671 20.9501-2.55489 17.884232l0 125.700599 2.043912 0q9.197605 0 17.373253-2.043912t19.928144-9.708583 28.61477-21.461078 42.411178-36.279441q27.592814-24.526946 43.944112-41.389222t25.037924-28.61477 10.730539-19.928144 2.043912-14.307385l0-16.351297-150.227545 0zM1063.856287 224.57485q3.065868-8.175649 4.087824-20.439122t-10.219561-23.50499q-5.10978-5.10978-9.197605-9.708583t-7.153693-7.664671q-4.087824-4.087824-7.153693-6.131737l-86.866267 85.844311q6.131737 5.10978 13.796407 12.263473t12.774451 11.241517q12.263473 11.241517 26.570858 9.708583t23.50499-6.642715q10.219561-5.10978 21.972056-17.884232t17.884232-27.081836zM703.105788 129.532934q22.483034 0 37.812375 12.263473l-198.259481-206.43513-282.05988 0q-19.417166 0-42.411178 11.241517t-42.922156 29.636727-33.213573 42.411178-13.285429 49.56487l0 695.952096q0 21.461078 9.708583 44.966068t26.570858 42.411178 38.323353 31.680639 44.966068 12.774451l391.409182 0 0-127.744511q0-19.417166 6.131737-41.9002t18.906188-41.389222 33.213573-31.680639 49.053892-12.774451l149.205589 0 0-338.267465-140.007984-145.117764q11.241517 16.351297 11.241517 35.768463 0 26.570858-18.906188 45.477046t-45.477046 18.906188l-383.233533 0q-26.570858 0-44.966068-18.906188t-18.39521-45.477046 18.39521-44.966068 44.966068-18.39521l383.233533 0zM319.872255 512.766467q-26.570858 0-44.966068-18.906188t-18.39521-45.477046 18.39521-44.966068 44.966068-18.39521l383.233533 0q26.570858 0 45.477046 18.39521t18.906188 44.966068-18.906188 45.477046-45.477046 18.906188l-383.233533 0zM705.149701 0.766467l13.285429 13.285429 25.548902 25.548902q15.329341 15.329341 33.724551 34.235529t36.790419 37.301397q43.944112 43.944112 99.129741 98.107784l85.844311-85.844311-99.129741-99.129741-36.790419-36.790419-33.724551-33.724551q-14.307385-14.307385-24.015968-24.526946t-10.730539-11.241517q-5.10978-4.087824-11.241517-8.686627t-12.263473-7.664671-18.906188-7.664671-26.05988-8.686627-25.548902-7.153693-18.39521-4.087824q-12.263473-2.043912-16.351297 3.065868t-2.043912 17.373253q1.021956 6.131737 4.087824 18.39521t7.153693 25.037924 7.664671 24.015968 5.620758 15.329341q6.131737 13.285429 16.351297 23.50499z"  horiz-adv-x="1069" />

    
    <glyph glyph-name="duigou" unicode="&#58890;" d="M60.217477 262.089439c0 0 250.197342-104.557334 374.563838-330.628186 149.378146 279.762705 436.109566 540.713972 521.05012 560.013527 0 115.776863 0 163.394371 0 341.442486-342.237595-226.070852-506.576477-642.342604-506.576477-642.342604l-180.049702 191.614086L60.217477 262.089439z"  horiz-adv-x="1024" />

    
    <glyph glyph-name="back" unicode="&#58900;" d="M877.216 404.192M758.528-53.984c12.512 12.512 13.248 31.872 2.048 43.776L384.096 366.304c-16.16 15.328-16.096 19.328 0 35.424L760.576 778.176c11.232 11.872 10.464 31.264-2.048 43.776-12.736 12.736-32.608 13.44-44.448 1.632L295.872 405.408C290.72 400.256 288.416 393.536 288 386.624l0-5.248c0.448-6.944 2.752-13.632 7.872-18.784l418.176-418.176C725.92-67.392 745.824-66.688 758.528-53.984z"  horiz-adv-x="1024" />

    
    <glyph glyph-name="exit" unicode="&#59146;" d="M768 172l0 128-320 0 0 128 320 0 0 128 192-192zM704 236l0-256-320 0 0-192-384 192 0 832 704 0 0-320-64 0 0 256-512 0 256-128 0-576 256 0 0 192z"  horiz-adv-x="1024" />

    
    <glyph glyph-name="lock1" unicode="&#58951;" d="M768 458.667h-42.667v85.333c0 117.76-95.573 213.333-213.333 213.333s-213.333-95.573-213.333-213.333v-85.333h-42.667c-46.933 0-85.333-38.4-85.333-85.333v-426.667c0-46.933 38.4-85.333 85.333-85.333h512c46.933 0 85.333 38.4 85.333 85.333v426.667c0 46.933-38.4 85.333-85.333 85.333zM512 74.667c-46.933 0-85.333 38.4-85.333 85.333s38.4 85.333 85.333 85.333 85.333-38.4 85.333-85.333-38.4-85.333-85.333-85.333zM644.267 458.667h-264.533v85.333c0 72.96 59.307 132.267 132.267 132.267s132.267-59.307 132.267-132.267v-85.333z"  horiz-adv-x="1024" />

    
    <glyph glyph-name="fangdajing" unicode="&#58893;" d="M1011.975-64.664 785.583 136.177c28.026 35.029 50.8 73.962 67.876 116.211 22.961 56.813 34.604 117.132 34.604 179.274 0 62.144-11.644 122.459-34.604 179.273-22.211 54.957-54.027 104.332-94.561 146.751-40.643 42.532-88.014 75.944-140.797 99.307C563.323 881.241 505.137 893.536 445.16 893.536c-59.979 0-118.166-12.294-172.944-36.542-52.783-23.363-100.154-56.775-140.797-99.307-40.536-42.421-72.35-91.794-94.563-146.751C13.894 554.123 2.251 493.806 2.251 431.662c0-62.143 11.643-122.461 34.605-179.274 22.211-54.954 54.027-104.329 94.563-146.749 40.643-42.532 88.014-75.944 140.797-99.307 54.779-24.246 112.965-36.541 172.944-36.541 59.977 0 118.164 12.295 172.941 36.541 43.84 19.405 83.932 45.765 119.552 78.504l227.722-202.025c6.686-5.929 15.002-8.846 23.287-8.846 9.691 0 19.336 3.991 26.275 11.811C1027.809-99.72 1026.48-77.532 1011.975-64.664zM445.161 40.008c-205.503 0-372.693 175.696-372.693 391.654 0 215.961 167.189 391.658 372.693 391.658 205.501 0 372.688-175.697 372.688-391.658C817.849 215.702 650.661 40.008 445.161 40.008z"  horiz-adv-x="1024" />

    
    <glyph glyph-name="idea" unicode="&#59087;" d="M631.466667 25.600000000000023c0-12.561067-10.194489-22.755556-22.755556-22.755556l-182.044444 0c-12.561067 0-22.755556 10.194489-22.755556 22.755556s10.194489 22.755556 22.755556 22.755556l182.044444 0C621.27217801 48.35555599999998 631.466667 38.161067 631.466667 25.600000000000023zM608.711111-8.53333299999997l-182.044444 0c-14.973156 0-26.567111-14.461156-21.583644-30.173867 3.003733-9.477689 12.5952-15.337244 22.539378-15.337244l0.34133301 0c13.141333 0 25.156267-7.429689 31.03857799-19.182933l0.238933-0.477867C467.171556-89.54311099999995 483.362133-99.55555600000002 501.077333-99.55555600000002l33.223111 0c17.7152 0 33.90577799 10.012444 41.824711 25.850311l0.238933 0.47786701c5.882311 11.753244 17.897244 19.182933 31.03857801 19.18293299l0.34133299 0c9.94417801 0 19.535644 5.859556 22.539378 15.337244C635.27822201-22.994489000000044 623.684267-8.53333299999997 608.711111-8.53333299999997zM517.688889 719.644444c12.561067 0 22.755556 10.194489 22.755556 22.755556l0 91.02222201c0 12.561067-10.194489 22.755556-22.755556 22.75555599s-22.755556-10.194489-22.755556-22.75555599l0-91.02222201C494.933333 729.838933 505.12782201 719.644444 517.688889 719.644444zM276.332089 633.002667c4.437333-4.448711 10.262756-6.66737801 16.088178-6.667378s11.650844 2.218667 16.088178 6.667378c8.886044 8.886044 8.886044 23.290311 0 32.176356l-64.364089 64.364089c-8.874667 8.886044-23.301689 8.886044-32.176356 0-8.886044-8.886044-8.886044-23.290311 0-32.176356L276.332089 633.002667zM221.866667 423.82222199c0 12.561067-10.194489 22.755556-22.755556 22.755556l-91.022222 0c-12.561067 0-22.755556-10.194489-22.755556-22.755556s10.194489-22.755556 22.755556-22.75555599l91.022222 0C211.67217799 401.066667 221.866667 411.261156 221.866667 423.82222199zM276.332089 214.64177799000004l-64.364089-64.36408899c-8.886044-8.886044-8.886044-23.290311 0-32.176356 4.437333-4.448711 10.262756-6.66737801 16.08817799-6.667378s11.650844 2.218667 16.08817801 6.667378l64.364089 64.36408899c8.886044 8.886044 8.886044 23.290311 0 32.176356C299.63377801 223.52782199 285.206756 223.52782199 276.332089 214.64177799000004zM759.045689 214.64177799000004c-8.886044 8.886044-23.290311 8.886044-32.176356 0s-8.886044-23.290311 0-32.176356l64.36408901-64.36408899c4.448711-4.448711 10.262756-6.66737801 16.08817799-6.667378s11.639467 2.218667 16.08817801 6.667378c8.886044 8.886044 8.886044 23.290311 0 32.176356L759.045689 214.64177799000004zM927.288889 446.57777799l-91.022222 0c-12.561067 0-22.755556-10.194489-22.755556-22.755556s10.194489-22.755556 22.755556-22.75555599l91.022222 0c12.561067 0 22.755556 10.194489 22.755556 22.75555599S939.849956 446.57777799 927.288889 446.57777799zM742.957511 626.335289c5.82542199 0 11.639467 2.218667 16.088178 6.667378l64.36408901 64.364089c8.886044 8.886044 8.886044 23.290311 0 32.176356s-23.290311 8.886044-32.176356 0l-64.36408901-64.364089c-8.886044-8.886044-8.886044-23.290311 0-32.176356C731.306667 628.553956 737.132089 626.335289 742.957511 626.335289zM631.466667 82.48888899999997c0-12.561067-10.194489-22.755556-22.755556-22.755556l-182.044444 0c-12.561067 0-22.755556 10.194489-22.755556 22.755556 0 12.117333 9.500444 21.936356 21.44711101 22.619022C411.192889 233.15342200999999 278.755556 261.677511 278.755556 412.444444c0 131.959467 106.973867 238.933333 238.933333 238.933333s238.933333-106.973867 238.93333301-238.933333c0-150.766933-132.437333-179.29102201-146.60266701-307.336533C621.96622201 104.42524400000002 631.466667 94.60622201000001 631.466667 82.48888899999997zM465.248711 587.548444c-3.538489 8.726756-13.471289 12.925156-22.232178 9.40942199-58.15182201-23.56337801-102.240711-73.9328-117.93066699-134.73564398-2.3552-9.136356 3.140267-18.432 12.265244-20.78720002C338.773333 441.059556 340.206933 440.888889 341.61777799 440.888889c7.600356 0 14.52942199 5.10862201 16.52053301 12.8 12.99342201 50.3808 49.516089 92.114489 97.6896 111.627378C464.566044 568.854756 468.77582201 578.798933 465.248711 587.548444z"  horiz-adv-x="1024" />

    
    <glyph glyph-name="share-copy" unicode="&#58935;" d="M815.475 205.708c-47.573 0-89.719-22.774-116.458-57.86l-307.688 183.178c3.502 13.478 5.548 27.541 5.548 42.075 0 4.247-0.344 8.389-0.64 12.522l307.835 185.484c26.881-31.458 66.762-51.49 111.403-51.49 80.902 0 146.489 65.623 146.489 146.524 0 80.93-65.587 146.483-146.489 146.483-80.93 0-146.517-65.553-146.517-146.483 0-16.080 2.672-31.422 7.432-45.921l-305.219-158.238c-29.644 47.166-81.956 78.588-141.743 78.588-92.447 0-167.428-74.96-167.428-167.47 0-92.433 74.981-167.4 167.436-167.4 49.563 0 93.973 21.684 124.622 55.884l319.809-165.417c-3.080-11.869-4.866-24.202-4.866-37.027 0-80.895 65.587-146.447 146.482-146.447 80.936 0 146.525 65.553 146.525 146.447-0.007 80.944-65.63 146.566-146.531 146.566v0z"  horiz-adv-x="1025" />

    
    <glyph glyph-name="youjian" unicode="&#59396;" d="M628.992 288.149333c-57.749333-46.272-93.781333-69.226667-129.728-69.226667-34.517333 0-69.376 21.504-123.285333 63.509333L55.082667 0.042667l903.701333 0L632.661333 290.901333C631.466667 290.026667 630.122667 288.938667 628.992 288.149333zM248.405333 381.141333C172.224 439.893333 84.352 507.882667 0 574.570667L0 42.24c0-1.706667 0.810667-3.136 0.981333-4.714667l323.52 284.714667C301.056 340.544 275.904 359.893333 248.405333 381.141333zM1021.482667 29.866667C1022.784 33.728 1024 37.781333 1024 42.24L1024 597.162667c-101.269333-78.762667-247.829333-192.917333-340.394667-265.962667L1021.482667 29.866667zM960 767.978667 64 767.978667c-23.36 0-64-40.682667-64-64l0-50.432c94.378667-75.136 196.885333-154.218667 283.733333-221.205333 47.893333-36.970667 90.816-70.186667 124.693333-96.64 91.306667-71.616 91.306667-71.616 184.512 2.901333C677.226667 405.973333 904 582.442667 1024 675.776L1024 703.914667C1024 727.36 983.381333 767.978667 960 767.978667z"  horiz-adv-x="1024" />

    
    <glyph glyph-name="bianji1" unicode="&#58993;" d="M968.151457 749.145777 924.658819 703.005681C921.764607 699.935761 917.471608 699.282205 915.069377 701.546543L808.715376 817.020541C806.313527 819.28488 806.712307 823.609201 809.606138 826.679121L850.305786 870.727912C876.352171 898.359486 914.991837 904.239585 936.610385 883.861686L977.059077 845.733864C1001.079475 823.091627 997.091291 779.847653 968.151457 749.145777ZM523.229598 279.318869 410.083727 403.707745 751.792553 766.217696 868.986196 646.122584 523.229598 279.318869ZM270.711181 136.254168 334.412886 297.725022C334.412886 297.725022 339.529802 329.826831 355.079557 347.533972L356.222039 352.231099 473.409953 228.64475 469.830862 225.719215C469.830862 225.719215 452.486595 209.165252 423.251497 205.060184L270.711181 136.254168ZM598.925268 760.853262 91.592774 760.853262 91.592774-67.648202 890.681139-67.648202 890.681139 454.891418 951.032937 454.891418 951.032937-69.017576C951.032937-92.019633 937.864404-111.944512 918.655725-121.669937 910.787837-125.715417 901.86532-128 892.409187-128L88.71766-128C56.974142-128 31.240975-102.266834 31.240975-70.523316L31.240975-70.52217C31.240975-70.421711 31.246323-70.32278 31.256254-70.225376 31.248233-69.82354 31.240975-69.421322 31.240975-69.017576L31.240975 787.406143C31.240975 806.072038 46.372852 821.203914 65.038746 821.203914L89.902923 821.203914C90.292154 821.203914 90.646625 821.066786 90.932342 820.845623 93.085908 821.080537 95.272705 821.20506 97.488915 821.20506L598.925268 821.20506C599.307623 821.20506 599.617404 820.89528 599.617404 820.512924L599.617404 761.545398C599.617404 761.163042 599.307623 760.853262 598.925268 760.853262Z"  horiz-adv-x="1024" />

    
    <glyph glyph-name="pinpaituan" unicode="&#58970;" d="M838.4 761.6 185.6 761.6 0 499.2l486.4-537.6c12.8-19.2 38.4-19.2 57.6 0L1024 499.2 838.4 761.6zM217.6 473.6l198.4-384-339.2 384L217.6 473.6zM531.2 518.4 531.2 716.8l121.6 0c57.6-108.8 89.6-166.4 108.8-198.4L531.2 518.4zM761.6 473.6l-230.4-435.2L531.2 473.6 761.6 473.6zM492.8 518.4 262.4 518.4l108.8 198.4 121.6 0L492.8 518.4zM492.8 473.6l0-435.2L262.4 473.6 492.8 473.6zM806.4 473.6l140.8 0-339.2-384L806.4 473.6zM953.6 518.4l-153.6 0-6.4 12.8c0 6.4-6.4 6.4-6.4 12.8l-96 172.8 121.6 0L953.6 518.4zM204.8 716.8l121.6 0C275.2 620.8 243.2 569.6 230.4 544L217.6 518.4 70.4 518.4 204.8 716.8z"  horiz-adv-x="1024" />

    
    <glyph glyph-name="paizhao" unicode="&#58912;" d="M846.560427 668.670833 762.801867 668.670833l-27.919179 55.636757c-16.464763 32.373844-25.008756 42.335185-55.837334 42.335185L344.01316 766.642775c-30.851092 0-41.029383-13.251428-55.838358-42.335185l-27.919179-55.636757-83.759583 0c-61.677623 0-111.677739-49.798515-111.677739-111.252023l0-445.078704c0-61.453508 50.000116-111.273514 111.677739-111.273514l670.065411 0c61.678646 0 111.676716 49.818982 111.676716 111.273514L958.238166 557.41881C958.238166 618.872318 908.239073 668.670833 846.560427 668.670833zM902.399808 105.688296c0-30.738523-25.00978-55.636757-55.838358-55.636757L176.493993 50.05154c-30.850068 0-55.837334 24.898234-55.837334 55.636757L120.656658 550.767001c0 30.714986 24.988289 55.63471 55.837334 55.63471l111.677739 0 27.919179 55.617313c19.73029 32.371798 24.988289 55.638804 55.837334 55.638804l279.195883 0c30.828578 0 36.084531-23.267006 55.837334-55.638804l27.918156-55.617313 111.678762 0c30.828578 0 55.838358-24.921771 55.838358-55.63471l0-445.078704L902.399808 105.688296zM511.528233 572.409942c-123.35627 0-223.356501-99.645128-223.356501-222.553168 0-122.884503 100.000232-222.525537 223.356501-222.525537S734.883711 226.972271 734.883711 349.856774C734.883711 472.764814 634.884503 572.409942 511.528233 572.409942zM511.528233 182.970041c-92.528715 0-167.515074 74.719263-167.515074 166.88878 0 92.171564 74.986359 166.912317 167.515074 166.912317 92.506201 0 167.515074-74.740753 167.515074-166.912317C679.04433 257.68828 604.035458 182.970041 511.528233 182.970041z"  horiz-adv-x="1025" />

    
    <glyph glyph-name="lock" unicode="&#58946;" d="M735.0044448000001 464.4029632l-37.9259264 0 0 142.6014816c0 101.64148159999999-83.4370368 185.0785184-185.0785184 185.0785184-101.64148159999999 0-185.0785184-83.4370368-185.0785184-185.0785184l0-142.6014816-37.9259264 0c-40.96 0-74.33481493333333-33.37481493333333-74.33481493333333-74.33481493333333l0-341.3333333333333c0-40.96 33.37481493333333-74.33481493333333 74.33481493333333-74.33481493333333l444.49185173333336 0c40.96 0 74.33481493333333 33.37481493333333 74.33481493333333 74.33481493333333L807.8222218666667 390.0681482666667C809.3392597333333 431.0281482666667 775.9644448 464.4029632 735.0044448000001 464.4029632L735.0044448000001 464.4029632 735.0044448000001 464.4029632zM551.4429631999999 94.24592639999992L551.4429631999999 94.24592639999992l-77.36888853333333 0-15.170370133333334 122.88c0 28.823703466666664 24.272593066666666 53.09629653333333 53.09629653333333 53.09629653333333 28.823703466666664 0 53.09629653333333-24.272593066666666 53.09629653333333-53.09629653333333L551.4429631999999 94.24592639999992 551.4429631999999 94.24592639999992 551.4429631999999 94.24592639999992zM618.1925930666666 464.4029632L618.1925930666666 464.4029632 407.32444480000004 464.4029632l0 142.6014816c0 57.64740693333333 47.02814826666667 106.19259306666666 106.19259306666666 106.19259306666666 57.64740693333333 0 106.19259306666666-47.02814826666667 106.19259306666666-106.19259306666666L619.7096298666665 464.4029632 618.1925930666666 464.4029632zM618.1925930666666 464.4029632"  horiz-adv-x="1026" />

    
    <glyph glyph-name="erweima1" unicode="&#58954;" d="M62.996776 411.938306l423.162696 0L486.159472 835.099978 62.996776 835.099978 62.996776 411.938306zM168.788218 729.30956l211.580836 0 0-211.580836L168.788218 517.728724 168.788218 729.30956zM539.055193 835.099978l0-423.162696 423.162696 0L962.217888 835.099978 539.055193 835.099978zM856.426447 517.728724 644.845611 517.728724 644.845611 729.30956l211.580836 0L856.426447 517.728724zM221.682915 570.623421l105.790418 0L327.473333 676.414863 221.682915 676.414863 221.682915 570.623421zM62.996776-64.120111l423.162696 0L486.159472 359.042585 62.996776 359.042585 62.996776-64.120111zM168.788218 253.252167l211.580836 0 0-211.580836L168.788218 41.671331 168.788218 253.252167zM803.531749 676.414863 697.740308 676.414863l0-105.790418 105.790418 0L803.530726 676.414863zM539.055193-64.120111l105.790418 0L644.845611 41.670308 539.055193 41.670308 539.055193-64.120111zM644.845611 253.252167l0-211.580836 105.790418 0L750.636029 253.252167 644.845611 253.252167zM856.426447 41.670308 750.636029 41.670308 750.636029-64.120111l211.580836 0L962.216865 147.461749 856.426447 147.461749 856.426447 41.670308zM856.426447 253.252167l105.790418 0L962.216865 359.042585 856.426447 359.042585 856.426447 253.252167zM539.055193 359.042585l0-105.790418 105.790418 0L644.845611 359.042585 539.055193 359.042585zM221.682915 94.566028l105.790418 0L327.473333 200.356446 221.682915 200.356446 221.682915 94.566028z"  horiz-adv-x="1024" />

    
    <glyph glyph-name="cooperation" unicode="&#58917;" d="M863.043 341.897c36.973 36.512 200.81 218.822-5.445 403.481 0 0-170.878 136.61-356.823-43.712-210.389 206.372-376.57 1.564-376.57 1.564-149.33-198.444 22.724-356.422 61.65-388.256l-17.61-21.617c-19.464-23.918-12.217-62.072 16.204-85.222 13.904-11.329 30.29-16.881 45.674-16.901 0.744-18.251 9.956-37.336 26.877-51.119 13.609-11.093 29.586-16.581 44.717-16.824-0.512-19.362 8.907-40.16 27.002-54.901 13.113-10.683 28.41-16.078 43.030-16.696 0.012-18.926 9.457-39.048 27.080-53.408 28.437-23.162 67.248-22.568 86.736 1.337l19.182 23.547 21.638-25.536c26.25-30.958 74.8-32.957 108.423-4.445 19.387 16.427 29.521 39.399 29.674 61.841 14.787 2.21 29.444 8.588 42.008 19.246 16.498 13.988 26.302 32.716 28.946 51.828 15.144 2.064 30.172 8.427 43.030 19.328 19.003 16.11 29.163 38.493 29.687 60.513 17.075 1.073 34.328 7.35 48.832 19.643 33.636 28.51 39.616 76.717 13.366 107.681l-7.311 8.625zM168.922 667.57c79.245 93.31 172.064 73.614 232.961 43.556l-0.005-0.005c0 0 0.037-0.015 0.101-0.043 8.351-4.126 49.482-32.036 59.593-46.899 0.395-0.592 0.791-1.179 1.184-1.782l-140.068-147.284c0 0-67.070-42.582 0-83.453 0 0 1.685-1.322 4.728-3.406-23.091 7.284-47.309 2.371-61.408-14.927l-43.756-53.694c-183.351 147.596-53.331 307.936-53.331 307.936zM218.022 243.697c-13.278 9.913-16.001 28.704-6.084 41.97l65.266 87.362c9.917 13.273 28.704 15.994 41.982 6.070 13.278-9.911 15.987-28.696 6.070-41.967l-65.279-87.364c-9.906-13.266-28.692-15.988-41.957-6.071zM290.573 175.677c-13.292 9.91-16 28.703-6.084 41.969l65.266 87.363c9.905 13.272 28.689 15.994 41.981 6.072 13.264-9.913 15.987-28.699 6.058-41.97l-65.267-87.364c-9.906-13.265-28.689-15.989-41.955-6.070zM404.057 109.81c-9.956-13.060-28.575-15.718-41.764-5.86-13.291 9.913-16 28.704-6.083 41.97l65.265 87.363c9.905 13.272 28.691 15.994 41.981 6.069 13.266-9.91 15.989-28.697 6.058-41.968l-65.458-87.574zM474.358 39.917c-9.905-13.265-28.691-15.987-41.956-6.070-13.292 9.911-16.001 28.703-6.084 41.968l65.382 87.486c9.929 13.156 28.625 15.84 41.867 5.947 13.265-9.913 15.987-28.696 6.058-41.97l-65.267-87.361zM596.187 30.908c-13.264-11.846-35.399-8.704-49.432 7.022l-15.68 17.546 41.187 50.549 22.52-25.202c14.032-15.723 14.67-38.070 1.405-49.915zM827.759 282.749c-2.513-18.009-19.536-22.841-19.536-22.841-17.419-4.593-27.563 6.395-27.563 6.395l-112.649 132.912-0.156-0.148c-5.29 5.472-12.665 8.903-20.868 8.903-6.199 0-11.925-1.981-16.651-5.298-2.467-1.489-4.576-3.496-6.122-5.922-3.871-4.934-6.261-11.068-6.261-17.817 0-8.198 3.425-15.571 8.881-20.848 0-0.014-0.026-0.034-0.038-0.047l111.631-124.968c8.138-9.113 11.762-20.446 10.796-30.674-0.019-0.114-0.041-0.21-0.059-0.33-1.947-12.976-14.99-17.366-14.99-17.366-11.361-2.751-18.657 2.894-21.399 5.616l-112.645 132.908-0.114-0.086c-5.392 6.214-13.341 10.149-22.214 10.149-16.239 0-29.404-13.165-29.404-29.406 0-8.423 3.548-16.013 9.223-21.374l111.673-131.747c0.182-0.378 0.476-0.788 0.911-1.236 6.672-6.888 6.465-14.466 6.465-14.466 0.218-20.971-16.661-25.121-16.661-25.121-15.056-4.233-24.266 5.619-24.398 5.761l-43.859 51.747c-3.771 13.7-11.961 27.043-24.639 37.373-13.099 10.683-28.397 16.077-43.017 16.69-0.013 18.923-9.47 39.043-27.092 53.414-13.611 11.093-29.587 16.582-44.703 16.825 0.496 19.348-8.92 40.155-27.017 54.901-13.891 11.323-30.276 16.883-45.662 16.895-0.715 17.412-9.214 35.52-24.689 49.139 51.016-23.918 192.228-8.547 257.351 60.911 0 0 26.606 29.335 55.139 7.019l149.523-167.39c8.085-9.052 11.713-20.298 10.811-30.474zM828.551 382.588l-113.497 133.907c-38.985 47.834-57.573 44.191-88.463 30.058 0 0-22.249-14.558-23.414-15.669-52.651-33.981-180.512-117.943-244.501-50.122 0 0 135.322 141.417 214.419 214.813 0.223 0.023 0.356 0.036 0.356 0.036s0.203 0.309 0.618 0.869c8.055 7.462 44.261 32.99 60.863 38.329 56.426 16.096 180.976 32.6 251.778-103.55-0.001-0.002 66.543-121.888-58.161-248.671z"  horiz-adv-x="1024" />

    
    <glyph glyph-name="arrow-right" unicode="&#58894;" d="M357.957 728.8240000000001l-49.463-48.973 294.308-296.327-296.782-293.831 49.044-49.381 346.239 342.809z"  horiz-adv-x="1024" />

    
    <glyph glyph-name="wodedingdan" unicode="&#58959;" d="M883.2-64 263.68-64 263.68 0l496.64 0c33.28 0 61.44 28.16 61.44 64l0 640 61.44 0L883.2-64 883.2-64zM230.4 128c-17.92 0-30.72 15.36-30.72 33.28 0 17.92 12.8 33.28 30.72 33.28l435.2 0c17.92 0 30.72-15.36 30.72-33.28 0-17.92-12.8-33.28-30.72-33.28L230.4 128 230.4 128zM230.4 384l435.2 0c17.92 0 30.72-15.36 30.72-33.28 0-17.92-12.8-33.28-30.72-33.28L230.4 317.44c-17.92 0-30.72 15.36-30.72 33.28C199.68 368.64 212.48 384 230.4 384M230.4 576l435.2 0c17.92 0 30.72-15.36 30.72-33.28 0-17.92-12.8-33.28-30.72-33.28L230.4 509.44c-17.92 0-30.72 15.36-30.72 33.28C199.68 560.64 212.48 576 230.4 576M417.28 768 665.6 768c17.92 0 30.72-15.36 30.72-33.28 0-17.92-12.8-30.72-30.72-30.72l-250.88 0c-17.92 0-30.72 15.36-30.72 30.72C386.56 752.64 399.36 768 417.28 768M883.2 768l-61.44 0L821.76 832C821.76 867.84 793.6 896 760.32 896L140.8 896C104.96 896 79.36 867.84 79.36 832l0-768c0-35.84 28.16-64 61.44-64l61.44 0 0-64c0-35.84 28.16-64 61.44-64l619.52 0c33.28 0 61.44 28.16 61.44 64l0 768C944.64 739.84 919.04 768 883.2 768"  horiz-adv-x="1024" />

    
    <glyph glyph-name="duigou2" unicode="&#58931;" d="M512 896C228.266667 896 0 667.733333 0 384c0-283.733333 228.266667-512 512-512 283.733333 0 512 228.266667 512 512C1024 667.733333 795.733333 896 512 896zM832 512 492.8 172.8C469.333333 149.333333 426.666667 149.333333 403.2 172.8L192 384c0 0-32 32 0 64s64 0 64 0l192-192 320 320c0 0 32 32 64 0S832 512 832 512z"  horiz-adv-x="1024" />

    
    <glyph glyph-name="xiangji" unicode="&#58941;" d="M585.142857 530.285714c-120.685714 0-219.428571-98.742857-219.428571-219.428571s98.742857-219.428571 219.428571-219.428571 219.428571 98.742857 219.428571 219.428571S705.828571 530.285714 585.142857 530.285714zM1024 749.714286l-109.714286 0-36.571429 73.142857c-21.942857 43.885714-32.914286 73.142857-73.142857 73.142857L365.714286 896C325.485714 896 310.857143 859.428571 292.571429 822.857143L256 749.714286 146.285714 749.714286C65.828571 749.714286 0 683.885714 0 603.428571l0-585.142857c0-80.457143 65.828571-146.285714 146.285714-146.285714l877.714286 0c80.457143 0 146.285714 65.828571 146.285714 146.285714L1170.285714 603.428571C1170.285714 683.885714 1104.457143 749.714286 1024 749.714286zM585.142857 18.285714c-160.914286 0-292.571429 131.657143-292.571429 292.571429s131.657143 292.571429 292.571429 292.571429 292.571429-131.657143 292.571429-292.571429S746.057143 18.285714 585.142857 18.285714z"  horiz-adv-x="1171" />

    
    <glyph glyph-name="youxiang" unicode="&#58930;" d="M893.421013 632.085238c-1.982144-16.412808-9.237385-32.210609-21.676695-44.729737L581.597101 297.208285c-29.696346-29.696346-78.243015-29.696346-107.939361 0L183.510524 587.355501c-12.519128 12.519128-19.770276 28.396747-21.676695 44.729737-0.38374-3.130294-0.611937-6.259564-0.611937-9.465582l0-396.939451c0-41.983183 34.348296-76.335572 76.336596-76.335572l580.14196 0c41.980113 0 76.332503 34.352389 76.332503 76.335572L894.03295 622.619656C894.03295 625.825674 893.804752 628.954945 893.421013 632.085238L893.421013 632.085238 893.421013 632.085238zM581.597101 352.777905l304.193117 304.19414c-12.598946 24.883737-38.473243 41.983183-68.089771 41.983183L237.558487 698.955228c-29.616528 0-55.499012-17.099447-68.089771-41.983183L473.65774 352.777905C503.349993 323.082582 551.900755 323.082582 581.597101 352.777905L581.597101 352.777905 581.597101 352.777905z"  horiz-adv-x="1024" />

    
    <glyph glyph-name="safe" unicode="&#58960;" d="M888.875 519l-84.375 0 0 112.5c0 112.5-90 202.5-202.5 202.5L422 834c-112.5 0-202.5-90-202.5-202.5l0-112.5L135.125 519C123.875 519 112.625 507.75 112.625 496.5l0-123.75 95.625 0c16.875 0 33.75-16.875 33.75-33.75S225.125 305.25 208.25 305.25L112.625 305.25l0-45 95.625 0c16.875 0 33.75-16.875 33.75-33.75s-16.875-33.75-33.75-33.75L112.625 192.75l0-45 95.625 0c16.875 0 33.75-16.875 33.75-33.75s-16.875-33.75-33.75-33.75L112.625 80.25l0-123.75c0-11.25 11.25-22.5 22.5-22.5l753.75 0c11.25 0 22.5 11.25 22.5 22.5L911.375 496.5C911.375 507.75 900.125 519 888.875 519zM568.25 147.75l0-129.375L455.75 18.375l0 129.375c-50.625 22.5-84.375 73.125-84.375 129.375 0 78.75 61.875 140.625 140.625 140.625 78.75 0 140.625-61.875 140.625-140.625C652.625 220.875 618.875 170.25 568.25 147.75zM686.375 519L337.625 519l0 112.5c0 50.625 39.375 90 90 90l174.375 0c50.625 0 90-39.375 90-90L692 519z"  horiz-adv-x="1024" />

    
    <glyph glyph-name="facebookfacebook52" unicode="&#58888;" d="M1024 384c0 282.763636-229.236364 512-512 512C229.236364 896 0 666.763636 0 384s229.236364-512 512-512C794.763636-128 1024 101.236364 1024 384zM374.504727 384 374.504727 481.978182l60.043636 0L434.548364 541.230545c0 79.918545 23.877818 137.495273 111.383273 137.495273l104.075636 0 0-97.745455-73.262545 0c-36.724364 0-45.056-24.389818-45.056-49.943273l0-49.058909 112.919273 0L629.201455 384l-97.512727 0 0-295.517091L434.548364 88.482909 434.548364 384 374.504727 384z"  horiz-adv-x="1024" />

    
    <glyph glyph-name="fangdajing1" unicode="&#58903;" d="M938.64603 9.726781l-173.071777 173.074847c53.665247 63.987337 86.075401 146.400325 86.075401 236.446154 0 203.406666-164.895561 368.298134-368.301204 368.298134-203.409736 0-368.302227-164.892491-368.302227-368.298134 0-203.409736 164.892491-368.302227 368.302227-368.302227 89.246627 0 171.055864 31.767518 234.798631 84.579327l173.148525-173.148525c1.576915-1.576915 8.15575 2.443655 14.6957 8.979512l23.675212 23.675212C936.205445 1.571031 940.222945 8.149866 938.64603 9.726781zM483.347426 117.906619c-166.425404 0-301.338093 134.912689-301.338093 301.338093s134.912689 301.338093 301.338093 301.338093S784.685519 585.670116 784.685519 419.244712 649.773853 117.906619 483.347426 117.906619z"  horiz-adv-x="1024" />

    
    <glyph glyph-name="yduiwodedingdan" unicode="&#59055;" d="M842.918293 831.711811 181.08273 831.711811c-32.118512 0-58.395992-26.276457-58.395992-58.393945l0-778.632663c0-32.118512 26.27748-58.393945 58.401108-58.393945l661.830447 0c32.118512 0 58.393945 26.276457 58.393945 58.393945L901.312238 773.316843C901.312238 805.429215 875.035782 831.711811 842.918293 831.711811L842.918293 831.711811zM335.83835 626.935961l352.320231 0c16.129352 0 29.193903-13.065574 29.193903-29.195949 0-16.127306-13.065574-29.197996-29.193903-29.197996L335.83835 568.542017c-16.127306 0-29.199019 13.07069-29.199019 29.197996C306.640354 613.871411 319.711044 626.935961 335.83835 626.935961L335.83835 626.935961zM335.83835 435.480488l149.916405 0c16.130376 0 29.194926-13.066597 29.194926-29.193903 0-16.134469-13.06455-29.200042-29.194926-29.200042L335.83835 377.086543c-16.127306 0-29.199019 13.066597-29.199019 29.200042C306.640354 422.414915 319.711044 435.480488 335.83835 435.480488L335.83835 435.480488zM759.860622 331.656865 496.857627 68.017372c-17.10968-16.158005-44.678572-16.158005-61.793368 0l-2.217505 2.535753L303.563272 200.474127c-17.115819 16.791431-17.115819 44.677549 0 61.46898 16.794501 17.110703 44.678572 17.110703 61.793368-0.63445l100.44262-100.449783 232.586243 232.589312c16.796548 17.10968 44.675502 17.10968 61.474097 0C776.653077 376.334413 776.653077 348.765521 759.860622 331.656865L759.860622 331.656865zM759.860622 331.656865"  horiz-adv-x="1024" />

    
    <glyph glyph-name="wenjianxinxi" unicode="&#58966;" d="M771.068 690.255c-1.405 0-2.78-0.105-4.13-0.302L255.414 689.953c-1.347 0.197-2.722 0.302-4.125 0.302-15.862 0-28.72-12.862-28.72-28.725s12.857-28.722 28.72-28.722l0-0.297 519.779 0 0 0.297c15.865 0 28.72 12.86 28.72 28.722S786.933 690.255 771.068 690.255zM771.068 466.991c-1.405 0-2.78-0.105-4.13-0.297L255.414 466.694c-1.347 0.193-2.722 0.297-4.125 0.297-15.862 0-28.72-12.857-28.72-28.72 0-15.865 12.857-28.722 28.72-28.722l0-0.297 519.779 0 0 0.297c15.865 0 28.72 12.857 28.72 28.722C799.788 454.134 786.933 466.991 771.068 466.991zM498.219 249.957c-1.402 0-2.777-0.105-4.125-0.295L254.754 249.662c-1.345 0.19-2.722 0.295-4.122 0.295-15.865 0-28.722-12.855-28.722-28.72 0-15.86 12.857-28.725 28.722-28.725l0-0.29 247.587 0 0 0.29c15.865 0 28.73 12.865 28.73 28.725C526.949 237.102 514.084 249.957 498.219 249.957zM944.318 803.105c0 44.557-36.245 80.81-80.81 80.81L159.3 883.915c-44.562 0-80.81-36.252-80.81-80.81l0-845.153c0-44.55 36.252-80.805 80.81-80.805l464.214 0c7.74-0.33 15.6 2.43 21.51 8.35l0.215-0.21 290.589 290.594-0.21 0.21c5.575 5.58 8.385 12.89 8.405 20.2l0.295 0L944.318 545.046l0.065 0 0 57.447-0.065 0L944.318 803.105zM624.868-53.848 624.868 184.107l237.944 0L624.868-53.848zM888.218 240.417c-2.2 0.535-4.495 0.83-6.86 0.83l0 0.305L595.839 241.552c-15.855 0-28.72-12.865-28.72-28.725 0-0.045 0.01-0.08 0.01-0.13 0-0.055-0.01-0.115-0.01-0.175 0-1.4 0.105-2.77 0.3-4.12l0-273.954L147.332-65.552c-6.365 0-11.545 5.175-11.545 11.54L135.787 815.075c0 6.365 5.18 11.542 11.545 11.542l729.341 0c6.37 0 11.545-5.18 11.545-11.542"  horiz-adv-x="1024" />

    
    <glyph glyph-name="kefu2" unicode="&#58950;" d="M389.519458 313.059298c-30.085202 0-54.416354-24.352641-54.416354-54.359049 0-30.086226 24.330128-54.441936 54.416354-54.441936 23.034623 0 42.512233 14.437827 50.367131 34.632775l-39.510876 19.810185 39.510876 19.699668C432.032714 298.707428 412.55408 313.059298 389.519458 313.059298L389.519458 313.059298zM643.209344 204.035232c22.978341 0 42.515303 14.408151 50.364061 34.685987l-39.565111 19.72832 39.565111 19.759019c-7.849782 20.247136-27.38572 34.633798-50.364061 34.633798-30.088272 0-54.4184-24.357757-54.4184-54.392818C588.790944 228.391966 613.118002 204.035232 643.209344 204.035232L643.209344 204.035232zM889.345184 331.8472c0.206708 8.553817 0.231267 17.248849 0.057305 25.971511 2.326998 117.957529-32.779567 217.391169-101.535511 287.574624-32.796964 33.466206-72.677253 59.157331-118.382201 76.653821C662.388149 785.763316 593.192184 835.930903 509.139859 835.930903c-84.052325 0-153.24829-50.166563-160.344918-113.883747-45.702901-17.496489-85.581144-43.188638-118.372991-76.654844-68.77641-70.184479-103.890138-169.424714-101.55393-287.025109-0.202615-11.111059-0.134053-21.544689 0.209778-31.745005-17.820877-17.934464-31.781844-45.029566-21.579481-83.044368 7.580652-28.248368 28.479635-49.41341 54.125735-58.676377 13.030781-8.040117 28.339442-12.717649 44.717458-12.824073 32.692586-142.950759 151.384849-240.008282 306.381969-240.008282 154.712641 0 273.429463 97.29493 305.941947 240.334717 1.001817-0.218988 2.038426-0.341784 3.105734-0.341784 20.419052 0 39.196721 7.128351 54.010101 19.004843 19.36914 10.986215 34.513048 29.371958 40.72247 52.509934C927.750889 285.488359 909.631206 314.125583 889.345184 331.8472zM509.139859 806.89152c62.61099 0 115.169019-31.789007 128.593773-74.27975-39.074947 11.147898-81.779561 16.864086-127.487579 16.864086l-2.221598 0c-45.704948 0-88.406492-5.716188-127.47837-16.863063C393.971863 775.102512 446.529893 806.89152 509.139859 806.89152zM513.280156-38.900729c-0.236384 0.00921-0.87902 0.00921-1.115404 0.00921-168.273495 0-285.803281 120.327506-285.803281 292.883537l-0.312108 16.419971c-0.210801 7.0383 0.881067 26.802436 2.053776 45.75816C319.838446 348.620211 357.927949 441.866942 359.592868 446.059428c2.958378 7.439436-0.662079 15.862269-8.101515 18.84009-7.468089 2.987031-15.880689-0.651846-18.868743-8.082072-0.370437-0.911766-35.933397-87.300298-117.450992-114.372887-2.347464 1.630127-18.520819 18.191314-40.285518 12.440333 0.01535 1.166569 0.028653 2.324952 0.050142 3.518127-2.145873 105.457844 28.41619 193.551204 88.386026 254.750031 57.861826 59.043744 142.475945 90.257653 244.682745 90.257653l1.068332-0.01842 0 0 0.26913-17.024745 1.172709 0.01842-0.26913 17.025769c102.234429 0 186.857758-31.213909 244.710374-90.257653 59.969836-61.198827 90.531899-149.292188 88.376817-255.326153 0.016373-0.825808 0.026606-1.63422 0.039909-2.451842-30.691 0-35.956933-27.236318-35.678594-28.359908-0.124843-0.554632-0.2415-1.113357-0.340761-1.678222-0.750083-4.234441-1.599428-15.413038-2.445702-29.446659-0.518816-0.421602-0.998747-0.887206-1.454118-1.379417-44.283576 43.678802-102.051257 55.92266-158.13253 67.805292-29.351492 6.219655-59.69559 12.648065-88.301092 23.491017C455.43675 424.345893 399.380036 516.352377 398.822334 517.278469c-4.111644 6.872524-13.016455 9.112542-19.908422 5.010107-6.872524-4.111644-9.121751-13.016455-5.019317-19.898189 2.457981-4.121877 61.529355-101.516068 172.820044-143.733589 30.703279-11.646248 62.162782-18.310018 92.582605-24.747637 61.028958-12.93152 118.673843-25.14468 157.950382-76.125795 0.413416-0.536212 0.86367-1.02433 1.332345-1.485841-0.056282-2.573615-0.056282-2.578732-0.056282-2.578732 0-19.005866-1.434675-37.377282-4.204765-55.027268C743.823879 118.017136 660.052964 65.154161 556.273343 53.76374c-7.736195 10.207479-23.49204 17.245779-41.794895 17.245779-25.956162 0-47.012733-14.047947-47.012733-31.337729 0-17.324574 21.056572-31.342846 47.012733-31.342846 23.263843 0 42.430368 11.316743 46.157249 26.123984 33.479509 3.846608 65.392336 11.846816 95.310739 23.927969 42.738383 17.260106 80.397075 42.401716 111.929232 74.731028 5.045923 5.173836 9.892301 10.525728 14.576997 16.016789C744.873792 34.67908 644.420939-38.892543 513.280156-38.900729z"  horiz-adv-x="1024" />

    
    <glyph glyph-name="tuichu" unicode="&#58939;" d="M833.633836 344.903563 481.955218 344.903563c-16.207124 0-29.359678 13.019525-29.359678 29.322839 0 16.188704 13.057387 29.321816 29.359678 29.321816l359.371834 0-74.718749 74.719772c-11.435447 11.414981-11.473309 29.894867 0.057305 41.424458 11.453866 11.453866 30.124088 11.340279 41.407062 0.038886l109.329011-109.310591c5.555529-1.069355 10.881838-3.703345 15.196097-8.018627 6.681166-6.681166 9.468652-15.691377 8.399297-24.319895 1.069355-8.630564-1.718131-17.640776-8.399297-24.321942-4.314259-4.315282-9.640568-6.987135-15.196097-8.018627l-109.329011-109.309568c-11.281951-11.30037-29.953196-11.413957-41.407062 0.039909-11.530614 11.530614-11.491729 30.009478-0.057305 41.423435L833.633836 344.903563zM745.933425 657.67608l0 97.704253c0 43.2572-35.029818 78.230736-78.230736 78.230736l-508.36931 0c-43.181475 0-78.230736-35.011398-78.230736-78.230736l0-742.759641c0-43.256176 35.011398-78.230736 78.230736-78.230736l508.36931 0c43.181475 0 78.230736 35.050284 78.230736 78.230736l0 97.704253c0 16.188704-13.134135 29.321816-29.341259 29.321816-16.208147 0-29.341259-13.133112-29.341259-29.321816l0-78.230736c0-21.571295-17.600867-39.059598-38.925544-39.059598l-469.635123 0c-21.49557 0-38.943964 17.450441-38.943964 39.059598l0 703.852516c0 21.533432 17.600867 39.019689 38.943964 39.019689l469.635123 0c21.515013 0 38.925544-17.410532 38.925544-39.019689l0-78.269621c0-16.187681 13.133112-29.321816 29.341259-29.321816C732.79929 628.354264 745.933425 641.488399 745.933425 657.67608z"  horiz-adv-x="1024" />

    
    <glyph glyph-name="101" unicode="&#58887;" d="M967.232-23.232l-75.008 69.376c26.88 33.344 42.944 75.456 42.944 121.152 0 108.096-89.664 195.968-199.68 195.968-110.208 0-199.808-87.744-199.808-195.968 0-107.84 89.664-195.84 199.808-195.84 49.088 0 94.144 17.472 128.96 46.464l75.2-69.824c4.032-3.648 9.024-5.312 13.76-5.312 5.504 0 10.816 2.048 14.656 6.016C975.616-43.328 975.296-30.784 967.232-23.232zM735.488 10.816c-88.128 0-159.744 70.4-159.744 156.416 0 86.272 71.552 156.672 159.744 156.672 87.872 0 159.616-70.4 159.616-156.672C895.104 81.216 823.36 10.816 735.488 10.816zM464.192 801.984 115.968 801.984C104.896 801.984 96 793.216 96 782.4l0-348.608c0-10.816 9.344-20.48 20.48-20.48l347.776 0c11.008 0 20.48 9.664 20.48 20.48L484.736 781.568C484.672 792.32 475.264 801.984 464.192 801.984zM914.24 801.984 566.016 801.984c-11.072 0-19.968-8.768-19.968-19.584l0-348.608c0-10.816 9.344-20.48 20.48-20.48l347.776 0c11.008 0 20.48 9.664 20.48 20.48L934.784 781.568C934.72 792.32 925.312 801.984 914.24 801.984zM464.192 351.936 115.968 351.936C104.896 351.936 96 343.168 96 332.352l0-348.608c0-10.816 9.344-20.48 20.48-20.48l347.776 0c11.008 0 20.48 9.664 20.48 20.48L484.736 331.52C484.672 342.272 475.264 351.936 464.192 351.936z"  horiz-adv-x="1024" />

    
    <glyph glyph-name="qianbao1" unicode="&#58961;" d="M765.8 775.66875C742.11875 812.625 716.24375 834 654.03125 834c-13.275 0-53.60625 0-314.49375-139.1625L231.59375 638.25l616.3875 0L765.8 775.66875zM460.475 694.5C619.2125 775.05 650.54375 777.75 654.03125 777.75c39.99375 0 48.9375-8.38125 63.9-31.66875L748.8125 694.5 460.475 694.5zM703.75625 312.5625c-10.6875-10.6875-15.975-24.13125-15.975-40.1625 0-16.0875 5.2875-29.41875 15.975-40.1625 10.74375-10.74375 24.1875-16.0875 40.275-16.0875 16.03125 0 29.41875 5.34375 40.1625 16.0875 10.6875 10.6875 16.0875 24.075 16.0875 40.1625 0 16.03125-5.4 29.41875-16.0875 40.1625-10.6875 10.74375-24.13125 16.0875-40.1625 16.0875C727.94375 328.70624999999995 714.55625 323.36249999999995 703.75625 312.5625zM959.1875 358.01250000000005L962 358.01250000000005 962 458.3625c0 77.4-62.94375 140.2875-140.2875 140.2875L202.2875 598.65C124.94375 598.65 62 535.7625 62 458.3625l0-384.075C62-3.0562499999999773 124.94375-66 202.2875-66l619.425 0C899.05625-66 962-3.0562499999999773 962 74.28750000000002l0 67.725-0.28125 0 0 44.775-237.20625 0c-45.73125 0-84.31875 39.76875-84.31875 86.85 0 46.51875 37.8 84.375 84.31875 84.375l181.29375 0L959.1875 358.01250000000005zM724.5125 414.2625c-77.5125 0-140.56875-63.1125-140.56875-140.625 0-78.8625 63.05625-143.04375 140.56875-143.04375l181.29375 0 0-56.30625c0-46.35-37.74375-84.0375-84.09375-84.0375L202.2875-9.75c-46.29375 0-84.09375 37.6875-84.09375 84.0375L118.19375 458.3625c0 46.35 37.74375 84.0375 84.09375 84.0375l619.425 0c46.35 0 84.09375-37.6875 84.09375-84.0375l0-44.1L724.5125 414.2625z"  horiz-adv-x="1024" />

    
    <glyph glyph-name="erweima" unicode="&#58952;" d="M171.52 610.944l113.536 0L285.056 724.48 171.52 724.48 171.52 610.944 171.52 610.944zM341.76 213.76l113.536 0 0 113.536L341.76 327.296 341.76 213.76 341.76 213.76zM257.152 128.128 257.152 213.76 114.816 213.76l0-226.944L341.76-13.184 341.76 128.128 257.152 128.128 257.152 128.128zM1.28 327.296 1.28 213.76l113.536 0 0 113.536L1.28 327.296 1.28 327.296zM341.76-126.72l113.536 0 0 113.536L341.76-13.184 341.76-126.72 341.76-126.72zM1.28-126.72l113.536 0 0 113.536L1.28-13.184 1.28-126.72 1.28-126.72zM1.28 440.704l454.016 0L455.296 894.72 1.28 894.72 1.28 440.704 1.28 440.704zM86.912 809.088l283.776 0 0-283.776L86.912 525.312 86.912 809.088 86.912 809.088zM682.24 781.184 682.24 894.72l-113.536 0 0-113.536 0-113.536 226.944 0L795.648 554.24l113.536 0L909.184 781.184 682.24 781.184 682.24 781.184zM568.704 440.704l226.944 0L795.648 554.24 568.704 554.24 568.704 440.704 568.704 440.704zM1022.72 894.72l-113.536 0 0-113.536L1022.72 781.184 1022.72 894.72 1022.72 894.72zM568.704-126.72 1022.72-126.72 1022.72 327.296 568.704 327.296 568.704-126.72 568.704-126.72zM654.336 241.664l283.776 0 0-283.776L654.336-42.112 654.336 241.664 654.336 241.664zM1022.72 440.704 1022.72 554.24l-113.536 0 0-113.536L1022.72 440.704 1022.72 440.704zM738.944 43.52 852.48 43.52l0 113.536-113.536 0L738.944 43.52 738.944 43.52zM738.944 43.52"  horiz-adv-x="1024" />

    
    <glyph glyph-name="integral" unicode="&#58972;" d="M511.99700666 437.44700154C362.85849354 437.44700154 233.81605295 475.2233424 169.93619647 530.35926968L169.93619647 443.68961111C189.00608613 378.46289062000005 334.80950666 327.73099692000005 511.99700666 327.73099692000005 702.16143934 327.73099692000005 856.30259172 386.1378804 856.30259172 458.20581695 856.30259172 458.14168056 897.39264689 458.0561659 896.81541946 458.20581695 896.81541946 363.96806385 724.52366426 287.60298746 511.99700666 287.60298746 362.85849354 287.60298746 233.81605295 325.27243461 169.93619647 380.28008835L169.93619647 294.29455248C189.00608613 229.08921024999995 334.80950666 178.35731654999995 511.99700666 178.35731654999995 702.16143934 178.35731654999995 856.30259172 236.76420005 856.30259172 308.81075828999997 856.30259172 308.74662192000005 897.39264689 308.66110647999994 896.81541946 308.81075828999997 896.81541946 214.59438349000004 724.52366426 138.20792882 511.99700666 138.20792882 362.85849354 138.20792882 233.81605295 175.87737518999995 169.93619647 230.88502971000003L169.93619647 144.57881114999998C189.00608613 79.37346893999995 334.80950666 28.641575229999944 511.99700666 28.641575229999944 702.16143934 28.641575229999944 856.30259172 87.04845873 856.30259172 159.09501696999996 856.30259172 159.05225965 897.39264689 158.96674421 896.81541946 159.09501696999996 896.81541946 64.87864217000003 724.52366426-11.5078125 511.99700666-11.5078125 332.50059616-11.5078125 182.14349103 43.05088658 139.59967814 116.76499149999995L127.17859462 116.76499149999995 127.17859462 587.09860648 130.49230893 587.09860648C128.52545939 594.1108534 127.17859462 601.22999403 127.17859462 608.4774074100001 127.17859462 702.92894869 299.47034982 779.5078125 511.99700666 779.5078125 724.52366426 779.5078125 896.81541946 702.92894869 896.81541946 608.4774074100001 896.81541946 514.02586535 724.52366426 437.44700154 511.99700666 437.44700154ZM511.99700666 739.42256115C321.98222656 739.42256115 167.92658883 680.80188947 167.92658883 608.4774074100001 167.92658883 536.15292458 321.98222656 477.53225289 511.99700666 477.53225289 702.01178752 477.53225289 856.06742525 536.15292458 856.06742525 608.4774074100001 856.06742525 680.80188947 702.01178752 739.42256115 511.99700666 739.42256115Z"  horiz-adv-x="1024" />

    
    <glyph glyph-name="moban" unicode="&#58911;" d="M880.772948 34.875554l0-16.623609c0-80.719416-131.784442-80.719416-284.407492-80.719416l-168.754448 0c-158.874427 0-284.383956 0-284.383956 80.719416l0 16.623609c0 154.426115 127.546931 280.028764 284.383956 280.028764l168.754448 0C753.191224 314.904319 880.772948 189.265854 880.772948 34.875554zM748.501412 589.122751c0-133.092227-109.88262-241.345744-244.948805-241.345744-135.052882 0-244.948805 108.291378-244.948805 241.345744 0 133.066645 109.895923 241.345744 244.948805 241.345744C638.618792 830.467471 748.501412 722.213955 748.501412 589.122751z"  horiz-adv-x="1024" />

    
    <glyph glyph-name="brand" unicode="&#58963;" d="M948.47907954 50.46439595000004L812.69316835 267.26428558l4.69560207 6.22897835c24.88913579 33.02057187 44.16171122 69.54800014 57.28098759 108.56702066 13.16119097 39.14359922 19.83376611 79.92652686 19.83376612 121.21592263 0 210.97841323-171.6624987 382.61995406-382.66652672 382.61995406-15.46998784 0-31.18797141-0.93725696-46.71850383-2.78499328-66.00854414-7.86947072-129.43468089-33.44204686-183.42187804-73.95136398-54.11410489-40.60362525-96.2441216-94.35912875-121.83299869-155.45551076-26.65071389-63.60543915-36.11526827-132.63649223-27.37024796-199.63002993 8.52263936-65.28085902 34.08823069-127.72549632 73.93390023-180.57866923l4.69560206-6.23014229L75.31134749 50.46556103c-6.04851314-9.65549853-6.37102307-20.87930311-0.8813716-30.79211122 6.2860288-11.35304135 18.60427093-17.38991047 31.37658766-15.3849947l83.78383588 13.19611961c2.73260089 0.42846094 5.5117733 0.64618382 8.26067286 0.64618382l0.64501987 0 0.62988402 0.14087965c38.08176242 8.54709021 40.68163357-2.19120299 46.37736505-25.71578482 1.02574421-4.23803449 2.08641707-8.61811143 3.43234218-13.21009152l21.84683293-77.86339556c4.59198009-16.41423189 18.73467165-22.23803506 29.44967907-22.23803506 10.58111374 0 19.91060935 5.20672711 25.5958619 14.28473629L469.7360896 123.27475200000003l7.03583459-0.74049195c12.35200569-1.30051755 23.84126976-1.93272946 35.12328875-1.93272946 11.27968995 0 22.77244701 0.63221191 35.12911076 1.93272946l7.03699968 0.74049195 143.89056853-229.72239986c5.68874553-9.07568014 15.01591325-14.28007936 25.59353401-14.27891427 10.71500743 0.00116395 24.86235705 5.8238043 29.46481493 22.23105024l21.81190315 77.8482597 0.09197909 0.37606741c8.29676658 39.59418197 21.10051897 39.2029787 42.31630393 38.57193073 2.80129422-0.08382919 5.70038841-0.17115136 8.71241956-0.17115136 2.75472157 0 5.5280731-0.21772288 8.2432091-0.64501987l83.80130077-13.19611961c1.64165632-0.25963747 3.30776235-0.39120327 4.95174656-0.39120327 11.07943197 0 20.95731143 5.89831851 26.42600504 15.7808549C954.85126656 29.59091484999999 954.52875662 40.81239040000003 948.47907954 50.46439595000004zM286.50981262 273.03918819l-15.11487829 17.05226582c-52.41539925 59.00530915-81.28176583 134.71475939-81.28176583 213.18242418 0 177.43390834 144.32717938 321.78670251 321.72965205 321.7867025 20.64411534 0 41.60491975-1.98395904 62.30142862-5.89599061 49.65951261-9.37141134 97.23843015-31.20310727 137.58940388-63.13389966 40.30207317-31.89004174 72.51462485-73.15382272 93.15641116-119.32976469 26.10349511-58.37658909 34.67387107-121.94477056 24.78551268-183.8328741-9.65666361-60.43273443-36.37141277-116.72174365-77.25912633-162.78358472l-15.1207003-17.04411477L861.50158222 74.79350612999997l-91.15731627 14.2835712c-15.20336441 2.40310499-29.83506034-6.97994923-34.03001628-21.84333994l-23.26377927-83.18771769L584.35045831 189.45444637000003l-19.97697479-3.29379044c-17.29909533-2.85135872-34.95795939-4.29741283-52.48525653-4.29741284-17.52613319 0-35.18266823 1.44605411-52.47943566 4.29741284l-19.97813874 3.29262649L310.79584313-15.851521140000045 287.43659179 67.24887437999996c-3.65937891 13.07270485-15.67373995 22.20194247-29.21798429 22.20194247-1.58227683 0-3.18551154-0.12574379-4.75730944-0.37490346l-91.16197433-14.28590024L286.50981262 273.03918819zM367.29326137 486.39742179c12.51966521-12.22393401 18.22354659-29.79547477 15.25692188-47.00957696l-14.26377842-83.25058901c-1.55200512-9.01397277 0.77076366-17.74851413 6.54100936-24.59573248 5.82962517-6.91824071 14.58163143-11.0479963 23.41048092-11.0479963 4.87373938 0 9.64036267 1.20620942 14.16830635 3.58602866l74.81527182 39.31475057c7.57257557 3.99120384 16.10802176 6.10090553 24.68305465 6.10090554 8.57037597 0 17.11397319-2.11203072 24.70983338-6.10905658l74.78034319-39.3089297c4.5244507-2.37749021 9.28292409-3.58253568 14.14385664-3.58253568 8.82186354 0 17.57154077 4.12975445 23.40233102 11.04566727 5.78188971 6.85187641 8.11746531 15.58641778 6.57477405 24.60039054l-14.28706418 83.25757497c-2.94100878 17.24553785 2.7733504 34.81591467 15.28952263 47.00375609l60.53169948 59.01462301c8.48072477 8.26649486 11.36002731 19.92108829 7.70414023 31.17516458-3.65705102 11.25640419-12.83868103 18.99663815-24.56662584 20.70465878l-83.67788488 12.17154048c-17.25019591 2.49741312-32.18577294 13.33700039-39.94696362 28.98512554l-37.39832093 75.81423616c-5.23816391 10.59857749-15.43040227 16.92535694-27.26429696 16.92535694-11.83505977 0-22.03544803-6.33260032-27.2887478-16.9463148l-37.40763591-75.77232157c-7.70181234-15.65976803-22.64204629-26.50401223-39.97024939-29.00841131l-83.64644921-12.1680475c-11.71862983-1.70802062-20.89909589-9.4529115-24.55731086-20.71630165-3.6523941-11.25058333-0.77309155-22.90051982 7.70414023-31.1658496L367.29326137 486.39742179zM582.62264491 499.34903979c-7.15110059-6.99159211-10.41461931-17.04993678-8.73221234-26.90569444l11.25989717-65.89095026-59.11009507 31.12160712c-4.35679232 2.28667506-9.24217458 3.43001315-14.12988473 3.43001315-4.89353216 0-9.78822827-1.14683107-14.15549952-3.43932814l-59.13454592-31.1076352 11.29016889 65.89560718c1.68706389 9.86623659-1.59042674 19.91875925-8.75782713 26.88240867l-47.82807609 46.64864541 66.1063441 9.59728413c9.91397205 1.43790421 18.48085504 7.65873266 22.91681963 16.64126862l29.55330105 59.88551566 29.54980807-59.89133767c4.43829248-8.98370105 13.00168249-15.20220046 22.90517675-16.63428381l66.09703026-9.59961315-47.82458312-46.62535965L582.62264491 499.34903979z"  horiz-adv-x="1024" />

    
    <glyph glyph-name="top1" unicode="&#58967;" d="M132.579551 279.078369l92.213191 0 0-240.313228 44.706201 0 0 240.313228 92.213191 0 0 39.117926L132.579551 318.196295 132.579551 279.078369zM132.579551 279.078369M518.194072 323.783547c-41.915645 0-78.238922-13.970176-100.596116-41.911552-22.352077-25.15082-33.528628-61.474097-33.528628-103.389742s11.17655-78.243015 33.528628-103.389742c25.15082-27.944446 58.680471-41.915645 100.596116-41.915645s75.445296 13.9712 100.596116 41.915645c22.352077 25.146727 36.323277 61.474097 36.323277 103.389742s-11.17655 78.238922-36.323277 103.389742C596.432994 309.813371 560.109718 323.783547 518.194072 323.783547L518.194072 323.783547zM585.256444 100.239238c-16.764825-19.558451-39.120996-27.940352-67.062372-27.940352-27.945469 0-50.297546 8.381901-67.062372 27.940352-13.970176 19.563568-22.357194 44.710294-22.357194 75.449389 0 30.735002 8.387018 58.680471 22.357194 75.444273 16.764825 19.563568 39.116903 27.945469 67.062372 27.945469 27.941376 0 50.297546-8.381901 67.062372-27.945469 16.768919-19.558451 22.357194-44.709271 22.357194-78.238922C607.613638 144.949532 602.025363 119.802806 585.256444 100.239238L585.256444 100.239238zM585.256444 100.239238M814.389028 318.196295 699.822736 318.196295l0-279.431154 44.710294 0L744.533031 144.949532l69.855998 0c67.066465 0 103.389742 27.944446 103.389742 86.624916C914.985144 290.254919 881.455493 318.196295 814.389028 318.196295L814.389028 318.196295zM853.511048 195.247078c-8.382924-8.381901-25.146727-11.17655-44.710294-11.17655l-67.062372 0 0 95.007841 67.062372 0c19.563568 0 36.32737-2.793626 44.710294-11.180644 8.381901-8.381901 13.970176-19.558451 13.970176-36.323277C867.481224 214.80553 864.687598 203.630003 853.511048 195.247078L853.511048 195.247078zM853.511048 195.247078M537.752524 690.503742 300.238039 452.988234l463.853443 0L537.752524 690.503742zM537.752524 690.503742"  horiz-adv-x="1024" />

    
    <glyph glyph-name="jifenguizeguankong" unicode="&#58992;" d="M112.12673 611.910757a390.766 200.815 0 1 0 799.74654 0 390.766 200.815 0 1 0-799.74654 0ZM512 344.591455c-163.335019 0-303.791981 50.327222-365.869828 122.45189-21.856797-25.394367-34.003442-53.489238-34.003442-83.043345 0-113.491821 179.029466-205.495234 399.87327-205.495234s399.87327 92.003414 399.87327 205.495234c0 29.554106-12.145621 57.648978-34.003442 83.043345C815.791981 394.918677 675.335019 344.591455 512 344.591455zM512 111.014652c-165.466566 0-307.456441 51.64831-368.263341 125.285424-20.35049-24.644283-31.609928-51.751664-31.609928-80.20981 0-113.491821 179.029466-205.495234 399.87327-205.495234s399.87327 92.003414 399.87327 205.495234c0 28.459169-11.259438 55.565527-31.609928 80.20981C819.456441 162.662963 677.466566 111.014652 512 111.014652z"  horiz-adv-x="1024" />

    
    <glyph glyph-name="you" unicode="&#59032;" d="M796.288 586.24l-80.896 0 0-80.896 80.896 0L796.288 586.24 796.288 586.24zM877.184 505.344l-80.896 0 0-80.896 80.896 0L877.184 505.344 877.184 505.344zM715.392 262.656 715.392 181.76l80.896 0 0 80.896L715.392 262.656 715.392 262.656zM796.288 343.552l0-80.896 80.896 0 0 80.896L796.288 343.552 796.288 343.552zM958.08 424.448l-80.896 0 0-80.896 80.896 0L958.08 424.448 958.08 424.448zM796.288 424.448l-80.896 0 0-80.896 80.896 0L796.288 424.448 796.288 424.448zM472.704 424.448l-80.896 0 0-80.896 80.896 0L472.704 424.448 472.704 424.448zM634.496 424.448l-80.896 0 0-80.896 80.896 0L634.496 424.448 634.496 424.448zM958.08 424.448M146.048 300.032c-46.336 0-83.968 37.632-83.968 83.968 0 46.336 37.632 83.968 83.968 83.968s83.968-37.632 83.968-83.968C230.016 337.664 192.384 300.032 146.048 300.032zM146.048 460.288c-42.112 0-76.288-34.176-76.288-76.288 0-42.112 34.176-76.288 76.288-76.288s76.288 34.176 76.288 76.288C222.336 426.112 188.16 460.288 146.048 460.288z"  horiz-adv-x="1024" />

    
    <glyph glyph-name="address" unicode="&#58924;" d="M511.998 700.849c-139.865 0-253.245-113.379-253.245-253.245 0-139.868 198.462-353.918 198.462-353.918 30.256-35.318 79.774-35.506 109.734 0.188 0 0 198.3 213.863 198.3 353.731-0.001 139.865-113.38 253.245-253.249 253.245v0 0 0zM511.998 338.544c-64.71 0-117.151 52.446-117.151 117.151 0 64.703 52.443 117.151 117.151 117.151 64.705 0 117.151-52.448 117.151-117.151 0.001-64.706-52.446-117.151-117.151-117.151v0 0 0zM511.998 338.544z"  horiz-adv-x="1025" />

    
    <glyph glyph-name="laba" unicode="&#58973;" d="M867.2 611.2c-12.8 12.8-32 12.8-44.8 0-12.8-12.8-12.8-32 0-44.8 44.8-44.8 73.6-108.8 73.6-182.4s-28.8-134.4-73.6-182.4c-12.8-12.8-12.8-32 0-44.8 12.8-12.8 32-12.8 44.8 0 57.6 57.6 92.8 137.6 92.8 227.2S924.8 553.6 867.2 611.2zM774.4 518.4c-12.8 12.8-32 12.8-44.8 0-12.8-12.8-12.8-32 0-44.8 22.4-22.4 38.4-54.4 38.4-89.6s-12.8-67.2-38.4-89.6c-12.8-12.8-12.8-32 0-44.8 12.8-12.8 32-12.8 44.8 0 35.2 35.2 57.6 83.2 57.6 134.4S809.6 486.4 774.4 518.4zM556.8 752 320 608l0-448 236.8-144c44.8-28.8 83.2-6.4 83.2 44.8L640 704C640 758.4 601.6 777.6 556.8 752zM64 512l0-256c0-54.4 41.6-96 96-96l96 0L256 608 160 608C105.6 608 64 566.4 64 512z"  horiz-adv-x="1024" />

    
    <glyph glyph-name="kefu1" unicode="&#58907;" d="M650.511657 349.506395c-12.002358 0-21.731954-9.729595-21.731954-21.731954l-0.024559 0c0-66.015529-53.516868-119.531374-119.531374-119.531374-65.87943 0-119.306246 53.29788-119.525234 119.127168 0.002047 0.1361 0.020466 0.268106 0.020466 0.404206 0 12.002358-9.729595 21.731954-21.732977 21.731954s-21.732977-9.729595-21.732977-21.731954c0-90.02127 72.975035-162.996305 162.996305-162.996305 90.020246 0 162.995281 72.975035 162.995281 162.996305C672.244634 339.776799 662.515039 349.506395 650.511657 349.506395zM1022.819105 382.217401c0 41.544185-27.431769 76.673264-65.167209 88.284719C924.353512 686.704207 737.50087 852.252637 511.978511 852.252637c-225.52236 0-412.376025-165.54843-445.674409-381.750517-37.734416-11.611455-65.166185-46.740534-65.166185-88.284719 0-45.148269 32.407084-82.684164 75.218122-90.727351 0.201591-0.044002 0.405229-0.079818 0.607844-0.11768 0.289596-0.052189 0.574075-0.11768 0.86367-0.167822-0.00307 0.01228-0.00614 0.024559-0.010233 0.036839 1.034563-0.150426 2.083451-0.254803 3.15997-0.254803 20.341281 0 31.924083 9.892301 31.924083 25.638937 0 1.246387-0.127913 2.459005-0.329505 3.647063-0.096191 0.477884-0.196475 0.953721-0.291642 1.429559-5.102205 25.743314-7.791453 52.354392-7.791453 79.595826 0 225.050616 182.440146 407.488715 407.488715 407.488715s407.488715-182.439122 407.488715-407.488715c0-168.610162-102.415554-313.284169-248.425999-375.252523-7.245008 5.403057-16.228613 8.602935-25.962302 8.602935-24.00574 0-43.465954-19.460214-43.465954-43.465954s19.460214-43.465954 43.465954-43.465954c22.290679 0 40.651862 16.782222 43.163055 38.399565 128.787178 54.745858 226.889497 167.645185 261.315564 305.751612C991.396441 300.672176 1022.819105 337.757816 1022.819105 382.217401zM44.577265 382.217401c0 14.71105 6.511297 27.887141 16.792455 36.851303-0.228197-5.895267-0.345877-11.819187-0.345877-17.770735 0-19.894096 1.304715-39.482223 3.809769-58.69275C52.568263 351.488539 44.577265 365.91204 44.577265 382.217401zM80.095199 335.300858c0.393973 0.234337 0.792039 0.459464 1.202385 0.668219C80.888262 335.759299 80.488149 335.535195 80.095199 335.300858zM78.57559 334.315414c0.39295 0.279363 0.797156 0.542352 1.209548 0.796132C79.372745 334.857766 78.967516 334.5958 78.57559 334.315414zM89.160669 338.256166c-0.229221-0.021489-0.453325-0.053212-0.680499-0.081864C88.707344 338.201931 88.931448 338.2357 89.160669 338.256166zM87.219457 337.98192c-0.273223-0.051165-0.546446-0.104377-0.815575-0.164752C86.674035 337.878566 86.945211 337.931778 87.219457 337.98192zM85.367273 337.550085c-0.297782-0.082888-0.598634-0.158612-0.8913-0.25378C84.768639 337.391473 85.068468 337.468221 85.367273 337.550085zM83.877339 337.077318c-0.756223-0.272199-1.494027-0.578168-2.209318-0.929162C82.384335 336.497103 83.120093 336.807165 83.877339 337.077318zM959.12648 342.608288c2.496867 19.211551 3.806699 38.797631 3.806699 58.68968 0 5.951549-0.116657 11.875468-0.345877 17.771759 10.281157-8.963139 16.793478-22.140253 16.793478-36.852326C979.38078 365.914086 971.389782 351.492632 959.12648 342.608288zM859.703073 401.297968c0 192.042851-155.681712 347.724563-347.724563 347.724563S164.253948 593.340819 164.253948 401.297968s155.681712-347.723539 347.724563-347.723539S859.703073 209.254094 859.703073 401.297968zM511.952928 97.039359c-168.038134 0-304.259632 136.220475-304.259632 304.258609S343.915817 705.556577 511.952928 705.556577c168.037111 0 304.257585-136.221498 304.257585-304.258609S679.990039 97.039359 511.952928 97.039359zM367.986025 493.349477m-43.465954 0a42.476 42.476 0 1 0 86.931908 0 42.476 42.476 0 1 0-86.931908 0ZM645.078924 493.349477m-43.465954 0a42.476 42.476 0 1 0 86.931908 0 42.476 42.476 0 1 0-86.931908 0Z"  horiz-adv-x="1039" />

    
    <glyph glyph-name="zan1" unicode="&#58958;" d="M671.462828 728.752882c-32.806173 0-66.028832-7.509021-96.076172-21.715581-23.285333-11.009751-44.808532-26.093285-63.154365-44.165896-18.34481 18.072611-39.868009 33.157167-63.154365 44.166919-30.046317 14.205537-63.267952 21.714558-96.075149 21.714558-57.969273 0-111.751177-21.913079-151.439084-61.70434-39.673581-39.775912-61.522192-93.670379-61.522192-151.754263 0-141.074016 119.81176-250.671133 301.168224-416.567487l7.324826-6.699586 63.696718-57.263192 12.478196 11.217483 51.102888 45.937239 7.426133 6.792707c181.367721 165.902494 301.18562 275.504728 301.18562 416.582837 0 58.083883-21.848611 111.977327-61.522192 151.754263C783.214005 706.838779 729.432101 728.752882 671.462828 728.752882L671.462828 728.752882z"  horiz-adv-x="1024" />

    
    <glyph glyph-name="tuiguangzhuanqian" unicode="&#58901;" d="M684.8 620.8c147.2 0 256 51.2 275.2 102.4l0 0C960 787.2 832 832 684.8 832 531.2 832 403.2 787.2 403.2 723.2l0 0C422.4 672 531.2 620.8 684.8 620.8zM684.8 204.8c-19.2 0-44.8 0-64 6.4l0-140.8c19.2 0 44.8 0 64 0 153.6 0 275.2 38.4 275.2 89.6L960 275.2C896 230.4 800 204.8 684.8 204.8zM684.8 390.4c-19.2 0-44.8 0-64 6.4l0-140.8c19.2 0 44.8-6.4 64-6.4 147.2 0 256 51.2 275.2 102.4L960 460.8C896 416 800 390.4 684.8 390.4zM684.8 576C563.2 576 467.2 608 403.2 646.4L403.2 576c128-12.8 243.2-57.6 249.6-140.8 6.4 0 19.2 0 25.6 0 147.2 0 256 51.2 275.2 102.4L953.6 646.4C896 608 800 576 684.8 576zM339.2 332.8c147.2 0 256 51.2 275.2 102.4l0 0c0 57.6-121.6 108.8-275.2 108.8C192 537.6 64 492.8 64 435.2l0 0C83.2 377.6 192 332.8 339.2 332.8zM339.2 128c147.2 0 256 51.2 275.2 102.4L614.4 345.6C556.8 300.8 460.8 275.2 339.2 275.2S128 300.8 64 345.6l0-115.2C83.2 179.2 192 128 339.2 128zM339.2 70.4c-115.2 0-217.6 25.6-275.2 70.4l0-115.2C64-25.6 192-64 339.2-64s275.2 38.4 275.2 89.6l0 115.2C556.8 102.4 460.8 70.4 339.2 70.4z"  horiz-adv-x="1024" />

    
    <glyph glyph-name="tianjiaadd143" unicode="&#58897;" d="M279.272727 11.636364l279.272727 0c0 16.058182 2.048 31.650909 5.864727 46.545455L279.272727 58.181818 279.272727 11.636364zM791.272727-128 791.272727-34.909091 884.363636-34.909091 884.363636 58.181818 791.272727 58.181818 791.272727 151.272727 698.181818 151.272727 698.181818 58.181818 605.090909 58.181818 605.090909-34.909091 698.181818-34.909091 698.181818-128ZM744.727273 197.818182 279.272727 197.818182l0-46.545455 342.295273 0C654.382545 180.224 697.530182 197.818182 744.727273 197.818182zM279.272727 616.727273l465.454545 0 0-46.545455-465.454545 0 0 46.545455ZM279.272727 337.454545l465.454545 0 0-46.545455-465.454545 0 0 46.545455ZM884.363636 691.2 681.239273 896 162.210909 896C162.210909 896 139.636364 896 139.636364 873.239273L139.636364-105.192727C139.636364-128 162.210909-128 162.210909-128l459.357091 0c-15.080727 13.312-27.973818 29.044364-38.120727 46.545455L186.181818-81.454545 186.181818 849.454545l465.454545 0 0-139.636364c0-46.545455 46.545455-46.545455 46.545455-46.545455l139.636364 0 0-490.356364c17.501091-10.146909 33.233455-23.04 46.545455-38.120727L884.363636 691.2zM279.272727 756.363636l279.272727 0 0-46.545455-279.272727 0 0 46.545455ZM279.272727 477.090909l465.454545 0 0-46.545455-465.454545 0 0 46.545455Z"  horiz-adv-x="1024" />

    
    <glyph glyph-name="zhibo1" unicode="&#58920;" d="M889.87014 607.345788 723.539904 607.345788c-11.484565 0-20.790512-9.31004-20.790512-20.790512 0-11.482519 9.305947-20.791535 20.790512-20.791535l166.330236 0c11.480472 0 20.788465-9.307993 20.788465-20.795629l0-540.563546c0-11.484565-9.307993-20.788465-20.788465-20.788465L141.390217-16.3839c-11.478426 0-20.786419 9.3039-20.786419 20.788465L120.603799 544.969135c0 11.486612 9.307993 20.795629 20.786419 20.795629l374.24252 0c1.108241 0 2.188852 0.11154 3.251044 0.279363 9.017374-2.350534 18.898419 1.251503 23.791869 9.353019l157.25044 198.719924c5.823636 9.642614 2.365884 21.976524-7.717775 27.542286-10.085706 5.567809-22.978341 2.26253-28.801976-7.381108L515.482311 607.345788l-45.518706 0L284.691971 846.750319c-5.821589 9.642614-18.720364 12.944823-28.801976 7.381108-10.085706-5.569856-13.539364-17.896602-7.717775-27.544333l169.669284-219.241306L141.390217 607.345788c-34.44244 0-62.370513-27.928073-62.370513-62.376653l0-540.563546c0-34.44858 27.928073-62.370513 62.370513-62.370513l748.479923 0c34.44858 0 62.372559 27.921933 62.372559 62.370513L952.242699 544.969135C952.242699 579.417715 924.31872 607.345788 889.87014 607.345788zM456.024128 438.151317c-10.194176 7.486508-23.562649-0.783853-23.562649-17.807574 0-17.283642 0-320.547597 0-332.467067 0-15.458063 12.096503-26.955932 24.048719-17.913998 9.584286 7.237845 201.065342 153.395646 217.407542 165.895331 10.730389 8.214079 10.55131 27.795043 0 36.018332C662.154835 281.04414 469.942115 427.946908 456.024128 438.151317z"  horiz-adv-x="1024" />

    
    <glyph glyph-name="fenxiang31" unicode="&#58921;" d="M778.602987 242.274138c-43.735084 0-82.508155-20.923542-107.114576-53.234435l-283.026028 168.531368c3.213181 12.398378 5.100158 25.314549 5.100158 38.715767 0 3.89061-0.302899 7.686053-0.573051 11.494799l283.161105 170.612773c24.713868-28.935006 61.412698-47.344285 102.452393-47.344285 74.43427 0 134.771473 60.338227 134.771473 134.76738 0 74.42506-60.338227 134.763286-134.771473 134.763286-74.424037 0-134.759193-60.334133-134.759193-134.763286 0-14.767332 2.445702-28.916587 6.837732-42.222637L369.926214 478.01421c-27.26497 43.37795-75.391061 72.290443-130.376373 72.290443-85.053118 0-154.017816-68.959581-154.017816-154.017816s68.963675-154.012699 154.017816-154.012699c45.589314 0 86.426395 19.925818 114.624621 51.3976L648.347364 141.523503c-2.829442-10.872628-4.490268-22.23235-4.490268-34.012651 0-74.43427 60.34232-134.76738 134.76738-134.76738 74.429153 0 134.763286 60.33311 134.763286 134.76738C913.388786 181.940005 853.037257 242.274138 778.602987 242.274138L778.602987 242.274138 778.602987 242.274138zM778.602987 242.274138"  horiz-adv-x="1024" />

    
    <glyph glyph-name="qiandao" unicode="&#58908;" d="M635.571387 680.636001l180.952258-180.952258-71.697949-68.284199L635.571387 540.654876l0-54.627155 10.242272-10.242272-10.242272-10.242272 0-58.040904 37.556361 37.556361 44.384883-44.384883-81.940221-81.940221 0-54.627155L857.493755 486.027721l0 0c10.242272 10.242272 10.242272 20.485567 0 30.727839L638.985136 735.263156c-3.413749 3.413749-3.413749 3.413749-3.413749 3.413749L635.571387 680.636001zM621.914342 694.293045l13.657045-13.657045 0 58.040904c-6.828522 6.828522-20.485567 6.828522-27.314089-3.413749l-47.798633-47.798633 0-54.627155L621.914342 694.293045 621.914342 694.293045zM635.571387 540.654876l-75.112722 75.112722 0-58.040904 6.828522-6.828522-6.828522-6.828522 0-58.040904 37.556361 37.556361 37.556361-37.556361L635.571387 540.654876 635.571387 540.654876zM635.571387 465.542154l0-58.040904-75.112722-75.112722 0 58.040904L635.571387 465.542154 635.571387 465.542154zM635.571387 318.731484l0-54.627155-75.112722-75.112722 0 54.627155L635.571387 318.731484zM560.458665 615.766574l-6.828522 6.828522 6.828522 10.242272 0 54.627155L338.536296 465.542154l0-58.040904 184.367031 187.780781 37.556361-37.556361L560.459688 615.766574 560.458665 615.766574zM560.458665 544.068625l0-58.040904L338.536296 264.104329l0 58.040904L560.458665 544.068625 560.458665 544.068625zM560.458665 390.429433 348.778568 178.749336l-10.242272 10.242272 0-58.040904 37.556361-37.556361-37.556361-3.413749 0-40.97011 81.940221 6.828522c6.828522 0 10.242272 3.413749 13.657045 6.828522l0 0c0 0 0 0 3.413749 0L560.458665 188.992631l0 54.627155L420.476517 107.051387l-40.97011 44.384883L560.458665 332.388529 560.458665 390.429433zM338.536296 465.542154l0-58.040904-44.384883-40.97011 0 58.040904L338.536296 465.542154 338.536296 465.542154zM338.536296 322.146257l0-58.040904-37.556361-37.556361 37.556361-37.556361 0-58.040904-44.384883 40.97011 0 0 0 105.84056L338.536296 322.146257 338.536296 322.146257zM338.536296 89.980593l0-40.97011-37.556361 0 0 0-6.828522-3.413749 0 40.97011 3.413749 0 0 0 0 0L338.536296 89.980593 338.536296 89.980593zM294.151413 171.920814 294.151413 171.920814 294.151413 171.920814zM294.151413 424.572044l0-58.040904-64.869427-68.284199 44.384883-40.97011 20.485567 20.485567 0-105.84056 0 0L215.624942 253.862058l-6.828522-78.526471 0 0-6.828522-95.597265 92.183516 6.828522 0-40.97011-112.668059-10.242272c-10.242272 0-20.485567 10.242272-23.899316 20.485567l0 3.413749 10.242272 119.496581 3.413749 0 6.828522 119.496581c0 6.828522 3.413749 10.242272 6.828522 13.657045l0 3.413749L294.151413 424.572044 294.151413 424.572044zM294.151413 171.920814 294.151413 171.920814 294.151413 171.920814z"  horiz-adv-x="1024" />

    
    <glyph glyph-name="yaoqinghaoyou1" unicode="&#59006;" d="M40.005185-124.790035c-22.402254 0-35.199613 12.803609-35.199613 28.798434 0 252.800973 89.599016 384.000781 281.598156 467.197367l3.198715-3.197465 0 0C228.801861 428.802633 200.003428 502.405574 200.003428 585.60341 200.003428 755.200297 334.401951 896 507.202553 896c169.598137 0 310.39159-134.398523 310.39159-307.199125 0-41.595793-9.598645-86.395301-25.594719-121.594914-12.802359-35.199613-35.199613-63.998047-64.003047-92.80148L724.797662 371.205766l3.198715-3.197465c15.999824-6.40243 28.803434-12.803609 41.600793-19.204789 6.40118-3.197465 12.797359-6.39618 16.001074-9.598645 3.197465-3.198715 12.797359-9.599895 12.797359-19.199789 0-6.40118 0-12.797359-3.198715-22.397254-6.40118-9.598645-12.802359-16.001074-28.798434-19.198539l0 0c-3.202465 0-9.598645 3.197465-16.001074 6.39618-25.599719 12.802359-51.199438 28.798434-86.400301 41.600793-51.200687-28.798434-105.59884-41.600793-159.998242-41.600793-54.398152 0-95.998945 12.802359-147.194633 38.403328C139.204096 246.407137 81.605978 99.207504 84.804693-83.187992c0-32.002148-22.402254-38.398328-44.799508-38.398328l0 0L40.005185-124.790035zM500.801373 828.798238c-134.398523 0-246.398543-111.99502-246.398543-243.194828 0-134.398523 108.797555-243.196078 246.398543-243.196078 63.998047 0 127.996094 25.600969 169.596887 67.196762C695.999229 435.203812 712.000303 460.804781 724.797662 486.4045c12.797359 28.798434 22.402254 60.800582 22.402254 99.19891C747.199916 716.803219 635.198646 828.798238 500.801373 828.798238L500.801373 828.798238 500.801373 828.798238zM500.801373 828.798238M830.396502-127.9875c-15.999824 0-35.199613 16.001074-35.199613 35.199613l0 115.198734-115.198734 0c-16.001074 0-35.199613 16.001074-35.199613 35.199613 0 15.996074 16.001074 35.199613 35.199613 35.199613l118.397449 0 0 115.199984c0 15.994824 16.001074 35.199613 35.199613 35.199613 16.001074 0 35.199613-16.001074 35.199613-35.199613l0-118.402449 115.198734 0c16.001074 0 35.200863-16.001074 35.200863-35.199613 0-15.996074-16.001074-35.199613-35.200863-35.199613l-115.198734 0 0-115.199984C865.597365-115.190141 849.596291-127.9875 830.396502-127.9875L830.396502-127.9875 830.396502-127.9875zM830.396502-127.9875"  horiz-adv-x="1024" />

    
    <glyph glyph-name="huojian" unicode="&#58936;" d="M511.27182222 502.91143111c0 0-36.70016-7.09973333-31.23882667-98.66808889 0 0 5.93464889-98.81372445 15.58300445-138.71786667l-26.14158222 0.0364089c0 0-41.36049778 76.71352889-52.13752889 118.43811555 0 0-57.81731555-27.70716445-82.83022222-118.47452445 0 0-102.41820445 148.03854222 39.86773333 285.48209778 0 0-43.39939555 169.88387555 137.55278222 338.12935112 0 0 0-8.73813333 0-13.1072 0-50.42631111-0.94663111-151.16970667-0.94663111-151.16970667l-0.72817778 0c-44.92856889 0.03640889-81.26464-36.88220445-81.22823111-82.46613333s36.51811555-82.64817778 81.44668445-82.68458667l0.72817778 0 0.07281777-56.83427556zM468.96469333 217.90264889000002l38.44778667-348.17820444-15.69223111 348.14179555-22.75555556 0.03640889zM649.44355555 548.8594488900001c2.03889778 2.18453333 43.79989333 171.59509333-137.55278222 340.31388444-0.29127111-54.90460445-0.91022222-164.24049778-0.91022222-164.24049778 0.21845333 0 0.47331555 0 0.72817778 0 44.92856889-0.03640889 81.37386667-37.06424889 81.44668444-82.68458666s-36.33607111-82.53895111-81.26464-82.46613334c-0.21845333 0-0.47331555 0-0.69176888 0l0.07281777-56.83427555c0 0 36.73656889-7.20896 31.45728-98.74090667 0 0-5.71619555-98.81372445-15.25532444-138.68145778l26.14158222-0.03640888c0 0 38.99392 76.85916445 49.62531555 118.54734222 0 0 63.46069333-27.96202667 88.5100089-113.77777778 0 0 97.86709333 147.92931555-42.3071289 278.63722667zM510.68928 488.52992c-3.13116445 0.18204445-25.95953778-2.54862222-19.80643555-120.33137778 2.47580445-47.22232889 9.93962667-133.65703111 19.9520711-187.65141333l0-1.31072c0.03640889 0.21845333 0.07281778 0.43690667 0.10922667 0.65536 0.03640889-0.21845333 0.07281778-0.43690667 0.10922667-0.65536l0 1.27431111c9.90321778 53.99438222 17.22140445 140.39267555 19.58798222 187.61500445 5.93464889 117.74634667-16.89372445 120.58624-19.98848 120.40419555l0 0zM512.54613333-130.27555555000004l38.59342222 348.06897777-22.75555555 0.03640889-15.83786667-348.10538666zM856.68295111 382.32519111c0 91.53194667-35.71712 177.49333333-98.34040889 241.71861334-7.46382222 7.64586667-21.18997333 12.26979555-28.83584 4.80597333s-6.44437333-18.75057778 1.01944889-26.39644445c55.63278222-57.05272889 90.94940445-129.32437333 90.94940444-218.45333333s-34.84330667-161.32778667-90.94940444-218.45333333c-7.50023111-7.64586667-8.15559111-19.55157333-0.54613333-27.05180445s19.98848-6.37155555 27.48871111 1.23790223c63.16942222 64.29809778 99.17781333 150.62357333 99.17781333 242.59242666zM267.18663111 628.92259555c-64.69859555-64.51655111-102.96433778-153.35424-102.96433778-246.56099555 0-94.77233778 38.30215111-183.5008 104.89400889-248.27221333 7.68227555-7.46382222 19.91566222-7.28177778 27.37948445 0.40049778s7.28177778 19.91566222-0.40049778 27.37948444c-59.16444445 57.52604445-93.17034667 136.27847111-93.17034667 220.49223111 0 82.83022222 32.91363555 162.78414222 90.36686223 220.12814222 7.57304889 7.53664 7.53664 18.89621333 0 26.46926223-11.57802667 11.61443555-26.14158222 0-26.14158223 0zM512 597.90222222c25.12213333 0 45.51111111 20.38897778 45.51111111 45.51111111s-20.38897778 45.51111111-45.51111111 45.51111112c-25.12213333 0-45.51111111-20.38897778-45.51111111-45.51111112s20.38897778-45.51111111 45.51111111-45.51111111z"  horiz-adv-x="1024" />

    
    <glyph glyph-name="fenxiao" unicode="&#58910;" d="M888.576 143.722667l-6.250667 1.258667-1.962667 6.08c-18.666667 57.194667-47.914667 106.24-86.954667 145.898667-33.045333 33.536-73.130667 60.352-119.125333 79.722667-56.490667 23.786667-107.498667 30.314667-132.885333 32.064l-10.154667 0.704 0 10.218667 0 97.770667c0 0.810667-0.085333 1.664-0.170667 2.474667l-1.344 10.346667 10.24 1.792c77.376 13.610667 133.504 80.618667 133.504 159.402667C673.493333 780.714667 601.088 853.333333 512.085333 853.333333s-161.408-72.618667-161.408-161.877333c0-78.186667 55.658667-145.152 132.416-159.168l10.090667-1.856-1.216-10.218667c-0.128-0.96-0.213333-1.877333-0.213333-2.816l0-97.728 0-10.218667-10.176-0.704c-25.493333-1.728-76.714667-8.234667-133.418667-32.106667-45.994667-19.370667-86.08-46.186667-119.125333-79.744-39.125333-39.637333-68.416-88.832-87.04-146.218667l-1.962667-5.952-6.122667-1.344C81.045333 132.010667 42.666667 84.458667 42.666667 30.272c0-63.765333 51.754667-115.626667 115.370667-115.626667 63.573333 0 115.328 51.861333 115.328 115.626667 0 50.901333-32.554667 95.274667-81.045333 110.421333l-11.072 3.456 4.053333 10.837333c32.384 86.144 91.584 148.117333 176 184.362667 49.706667 21.226667 95.594667 27.669333 118.570667 29.610667l11.84 1.002667 0-11.904 0-204.928 0-8.512-8.277333-2.112c-51.413333-12.885333-87.338667-59.029333-87.338667-112.192 0-63.765333 51.754667-115.626667 115.328-115.626667 63.594667 0 115.349333 51.861333 115.349333 115.626667 0 53.162667-35.946667 99.306667-87.338667 112.192L531.2 144.576l0 8.512 0 204.949333 0 11.904 11.84-1.002667c22.250667-1.877333 66.944-8.149333 115.968-28.778667 85.674667-36.053333 145.642667-98.496 178.24-185.6l4.010667-10.730667-10.858667-3.541333c-47.722667-15.530667-79.765333-59.733333-79.765333-110.016 0-63.765333 51.754667-115.626667 115.328-115.626667C929.578667-85.333333 981.333333-33.472 981.333333 30.293333 981.333333 85.248 942.336 132.949333 888.576 143.722667zM233.877333 30.293333c0-41.92-34.026667-76.010667-75.861333-76.010667-41.856 0-75.861333 34.112-75.861333 76.010667 0 41.941333 34.005333 76.032 75.861333 76.032C199.850667 106.325333 233.877333 72.234667 233.877333 30.293333zM390.165333 691.456c0 67.456 54.698667 122.24 121.941333 122.24 67.242667 0 121.941333-54.784 121.941333-122.24 0-67.370667-54.677333-122.218667-121.941333-122.218667C444.885333 569.237333 390.165333 624.085333 390.165333 691.456zM587.349333 30.293333c0-41.92-34.026667-76.010667-75.861333-76.010667s-75.882667 34.112-75.882667 76.010667c0 41.941333 34.048 76.032 75.882667 76.032C553.301333 106.325333 587.349333 72.234667 587.349333 30.293333zM865.962667-45.738667c-41.813333 0-75.861333 34.112-75.861333 76.010667 0 41.941333 34.026667 76.032 75.861333 76.032s75.882667-34.133333 75.882667-76.032C941.824-11.626667 907.797333-45.738667 865.962667-45.738667z"  horiz-adv-x="1024" />

    
    <glyph glyph-name="v" unicode="&#59034;" d="M740.693333 807.253333 283.306667 807.253333 0 472.746667l512-559.786667 512 559.786667L740.693333 807.253333 740.693333 807.253333zM795.306667 431.786667 785.066667 431.786667c-13.653333 0-13.653333-3.413333-20.48-10.24C716.8 356.693333 512 93.866667 512 93.866667c0 0 0 0 0 0l0 0c0 0-201.386667 262.826667-252.586667 327.68-6.826667 6.826667-6.826667 10.24-20.48 10.24L228.693333 431.786667c-6.826667 0-10.24 3.413333-10.24 10.24l0 54.613333c0 6.826667 3.413333 10.24 10.24 10.24l102.4 0c6.826667 0 13.653333 0 20.48-10.24l163.84-221.866667 0 0c0 0 0 0 0 0l160.426667 221.866667c6.826667 10.24 13.653333 10.24 20.48 10.24l102.4 0c6.826667 0 10.24-3.413333 10.24-10.24l0-54.613333C805.546667 438.613333 802.133333 431.786667 795.306667 431.786667L795.306667 431.786667zM795.306667 431.786667"  horiz-adv-x="1024" />

    
    <glyph glyph-name="jubao" unicode="&#58944;" d="M959.39977884 572.73129612c-24.44957499 57.80367921-59.44548951 109.71198866-104.01780957 154.28306596-44.57107729 44.57231884-96.48062949 79.56823457-154.28306594 104.01780956-59.85656407 25.3164318-123.42769527 38.15410407-188.94739017 38.15410406s-129.08958333-12.83643073-188.94739016-38.15410406c-57.80367921-24.44957499-109.71198866-59.44548951-154.28306594-104.01780956-44.57231884-44.57107729-79.56823457-96.48062949-104.01780956-154.28306596-25.3164318-59.85656407-38.15410407-123.42769527-38.15410409-188.94739016s12.83643073-129.08958333 38.15410409-188.94739015c24.44957499-57.80367921 59.44548951-109.7132302 104.01780956-154.28306596 44.57107729-44.57231884 96.48062949-79.56823457 154.28306594-104.01780956 59.85656407-25.31767333 123.42769527-38.15410407 188.94739016-38.15410407s129.08958333 12.83643073 188.94739017 38.15410407c57.80367921 24.44957499 109.7132302 59.44548951 154.28306594 104.01780956 44.57231884 44.57107729 79.56823457 96.48062949 104.01780957 154.28306596 25.31767333 59.85656407 38.15410407 123.42769527 38.15410407 188.94739015S984.71745217 512.87349051 959.39977884 572.73129612zM512.15151316-59.393361700000014c-244.36907607 0-443.17726887 198.8081928-443.17726886 443.17726888s198.8081928 443.17726887 443.17726886 443.17726886 443.17726887-198.8081928 443.17726887-443.17726886S756.51934769-59.393361700000014 512.15151316-59.393361700000014zM555.09568231 628.73171468c0.05216059 0.87679158 0.08817627 1.757309 0.08817626 2.64776241 0 24.00621181-19.46080355 43.46701536-43.46701536 43.46701536s-43.46701536-19.46080355-43.46701535-43.46701536c0-0.57128095 0.0211123-1.13759331 0.04346736-1.70390688l-0.13412671 0 0.961242-329.24525454 0.10556272 0c0.32910723-23.72181348 19.65081668-42.8535098 43.45087044-42.8535098 24.00621181 0 43.46701536 19.46080355 43.46701536 43.46701536 0 0.94137124-0.04098306 1.87404925-0.09935258 2.80051712L555.09568231 628.73171468zM512.67684367 127.94698988000005m-43.46701535 0a42.47703703 42.47703703 0 1 1 86.93403071 0 42.47703703 42.47703703 0 1 1-86.93403071 0Z"  horiz-adv-x="1024" />

    
    <glyph glyph-name="weibiaoti2fuzhi14" unicode="&#58923;" d="M742.4 563.2 275.2 563.2C262.4 563.2 249.6 576 249.6 595.2s12.8 25.6 25.6 25.6l467.2 0c12.8 0 25.6-12.8 25.6-25.6S761.6 563.2 742.4 563.2zM787.2 6.4 236.8 6.4c-32 0-64 19.2-64 57.6L172.8 275.2c0 19.2 12.8 32 25.6 32 19.2 0 32-12.8 32-32L230.4 64l556.8 0L787.2 275.2c0 19.2 12.8 32 32 32 19.2 0 32-12.8 32-32L851.2 64C851.2 32 825.6 6.4 787.2 6.4zM864 403.2c-12.8-6.4-32-12.8-51.2-12.8-38.4 0-102.4 25.6-121.6 57.6l0 0 0 0c0 0 0 6.4-6.4 6.4-6.4 6.4-12.8 12.8-19.2 12.8-6.4 0-19.2-6.4-19.2-12.8l0 0C633.6 454.4 633.6 448 633.6 448l0 0 0 0C614.4 416 550.4 390.4 512 390.4 473.6 390.4 409.6 416 390.4 448l0 0 0 0c0 0-6.4 6.4-6.4 6.4l0 0C377.6 467.2 371.2 467.2 364.8 467.2c-6.4 0-19.2-6.4-19.2-6.4l0 0C339.2 454.4 332.8 448 332.8 448l0 0 0 0C313.6 416 256 396.8 217.6 396.8c-19.2 0-38.4 6.4-51.2 6.4l0 0 0 0C134.4 422.4 121.6 448 121.6 486.4c0 12.8 0 19.2 6.4 32 0 0 0 0 0 0l0 0 76.8 166.4C211.2 697.6 211.2 704 230.4 704l556.8 0 0 0c6.4 0 19.2 0 25.6-19.2L896 518.4l0 0c0 0 0 0 0 0 6.4-12.8 6.4-19.2 6.4-32C902.4 441.6 896 422.4 864 403.2zM953.6 524.8 953.6 524.8 953.6 524.8C953.6 524.8 953.6 524.8 953.6 524.8L953.6 524.8C953.6 524.8 953.6 524.8 953.6 524.8l-83.2 185.6 0 0c-12.8 25.6-38.4 51.2-76.8 51.2L230.4 761.6c-38.4 0-64-19.2-76.8-51.2l0 0L70.4 524.8c0 0 0 0 0 0l0 0 0 0C64 512 64 492.8 64 480 64 428.8 96 384 140.8 358.4l6.4 0c19.2-6.4 44.8-12.8 64-12.8 44.8 0 115.2 25.6 140.8 57.6l6.4 6.4 6.4-6.4C422.4 358.4 467.2 345.6 512 345.6c44.8 0 96 12.8 140.8 57.6l6.4 6.4 6.4-6.4c25.6-32 102.4-57.6 147.2-57.6 25.6 0 51.2 6.4 70.4 12.8C928 384 960 428.8 960 480 960 492.8 960 512 953.6 524.8z"  horiz-adv-x="1024" />

    
    <glyph glyph-name="sanjiao" unicode="&#58971;" d="M750.331 438.797l-238.576-238.087-238.087 238.576z"  horiz-adv-x="1024" />

    
    <glyph glyph-name="choujiang" unicode="&#58953;" d="M535.07644 505.139285l-23.911453 116.403452-22.107375-116.131254c-24.092577-4.331629-47.192552-15.790543-65.871872-34.379812-48.546378-48.637452-48.546378-127.322064 0-175.867419 48.547402-48.546378 127.322064-48.546378 175.867419 0 48.637452 48.637452 48.637452 127.322064 0 175.867419-18.135947 18.13697-40.514496 29.596908-63.975697 34.109661L535.07644 505.139285zM836.273557 58.039021 836.273557 58.039021 631.513261 262.799317c-21.93853-21.93853-48.369347-36.564558-76.26246-44.085813l75.007895-279.87359c-38.33896-10.238117-78.352039-15.462064-119.094731-15.462064s-80.650371 5.3273-118.990355 15.462064l75.007895 279.87359c-27.99749 7.416879-54.322907 22.14626-76.26246 44.085813L186.160794 58.039021c-59.130371 59.130371-98.829297 130.585368-118.884955 206.117192l279.663814 74.905565c-7.728985 28.833526-7.728985 59.234747 0 88.068273L67.274816 502.033569c20.056681 75.531824 59.652254 146.988868 118.782625 206.117192l204.760296-204.760296c21.937507 21.93853 48.263947 36.564558 76.26246 44.085813L392.176679 827.350892c38.33896 10.132717 78.245616 15.460017 118.990355 15.460017 40.742692 0 80.650371-5.3273 119.094731-15.460017l-75.009941-279.874614c27.893113-7.416879 54.324954-22.14626 76.263484-44.085813l204.760296 204.762343c57.982228-57.982228 98.618497-128.811989 119.199108-206.014862l-279.977967-75.007895c7.731032-28.833526 7.731032-59.234747 0-88.068273l279.874614-75.009941c-20.580611-77.202873-61.115573-148.033657-119.094731-206.012815L836.273557 58.039021zM872.643688 744.522938C776.036999 841.026274 647.740753 894.185689 511.164987 894.185689c-136.476506 0-264.872012-53.159415-361.376371-149.661727C53.182951 648.018579 0.024559 519.620004 0.024559 383.146568c0-136.576789 53.159415-264.872012 149.764057-361.478701 96.504359-96.605666 224.902934-149.661727 361.376371-149.661727 136.576789 0 264.872012 53.159415 361.478701 149.661727 96.604642 96.504359 149.661727 224.902934 149.661727 361.478701C1022.305415 519.623074 969.146 648.018579 872.643688 744.522938"  horiz-adv-x="1024" />

    
    <glyph glyph-name="qiandai" unicode="&#58937;" d="M508.608 828.224c1.408 0 3.136 0.704 5.248 2.112 4.224 2.816 9.856 7.744 16.832 14.784 8.448 7.744 16.832 13.376 25.28 16.832s19.648 2.432 33.728-3.136c7.04-2.112 12.672-5.12 16.832-8.96 4.224-3.84 8.256-7.552 12.096-11.072s8.064-6.528 12.672-8.96c4.544-2.432 10.368-3.712 17.408-3.712 7.04 0 12.992 1.024 17.92 3.136s9.664 4.032 14.208 5.824c4.544 1.728 9.152 3.008 13.696 3.712 4.544 0.704 9.984 0 16.32-2.112 7.04-2.816 11.776-6.848 14.208-12.096s3.136-10.688 2.112-16.32-3.52-11.264-7.36-16.832c-3.84-5.632-8.576-10.176-14.208-13.696-13.376-8.448-23.552-17.024-30.592-25.792s-14.08-18.112-21.056-27.904c-3.52-4.928-7.36-10.56-11.584-16.832-4.16-6.464-8-12.8-11.52-19.136C626.624 680.384 622.08 672.96 617.152 665.984L398.976 665.984C394.048 674.368 389.12 682.432 384.192 690.176c-4.224 7.04-8.768 14.08-13.696 21.056C365.632 718.272 361.408 724.608 357.888 730.24c-7.04 10.56-14.912 19.84-23.744 27.904C325.376 766.272 316.8 773.44 308.352 779.776 299.2 786.112 292.864 794.688 289.344 805.568 285.888 816.512 289.024 825.792 298.88 833.536 303.808 837.056 309.376 838.464 315.712 837.76c6.336-0.704 12.992-2.112 20.032-4.224 7.04-2.112 13.888-4.224 20.544-6.336s12.8-2.432 18.432-1.024C384.576 828.288 391.936 832 396.864 837.248 401.792 842.496 410.24 848.96 422.144 856.704c9.152 5.632 19.328 7.552 30.592 5.824C464 860.8 472.384 857.088 478.016 851.456c2.816-3.52 5.824-6.528 8.96-8.96C490.112 840 493.504 837.76 496.96 835.648 500.48 832.832 504.384 830.336 508.608 828.224L508.608 828.224zM627.648 617.472c8.448-11.264 18.944-23.552 31.616-36.864 10.56-11.968 23.552-25.472 38.976-40.576 15.488-15.104 33.344-31.104 53.76-47.936 16.832-14.784 34.24-32.128 52.16-52.16s33.536-43.392 46.912-70.08c13.376-26.688 22.656-57.408 27.904-92.224 5.248-34.752 4.416-73.6-2.624-116.48-6.336-35.136-18.816-68.352-37.44-99.584-18.624-31.296-43.392-58.496-74.304-81.664-30.912-23.168-67.648-41.6-110.144-55.36C612.032-89.152 563.712-96 509.632-96c-55.488 0-104.704 7.936-147.52 23.744-42.88 15.808-79.232 36.352-109.056 61.632-29.888 25.28-53.568 53.568-71.168 84.864-17.536 31.296-29.184 62.336-34.752 93.248C140.8 201.92 139.904 234.944 144.448 266.56c4.544 31.616 12.8 61.312 24.768 89.024 11.968 27.776 26.88 53.248 44.8 76.416 17.92 23.168 37.44 43.904 58.496 62.208 18.24 16.128 34.752 31.424 49.536 45.824 14.784 14.4 27.072 27.584 36.864 39.552C370.88 592.896 381.44 605.504 390.528 617.472L627.648 617.472 627.648 617.472zM515.968 293.952 487.488 322.368 465.344 344.512C458.304 351.552 453.376 356.8 450.56 360.32 444.992 365.248 437.632 369.28 428.48 372.48 419.328 375.616 411.648 373.696 405.312 366.656 399.68 358.912 398.272 351.36 401.088 344 403.904 336.64 407.04 330.816 410.56 326.592l15.808-14.784C434.112 303.36 442.496 294.272 451.648 284.416c10.56-11.264 22.144-23.168 34.752-35.84l-1.024-22.144-71.68 0c-6.336 0-11.776-2.432-16.32-7.36s-6.848-10.176-6.848-15.808 2.112-10.56 6.336-14.784 9.856-6.336 16.832-6.336l71.68 0 0-36.864-71.68 0c-6.336 0-11.776-1.92-16.32-5.824-4.544-3.84-6.848-8.96-6.848-15.296-0.704-5.632 1.216-10.368 5.824-14.208 4.544-3.84 10.368-5.824 17.408-5.824l71.68 0 0-21.056c0.704-9.856 3.84-16.704 9.472-20.544 5.632-3.84 12.672-5.824 21.056-5.824 8.448-0.704 15.296 1.92 20.544 7.872s7.872 12.096 7.872 18.432l0 21.056 73.792 0c7.04 0 12.8 1.6 17.408 4.736 4.544 3.136 6.528 8.256 5.824 15.296 0 14.784-9.856 22.144-29.504 22.144L544.384 146.24l1.024 35.84 68.48 1.024c9.856-0.704 16.832 1.216 21.056 5.824 4.224 4.544 6.336 9.984 6.336 16.32 0 5.632-2.304 10.688-6.848 15.296-4.544 4.544-11.776 6.848-21.632 6.848l-68.48 0 0 20.032c11.968 11.264 22.848 22.144 32.64 32.64C585.536 288.64 593.92 297.28 602.368 306.048 610.816 314.816 617.152 320.96 621.376 324.48c16.128 14.08 19.648 26.368 10.56 36.864C626.944 367.68 620.672 370.88 612.928 370.88S598.144 368.064 591.872 362.432C588.352 359.616 582.336 354.56 573.952 347.136 565.504 339.776 557.056 332.224 548.608 324.48 538.816 315.392 527.872 305.152 515.968 293.952L515.968 293.952z"  horiz-adv-x="1024" />

    
    <glyph glyph-name="bhjaward2" unicode="&#58919;" d="M864 640 864 672 928 672C936.836555 672 944 679.163445 944 688 944 696.836555 936.836555 704 928 704L866.215006 704 924.706222 790.767669C929.64557 798.094849 927.70985 808.038834 920.382669 812.978182 913.05549 817.917529 903.111504 815.981809 898.172157 808.654628L833.43567 712.622534 834.51427 712.613862C837.357354 717.055712 842.33484 720 848 720 851.315808 720 854.396037 718.991363 856.950605 717.264171L797.409109 808.72902C792.588205 816.134666 782.676627 818.230014 775.270981 813.40911 767.865334 808.588205 765.769986 798.676627 770.590891 791.27098L827.402275 704 827.402275 704 768 704C759.163445 704 752 696.836555 752 688 752 679.163445 759.163445 672 768 672L832 672 832 640 768 640C759.163445 640 752 632.836555 752 624 752 615.163445 759.163445 608 768 608L832 608 832 560C832 551.163445 839.163445 544 848 544 856.836555 544 864 551.163445 864 560L864 608 928 608C936.836555 608 944 615.163445 944 624 944 632.836555 936.836555 640 928 640L864 640ZM659.212698 807.246846C612.2832 823.567905 562.70552 832 512 832 264.576432 832 64 631.423568 64 384 64 136.576432 264.576432-64 512-64 759.423568-64 960 136.576432 960 384 960 392.836555 952.836555 400 944 400 935.163445 400 928 392.836555 928 384 928 154.249544 741.750456-32 512-32 282.249544-32 96 154.249544 96 384 96 613.750456 282.249544 800 512 800 559.114907 800 605.140333 792.172067 648.701326 777.0225 657.04755 774.119865 666.16655 778.532765 669.069186 786.878987 671.971821 795.22521 667.55892 804.344211 659.212698 807.246846ZM522.811594 372.205534 714.811594 548.205534C721.325498 554.176613 721.765544 564.29769 715.794466 570.811594 709.823387 577.325498 699.70231 577.765544 693.188406 571.794466L501.188406 395.794466C494.674502 389.823387 494.234456 379.70231 500.205534 373.188406 506.176613 366.674502 516.29769 366.234456 522.811594 372.205534ZM523.155934 511.512922C452.732493 517.674174 390.648331 465.579378 384.487078 395.155934 378.325826 324.732493 430.420622 262.648331 500.844066 256.487078 571.267507 250.325826 633.351669 302.420622 639.512922 372.844066 640.283078 381.646995 633.771229 389.407515 624.968298 390.177672 616.165368 390.947829 608.404848 384.435979 607.634691 375.633048 603.013752 322.815467 556.45063 283.74437 503.633048 288.365309 450.815467 292.986248 411.74437 339.54937 416.365309 392.366952 420.986248 445.184533 467.54937 484.25563 520.366952 479.634691 529.169882 478.864534 536.930402 485.376384 537.700558 494.179314 538.470715 502.982245 531.958866 510.742765 523.155934 511.512922Z"  horiz-adv-x="1024" />

    
    <glyph glyph-name="shandian" unicode="&#58974;" d="M751.484861 837.28576 330.984808 382.777149 500.61316 334.054471 370.51308-69.28576 806.193881 375.534188 633.869117 426.036395 751.484861 837.28576Z"  horiz-adv-x="1024" />

    
    <glyph glyph-name="shouye" unicode="&#58979;" d="M809.102167-127.997953 605.175657-127.997953 605.175657 178.785665c0 17.388955-15.75679 31.548372-35.136066 31.548372L453.953246 210.334038c-19.35574 0-35.11253-14.159417-35.11253-31.548372l0-306.784642L214.914206-127.998977c-55.945917 0-101.474629 43.121908-101.474629 96.123787L113.439577 341.117033 41.521976 341.117033c-16.852746 0-31.822617 9.761269-38.115919 24.862123-6.126504 14.647532-2.908222 30.845365 8.414605 42.275638L482.295616 882.994867c15.44673 15.565433 43.955898 15.554176 59.402628 0.01228l470.47393-474.752352c11.322827-11.405714 14.541108-27.603547 8.438141-42.251079-6.293302-15.12439-21.263173-24.885659-38.139455-24.885659l-71.893041 0 0-372.992222C910.577819-84.877069 865.048084-127.997953 809.102167-127.997953zM510.041402 855.511046 39.567471 380.76995l112.916158-0.607841 0-412.037299c0-31.465485 28.008774-57.077688 62.429553-57.077688l164.881434 0L379.794616 178.785665c0 38.926373 33.253192 70.593449 74.157606 70.593449l116.087368 0c40.904414 0 74.181142-31.668099 74.181142-70.593449l0-267.738543 164.881434 0c34.420779 0 62.429553 25.613226 62.429553 57.077688L871.53172 380.162109l112.892622 0.607841L513.951435 855.511046"  horiz-adv-x="1024" />

    
    <glyph glyph-name="top" unicode="&#58918;" d="M534.6 492.5l294.2-294.2c12.5-12.5 32.8-12.5 45.3 0l0 0c12.5 12.5 12.5 32.8 0 45.3L557.3 560.4c-25 25-65.5 25-90.5 0L150 243.6c-12.5-12.5-12.5-32.8 0-45.3l0 0c12.5-12.5 32.8-12.5 45.3 0l294.1 294.2C501.9 505 522.1 505 534.6 492.5z"  horiz-adv-x="1024" />

    
    <glyph glyph-name="fenqifenqishangcheng1" unicode="&#59073;" d="M1021.525333 487.509333l-42.353778 169.870222C969.813333 694.897778 936.760889 725.333333 905.358222 725.333333L573.752889 725.333333l-123.534222 0L118.641778 725.333333C87.239111 725.333333 54.186667 694.897778 44.828444 657.379556l-42.353778-169.870222c-1.934222-7.793778-2.446222-15.189333-2.161778-22.158222C0.284444 464.298667 0 463.303111 0 462.222222c0-66.759111 54.129778-120.888889 120.888889-120.888889 1.223111 0 2.360889 0.312889 3.555556 0.369778C125.639111 341.617778 126.776889 341.333333 128 341.333333c43.946667 0 83.171556 24.917333 102.343111 65.052444C235.064889 416.284444 245.048889 422.570667 256 422.570667c10.638222 0 20.252444-6.030222 25.144889-15.416889 4.266667-9.130667 9.841778-17.464889 16.270222-25.088 1.024-1.223111 1.962667-2.503111 3.015111-3.669333 2.417778-2.645333 4.977778-5.091556 7.623111-7.509333 2.56-2.332444 5.233778-4.494222 7.992889-6.599111 2.076444-1.564444 4.039111-3.185778 6.229333-4.608 5.205333-3.413333 10.638222-6.371556 16.355556-8.874667 1.365333-0.597333 2.816-1.024 4.238222-1.564444 4.920889-1.934222 9.984-3.498667 15.189333-4.721778 1.820444-0.426667 3.640889-0.853333 5.489778-1.194667C370.232889 342.186667 377.031111 341.333333 384 341.333333c6.968889 0 13.738667 0.853333 20.423111 2.048 1.877333 0.341333 3.726222 0.768 5.575111 1.194667 5.148444 1.194667 10.126222 2.759111 14.990222 4.664889 1.479111 0.568889 2.986667 1.024 4.437333 1.649778 5.660444 2.474667 11.064889 5.432889 16.213333 8.789333 2.275556 1.479111 4.323556 3.185778 6.485333 4.807111 2.645333 2.019556 5.233778 4.096 7.708444 6.343111 2.730667 2.446222 5.319111 4.977778 7.793778 7.68 0.995556 1.080889 1.877333 2.275556 2.816 3.413333 6.485333 7.68 12.117333 16.042667 16.412444 25.258667 4.864 9.386667 14.506667 15.416889 25.144889 15.416889s20.280889-6.030222 25.144889-15.416889c4.295111-9.216 9.898667-17.578667 16.412444-25.258667 0.938667-1.137778 1.820444-2.332444 2.816-3.413333 2.474667-2.702222 5.091556-5.205333 7.793778-7.68 2.474667-2.247111 5.063111-4.323556 7.708444-6.343111 2.161778-1.621333 4.209778-3.328 6.485333-4.807111 5.148444-3.384889 10.552889-6.314667 16.213333-8.789333 1.450667-0.625778 2.958222-1.080889 4.437333-1.649778 4.864-1.905778 9.870222-3.441778 14.990222-4.664889 1.848889-0.426667 3.697778-0.853333 5.575111-1.194667C626.261333 342.186667 633.031111 341.333333 640 341.333333s13.738667 0.853333 20.423111 2.048c1.877333 0.341333 3.726222 0.768 5.575111 1.194667 5.148444 1.194667 10.126222 2.759111 14.990222 4.664889 1.479111 0.568889 2.986667 1.024 4.437333 1.649778 5.660444 2.474667 11.064889 5.432889 16.213333 8.789333 2.275556 1.479111 4.323556 3.185778 6.485333 4.807111 2.645333 2.019556 5.233778 4.096 7.708444 6.343111 2.730667 2.446222 5.319111 4.977778 7.793778 7.68 0.995556 1.080889 1.877333 2.275556 2.816 3.413333 6.485333 7.68 12.117333 16.042667 16.412444 25.258667 4.864 9.386667 14.506667 15.416889 25.144889 15.416889 10.979556 0 20.935111-6.314667 25.656889-16.184889 19.171556-40.106667 58.396444-65.052444 102.343111-65.052444 1.052444 0 2.048 0.256 3.100444 0.312889 1.052444-0.028444 2.048-0.312889 3.128889-0.312889 61.980444 0 112.384 47.189333 118.727111 107.491556C1024.625778 459.804444 1025.109333 473.116444 1021.525333 487.509333zM910.222222 810.666667c0-15.701333-12.743111-28.444444-28.444444-28.444444L142.222222 782.222222C126.520889 782.222222 113.777778 794.965333 113.777778 810.666667l0 0c0 15.701333 12.743111 28.444444 28.444444 28.444444l739.555556 0C897.479111 839.111111 910.222222 826.368 910.222222 810.666667L910.222222 810.666667zM824.888889-71.111111 199.111111-71.111111c-47.047111 0-85.333333 38.286222-85.333333 85.333333l0 256c0 15.729778 12.743111 28.444444 28.444444 28.444444s28.444444-12.714667 28.444444-28.444444l0-256c0-15.701333 12.771556-28.444444 28.444444-28.444444l625.777778 0c15.672889 0 28.444444 12.743111 28.444444 28.444444l0 256c0 15.729778 12.743111 28.444444 28.444444 28.444444s28.444444-12.714667 28.444444-28.444444l0-256C910.222222-32.824889 871.936-71.111111 824.888889-71.111111z"  horiz-adv-x="1025" />

    
    <glyph glyph-name="dianhua" unicode="&#58884;" d="M666.48064 218.05568s-43.30496 29.1328-90.9824-19.54816c0 0-39.26016-43.61216-82.57536 12.00128 0 0-119.69536 131.42016-156.54912 278.33344 0 0-8.94976 25.89696 24.82176 31.27296 0 0 90.97216 19.5328 101.90848 60.57472L408.81152 859.24864S392.41728 910.06976 328.8064 880.77312c0 0-108.66688-27.76064-156.28288-74.43456l-8.82688-20.03968-9.71776-78.46912s5.09952-531.06176 464.86528-828.8768c0 0 157.42976-48.41984 243.83488 110.32064l10.98752 41.04192-207.18592 187.74016z"  horiz-adv-x="1024" />

    
    <glyph glyph-name="duihuanqingkuang" unicode="&#59144;" d="M907.832889 440.888889 454.599111 440.888889 225.678222 440.888889 454.599111 668.444444 454.599111 554.666667 871.708444 554.666667C807.253333 688.696889 670.947556 782.222222 511.829333 782.222222 310.385778 782.222222 143.701333 633.571556 115.825778 440.888889L0.170667 440.888889C28.615111 696.888889 246.727111 896 511.829333 896 776.874667 896 994.986667 696.888889 1023.488 440.888889L912.384 440.888889 907.832889 440.888889ZM115.825778 327.111111 511.829333 327.111111 740.693333 327.111111 511.829333 99.555556 511.829333 213.333333 151.950222 213.333333C216.348444 79.303111 352.654222-14.222222 511.829333-14.222222 713.216-14.222222 879.900444 134.485333 907.832889 327.111111L1023.488 327.111111C994.986667 71.168 776.874667-128 511.829333-128 246.727111-128 28.615111 71.168 0.170667 327.111111L53.987556 327.111111 115.825778 327.111111Z"  horiz-adv-x="1024" />

    
    <glyph glyph-name="jiangpinpeizhi" unicode="&#59153;" d="M540.573023 395.000614 540.573023 613.58424C532.572577 614.841453 524.915006 627.413583 516.514538 627.413583L511.71427 627.413583C501.88515 627.413583 492.798929 614.327139 483.426977 612.898488L483.426977 395.000614 26.258608 395.000614 26.258608 569.296054C26.258608 601.354986 51.860037 627.413583 83.404654 627.413583L188.153357 627.413583C153.579999 644.385959 134.77895 667.301524 125.121268 690.04565 97.176851 755.820749 139.464925 834.910877 193.410793 875.941738 217.240694 894.11418 248.328143 898.800156 285.587365 889.999665 364.620347 871.255762 463.654445 790.851275 514.114404 727.933478 564.574362 790.851275 663.60846 871.255762 742.641442 889.999665 779.900664 898.74301 810.988113 894.057034 834.818014 875.941738 888.763882 834.910877 931.051956 755.820749 903.107539 690.04565 893.449858 667.244377 874.47737 644.385959 839.78972 627.413583L940.595346 627.413583C972.139963 627.413583 997.741392 601.354986 997.741392 569.296054L997.741392 395.000614 540.573023 395.000614ZM272.672359 833.42508C264.786205 835.253753 257.700095 836.225236 251.299738 836.225236 241.527764 836.225236 233.584463 833.939394 227.641275 829.424856 191.524973 801.937608 162.09476 749.59183 177.581338 713.075506 186.267537 692.674368 233.698756 630.7852 484.055583 671.587477 453.539595 720.3902 349.419499 815.195491 272.672359 833.42508ZM850.647469 713.075506C866.134048 749.59183 836.76098 801.937608 800.587533 829.424856 790.872705 836.796696 775.614711 838.111055 755.613595 833.42508 678.409286 815.138345 573.71773 719.53301 543.773202 670.901724 794.187176 630.042301 841.904124 692.560076 850.647469 713.075506ZM483.426977-127.885708 140.5507-127.885708C109.006083-127.885708 83.404654-101.884257 83.404654-69.825325L83.404654 336.883085 483.426977 336.883085 483.426977-127.885708ZM940.595346-69.825325C940.595346-101.884257 914.993917-127.885708 883.4493-127.885708L540.573023-127.885708 540.573023 336.883085 940.595346 336.883085 940.595346-69.825325Z"  horiz-adv-x="1024" />

    
    </font>
</defs>
</svg>
