<?xml version="1.0" standalone="no"?>
<!DOCTYPE svg PUBLIC "-//W3C//DTD SVG 1.1//EN" "http://www.w3.org/Graphics/SVG/1.1/DTD/svg11.dtd" >
<!--
2013-9-30: Created.
-->
<svg>
<metadata>
Created by iconfont
</metadata>
<defs>

<font id="iconfont" horiz-adv-x="1024" >
  <font-face
    font-family="iconfont"
    font-weight="500"
    font-stretch="normal"
    units-per-em="1024"
    ascent="896"
    descent="-128"
  />
    <missing-glyph />
    
    <glyph glyph-name="x" unicode="x" horiz-adv-x="1001"
d="M281 543q-27 -1 -53 -1h-83q-18 0 -36.5 -6t-32.5 -18.5t-23 -32t-9 -45.5v-76h912v41q0 16 -0.5 30t-0.5 18q0 13 -5 29t-17 29.5t-31.5 22.5t-49.5 9h-133v-97h-438v97zM955 310v-52q0 -23 0.5 -52t0.5 -58t-10.5 -47.5t-26 -30t-33 -16t-31.5 -4.5q-14 -1 -29.5 -0.5
t-29.5 0.5h-32l-45 128h-439l-44 -128h-29h-34q-20 0 -45 1q-25 0 -41 9.5t-25.5 23t-13.5 29.5t-4 30v167h911zM163 247q-12 0 -21 -8.5t-9 -21.5t9 -21.5t21 -8.5q13 0 22 8.5t9 21.5t-9 21.5t-22 8.5zM316 123q-8 -26 -14 -48q-5 -19 -10.5 -37t-7.5 -25t-3 -15t1 -14.5
t9.5 -10.5t21.5 -4h37h67h81h80h64h36q23 0 34 12t2 38q-5 13 -9.5 30.5t-9.5 34.5q-5 19 -11 39h-368zM336 498v228q0 11 2.5 23t10 21.5t20.5 15.5t34 6h188q31 0 51.5 -14.5t20.5 -52.5v-227h-327z" />
    

    
    <glyph glyph-name="exit" unicode="&#59146;" d="M768 172l0 128-320 0 0 128 320 0 0 128 192-192zM704 236l0-256-320 0 0-192-384 192 0 832 704 0 0-320-64 0 0 256-512 0 256-128 0-576 256 0 0 192z"  horiz-adv-x="1024" />

    
    <glyph glyph-name="lock" unicode="&#58890;" d="M768 458.667h-42.667v85.333c0 117.76-95.573 213.333-213.333 213.333s-213.333-95.573-213.333-213.333v-85.333h-42.667c-46.933 0-85.333-38.4-85.333-85.333v-426.667c0-46.933 38.4-85.333 85.333-85.333h512c46.933 0 85.333 38.4 85.333 85.333v426.667c0 46.933-38.4 85.333-85.333 85.333zM512 74.667c-46.933 0-85.333 38.4-85.333 85.333s38.4 85.333 85.333 85.333 85.333-38.4 85.333-85.333-38.4-85.333-85.333-85.333zM644.267 458.667h-264.533v85.333c0 72.96 59.307 132.267 132.267 132.267s132.267-59.307 132.267-132.267v-85.333z"  horiz-adv-x="1024" />

    
    <glyph glyph-name="tel" unicode="&#58892;" d="M809.796-125.566c-324.741 0-807.367 526.467-807.367 803.007 0 107.629 145.177 216.122 211.732 216.122 74.514 0 211.753-240.258 211.753-283.752 0-32.324-13.663-55.285-25.712-75.536-9.859-16.563-18.364-30.853-18.364-48.635 3.887-38.826 178.090-217.087 219.275-224.099 14.289 0.072 30.379 8.65 49.017 18.578 23.434 12.513 50.009 26.684 82.475 26.684 56.918 0 288.971-162.131 288.971-216.212 0-116.396-116.445-216.161-211.774-216.161zM213.922 845.048c-39.503-0.014-162.961-89.088-162.961-167.606 0-118.992 106.717-304.62 271.894-472.89 170.474-173.674 357.057-281.587 486.942-281.587 70.602 0 161.514 79.764 163.221 165.212-17.55 36.802-204.964 169.786-240.417 170.094-20.345 0-39.43-10.187-59.643-20.972-22.334-11.92-45.429-24.22-72.764-24.22-59.866 0-266.893 211.423-266.893 272.56 0 31.126 13.377 53.613 25.189 73.448 10.131 17.038 18.889 31.741 18.889 50.725-1.042 10.59-25.036 63.708-69.065 130.093-49.277 74.323-84.054 103.933-94.395 105.141z"  horiz-adv-x="1024" />

    
    <glyph glyph-name="idea" unicode="&#59087;" d="M631.466667 25.600000000000023c0-12.561067-10.194489-22.755556-22.755556-22.755556l-182.044444 0c-12.561067 0-22.755556 10.194489-22.755556 22.755556s10.194489 22.755556 22.755556 22.755556l182.044444 0C621.27217801 48.35555599999998 631.466667 38.161067 631.466667 25.600000000000023zM608.711111-8.53333299999997l-182.044444 0c-14.973156 0-26.567111-14.461156-21.583644-30.173867 3.003733-9.477689 12.5952-15.337244 22.539378-15.337244l0.34133301 0c13.141333 0 25.156267-7.429689 31.03857799-19.182933l0.238933-0.477867C467.171556-89.54311099999995 483.362133-99.55555600000002 501.077333-99.55555600000002l33.223111 0c17.7152 0 33.90577799 10.012444 41.824711 25.850311l0.238933 0.47786701c5.882311 11.753244 17.897244 19.182933 31.03857801 19.18293299l0.34133299 0c9.94417801 0 19.535644 5.859556 22.539378 15.337244C635.27822201-22.994489000000044 623.684267-8.53333299999997 608.711111-8.53333299999997zM517.688889 719.644444c12.561067 0 22.755556 10.194489 22.755556 22.755556l0 91.02222201c0 12.561067-10.194489 22.755556-22.755556 22.75555599s-22.755556-10.194489-22.755556-22.75555599l0-91.02222201C494.933333 729.838933 505.12782201 719.644444 517.688889 719.644444zM276.332089 633.002667c4.437333-4.448711 10.262756-6.66737801 16.088178-6.667378s11.650844 2.218667 16.088178 6.667378c8.886044 8.886044 8.886044 23.290311 0 32.176356l-64.364089 64.364089c-8.874667 8.886044-23.301689 8.886044-32.176356 0-8.886044-8.886044-8.886044-23.290311 0-32.176356L276.332089 633.002667zM221.866667 423.82222199c0 12.561067-10.194489 22.755556-22.755556 22.755556l-91.022222 0c-12.561067 0-22.755556-10.194489-22.755556-22.755556s10.194489-22.755556 22.755556-22.75555599l91.022222 0C211.67217799 401.066667 221.866667 411.261156 221.866667 423.82222199zM276.332089 214.64177799000004l-64.364089-64.36408899c-8.886044-8.886044-8.886044-23.290311 0-32.176356 4.437333-4.448711 10.262756-6.66737801 16.08817799-6.667378s11.650844 2.218667 16.08817801 6.667378l64.364089 64.36408899c8.886044 8.886044 8.886044 23.290311 0 32.176356C299.63377801 223.52782199 285.206756 223.52782199 276.332089 214.64177799000004zM759.045689 214.64177799000004c-8.886044 8.886044-23.290311 8.886044-32.176356 0s-8.886044-23.290311 0-32.176356l64.36408901-64.36408899c4.448711-4.448711 10.262756-6.66737801 16.08817799-6.667378s11.639467 2.218667 16.08817801 6.667378c8.886044 8.886044 8.886044 23.290311 0 32.176356L759.045689 214.64177799000004zM927.288889 446.57777799l-91.022222 0c-12.561067 0-22.755556-10.194489-22.755556-22.755556s10.194489-22.755556 22.755556-22.75555599l91.022222 0c12.561067 0 22.755556 10.194489 22.755556 22.75555599S939.849956 446.57777799 927.288889 446.57777799zM742.957511 626.335289c5.82542199 0 11.639467 2.218667 16.088178 6.667378l64.36408901 64.364089c8.886044 8.886044 8.886044 23.290311 0 32.176356s-23.290311 8.886044-32.176356 0l-64.36408901-64.364089c-8.886044-8.886044-8.886044-23.290311 0-32.176356C731.306667 628.553956 737.132089 626.335289 742.957511 626.335289zM631.466667 82.48888899999997c0-12.561067-10.194489-22.755556-22.755556-22.755556l-182.044444 0c-12.561067 0-22.755556 10.194489-22.755556 22.755556 0 12.117333 9.500444 21.936356 21.44711101 22.619022C411.192889 233.15342200999999 278.755556 261.677511 278.755556 412.444444c0 131.959467 106.973867 238.933333 238.933333 238.933333s238.933333-106.973867 238.93333301-238.933333c0-150.766933-132.437333-179.29102201-146.60266701-307.336533C621.96622201 104.42524400000002 631.466667 94.60622201000001 631.466667 82.48888899999997zM465.248711 587.548444c-3.538489 8.726756-13.471289 12.925156-22.232178 9.40942199-58.15182201-23.56337801-102.240711-73.9328-117.93066699-134.73564398-2.3552-9.136356 3.140267-18.432 12.265244-20.78720002C338.773333 441.059556 340.206933 440.888889 341.61777799 440.888889c7.600356 0 14.52942199 5.10862201 16.52053301 12.8 12.99342201 50.3808 49.516089 92.114489 97.6896 111.627378C464.566044 568.854756 468.77582201 578.798933 465.248711 587.548444z"  horiz-adv-x="1024" />

    
    <glyph glyph-name="share-copy" unicode="&#58896;" d="M815.475 205.708c-47.573 0-89.719-22.774-116.458-57.86l-307.688 183.178c3.502 13.478 5.548 27.541 5.548 42.075 0 4.247-0.344 8.389-0.64 12.522l307.835 185.484c26.881-31.458 66.762-51.49 111.403-51.49 80.902 0 146.489 65.623 146.489 146.524 0 80.93-65.587 146.483-146.489 146.483-80.93 0-146.517-65.553-146.517-146.483 0-16.080 2.672-31.422 7.432-45.921l-305.219-158.238c-29.644 47.166-81.956 78.588-141.743 78.588-92.447 0-167.428-74.96-167.428-167.47 0-92.433 74.981-167.4 167.436-167.4 49.563 0 93.973 21.684 124.622 55.884l319.809-165.417c-3.080-11.869-4.866-24.202-4.866-37.027 0-80.895 65.587-146.447 146.482-146.447 80.936 0 146.525 65.553 146.525 146.447-0.007 80.944-65.63 146.566-146.531 146.566v0z"  horiz-adv-x="1025" />

    
    <glyph glyph-name="temai" unicode="&#58902;" d="M1160.431361 802.787255 877.092921 887.516469c-54.920468 16.57666-135.153697 8.224363-185.870602-19.500878l-631.119333-342.444195c-26.866252-15.242486-46.860592-40.427313-55.41393-68.993267-8.553337-29.297008-5.300145-61.353747 8.900588-87.891025l234.065368-436.366419c15.297315-26.884529 40.354207-47.098185 69.029819-55.688075 29.150797-8.498508 60.951667-5.208763 87.342734 9.083352L1035.49415 229.366397c49.766534 26.500725 101.671402 90.084188 117.937364 145.114314l84.308858 284.361917C1256.071563 719.849124 1221.255094 784.620551 1160.431361 802.787255L1160.431361 802.787255zM1191.135649 672.769216 1106.954726 388.297641c-12.555861-42.273225-55.651522-95.420886-94.068435-115.835582L380.889692-71.444246c-29.863576-16.339068-72.739921-3.61872-90.340057 27.487648l-234.065368 436.000892c-8.078152 14.986617-9.99717 33.884375-5.062552 50.479312 4.952894 16.704595 16.741148 31.490172 32.40399 40.445589L714.469852 825.175798c39.38556 21.310238 106.130834 28.456296 149.007179 15.608013L1146.431668 756.054597C1181.138479 745.527413 1201.516623 707.51258 1191.135649 672.769216L1191.135649 672.769216zM966.610542 621.558849c0 13.853482 5.702225 27.615583 15.42525 37.411713 9.741301 9.79613 23.448572 15.498355 37.228949 15.498355s27.487648-5.702225 37.228949-15.498355c9.723025-9.79613 15.42525-23.558231 15.42525-37.411713 0-13.835206-5.702225-27.615583-15.42525-37.393437-9.741301-9.79613-23.448572-15.498355-37.228949-15.498355s-27.487648 5.720501-37.228949 15.498355C972.29449 593.943266 966.610542 607.723643 966.610542 621.558849L966.610542 621.558849zM349.107099 308.411662c-19.043969 27.597307-45.288825 29.772194-73.361317 14.529708-22.772347-12.592413-41.322855-33.153321-26.866252-59.909915 13.487955-25.440696 48.194767-11.386174 85.167847-0.986924 36.735488 10.289592 75.536204 16.357344 97.21197-23.960311 23.503402-43.479465-9.759577-84.491622-46.97025-104.613896-45.76401-25.056892-96.499191-23.357191-123.475102 26.756594l25.897605 13.926588c18.550507-34.524048 55.176337-33.994033 86.118218-17.17978 24.691365 13.323468 47.701305 35.839946 31.80087 65.484205-15.059722 28.218703-50.351377 15.534908-86.977207 4.861512-36.625829-10.380974-74.439622-18.769824-94.817766 18.879482-22.516478 41.761487 4.459432 80.141847 41.79804 100.465162 41.925974 22.754071 84.327134 19.976064 110.352674-24.325838L349.107099 308.411662 349.107099 308.411662zM439.684749 435.286168l30.119445 16.357344 190.457969-162.202713-30.119445-16.467002-55.651522 49.876192-86.483745-46.97025 10.234763-74.311688-27.944558-15.242486L439.684749 435.286168 439.684749 435.286168zM484.132861 303.604979l69.395347 37.740688L467.994834 418.672954 467.391714 418.307427 484.132861 303.604979 484.132861 303.604979zM569.922104 505.960859l27.231779 14.767301 98.052682-182.416369 108.287445 58.703675 12.299992-23.119598-135.281632-73.379593L569.922104 505.960859 569.922104 505.960859zM729.273705 592.389775l141.203173 76.504851 12.537584-22.991663-113.934841-61.847209 35.054062-65.484205 106.368427 57.607093 12.299992-22.882005-106.185663-57.735028 38.087938-71.058495 115.049699 62.340671 12.281715-23.00994-142.025609-77.107971L729.273705 592.389775 729.273705 592.389775z"  horiz-adv-x="1243" />

    
    <glyph glyph-name="erweima" unicode="&#58880;" d="M62.996776 411.938306l423.162696 0L486.159472 835.099978 62.996776 835.099978 62.996776 411.938306zM168.788218 729.30956l211.580836 0 0-211.580836L168.788218 517.728724 168.788218 729.30956zM539.055193 835.099978l0-423.162696 423.162696 0L962.217888 835.099978 539.055193 835.099978zM856.426447 517.728724 644.845611 517.728724 644.845611 729.30956l211.580836 0L856.426447 517.728724zM221.682915 570.623421l105.790418 0L327.473333 676.414863 221.682915 676.414863 221.682915 570.623421zM62.996776-64.120111l423.162696 0L486.159472 359.042585 62.996776 359.042585 62.996776-64.120111zM168.788218 253.252167l211.580836 0 0-211.580836L168.788218 41.671331 168.788218 253.252167zM803.531749 676.414863 697.740308 676.414863l0-105.790418 105.790418 0L803.530726 676.414863zM539.055193-64.120111l105.790418 0L644.845611 41.670308 539.055193 41.670308 539.055193-64.120111zM644.845611 253.252167l0-211.580836 105.790418 0L750.636029 253.252167 644.845611 253.252167zM856.426447 41.670308 750.636029 41.670308 750.636029-64.120111l211.580836 0L962.216865 147.461749 856.426447 147.461749 856.426447 41.670308zM856.426447 253.252167l105.790418 0L962.216865 359.042585 856.426447 359.042585 856.426447 253.252167zM539.055193 359.042585l0-105.790418 105.790418 0L644.845611 359.042585 539.055193 359.042585zM221.682915 94.566028l105.790418 0L327.473333 200.356446 221.682915 200.356446 221.682915 94.566028z"  horiz-adv-x="1024" />

    
    <glyph glyph-name="wodedingdan" unicode="&#58951;" d="M883.2-64 263.68-64 263.68 0l496.64 0c33.28 0 61.44 28.16 61.44 64l0 640 61.44 0L883.2-64 883.2-64zM230.4 128c-17.92 0-30.72 15.36-30.72 33.28 0 17.92 12.8 33.28 30.72 33.28l435.2 0c17.92 0 30.72-15.36 30.72-33.28 0-17.92-12.8-33.28-30.72-33.28L230.4 128 230.4 128zM230.4 384l435.2 0c17.92 0 30.72-15.36 30.72-33.28 0-17.92-12.8-33.28-30.72-33.28L230.4 317.44c-17.92 0-30.72 15.36-30.72 33.28C199.68 368.64 212.48 384 230.4 384M230.4 576l435.2 0c17.92 0 30.72-15.36 30.72-33.28 0-17.92-12.8-33.28-30.72-33.28L230.4 509.44c-17.92 0-30.72 15.36-30.72 33.28C199.68 560.64 212.48 576 230.4 576M417.28 768 665.6 768c17.92 0 30.72-15.36 30.72-33.28 0-17.92-12.8-30.72-30.72-30.72l-250.88 0c-17.92 0-30.72 15.36-30.72 30.72C386.56 752.64 399.36 768 417.28 768M883.2 768l-61.44 0L821.76 832C821.76 867.84 793.6 896 760.32 896L140.8 896C104.96 896 79.36 867.84 79.36 832l0-768c0-35.84 28.16-64 61.44-64l61.44 0 0-64c0-35.84 28.16-64 61.44-64l619.52 0c33.28 0 61.44 28.16 61.44 64l0 768C944.64 739.84 919.04 768 883.2 768"  horiz-adv-x="1024" />

    
    <glyph glyph-name="search" unicode="&#58942;" d="M621.664 242.336c-44.48-31.68-98.88-50.336-157.664-50.336-150.208 0-272 121.792-272 272s121.792 272 272 272c150.208 0 272-121.792 272-272 0-75.104-30.432-143.104-79.68-192.32l191.904-191.904c8.8-8.8 8.576-22.912-0.256-31.744-8.896-8.896-23.04-8.96-31.744-0.256l-194.592 194.592zM464 224c132.544 0 240 107.456 240 240s-107.456 240-240 240c-132.544 0-240-107.456-240-240s107.456-240 240-240l0 0z"  horiz-adv-x="1024" />

    
    <glyph glyph-name="safe" unicode="&#58940;" d="M888.875 519l-84.375 0 0 112.5c0 112.5-90 202.5-202.5 202.5L422 834c-112.5 0-202.5-90-202.5-202.5l0-112.5L135.125 519C123.875 519 112.625 507.75 112.625 496.5l0-123.75 95.625 0c16.875 0 33.75-16.875 33.75-33.75S225.125 305.25 208.25 305.25L112.625 305.25l0-45 95.625 0c16.875 0 33.75-16.875 33.75-33.75s-16.875-33.75-33.75-33.75L112.625 192.75l0-45 95.625 0c16.875 0 33.75-16.875 33.75-33.75s-16.875-33.75-33.75-33.75L112.625 80.25l0-123.75c0-11.25 11.25-22.5 22.5-22.5l753.75 0c11.25 0 22.5 11.25 22.5 22.5L911.375 496.5C911.375 507.75 900.125 519 888.875 519zM568.25 147.75l0-129.375L455.75 18.375l0 129.375c-50.625 22.5-84.375 73.125-84.375 129.375 0 78.75 61.875 140.625 140.625 140.625 78.75 0 140.625-61.875 140.625-140.625C652.625 220.875 618.875 170.25 568.25 147.75zM686.375 519L337.625 519l0 112.5c0 50.625 39.375 90 90 90l174.375 0c50.625 0 90-39.375 90-90L692 519z"  horiz-adv-x="1024" />

    
    <glyph glyph-name="home" unicode="&#59835;" d="M1007.133225 391.691018 511.72545 843.149086 17.4231 392.781994c-9.88742-8.785606-9.88742-29.658647-1.101813-39.538841 8.785606-9.88742 29.662259-9.88742 39.549679-1.101813L511.72545 766.256967l455.858096-416.308417c4.396416-4.400028 12.091046-6.592817 21.964016-6.592817 7.694631 0 13.182022 2.192789 17.58205 7.683793C1017.017032 360.926946 1015.915219 382.894574 1007.133225 391.691018L1007.133225 391.691018zM825.890355 352.144952l0-367.98397-181.253708 0 0 266.931433-265.818782 0 0-266.931433L197.564157-15.839018 197.564157 352.144952c0 30.753235-59.310068 30.753235-59.310068 0l0-427.29765 298.775644 0 0 268.022409 149.395047 0 0-268.022409 298.779256 0L885.204036 352.144952C885.204036 382.894574 825.890355 382.894574 825.890355 352.144952L825.890355 352.144952zM687.477316 720.128921l143.90043 0 0-127.420193c0-31.855048 48.331673-31.855048 48.331673 0L879.709419 767.358781l-191.126677 0c-13.182022 0-24.171255-9.88742-24.171255-24.160418C663.320511 730.016341 674.298906 720.128921 687.477316 720.128921z"  horiz-adv-x="1024" />

    
    <glyph glyph-name="qianbao" unicode="&#58895;" d="M765.8 775.66875C742.11875 812.625 716.24375 834 654.03125 834c-13.275 0-53.60625 0-314.49375-139.1625L231.59375 638.25l616.3875 0L765.8 775.66875zM460.475 694.5C619.2125 775.05 650.54375 777.75 654.03125 777.75c39.99375 0 48.9375-8.38125 63.9-31.66875L748.8125 694.5 460.475 694.5zM703.75625 312.5625c-10.6875-10.6875-15.975-24.13125-15.975-40.1625 0-16.0875 5.2875-29.41875 15.975-40.1625 10.74375-10.74375 24.1875-16.0875 40.275-16.0875 16.03125 0 29.41875 5.34375 40.1625 16.0875 10.6875 10.6875 16.0875 24.075 16.0875 40.1625 0 16.03125-5.4 29.41875-16.0875 40.1625-10.6875 10.74375-24.13125 16.0875-40.1625 16.0875C727.94375 328.70624999999995 714.55625 323.36249999999995 703.75625 312.5625zM959.1875 358.01250000000005L962 358.01250000000005 962 458.3625c0 77.4-62.94375 140.2875-140.2875 140.2875L202.2875 598.65C124.94375 598.65 62 535.7625 62 458.3625l0-384.075C62-3.0562499999999773 124.94375-66 202.2875-66l619.425 0C899.05625-66 962-3.0562499999999773 962 74.28750000000002l0 67.725-0.28125 0 0 44.775-237.20625 0c-45.73125 0-84.31875 39.76875-84.31875 86.85 0 46.51875 37.8 84.375 84.31875 84.375l181.29375 0L959.1875 358.01250000000005zM724.5125 414.2625c-77.5125 0-140.56875-63.1125-140.56875-140.625 0-78.8625 63.05625-143.04375 140.56875-143.04375l181.29375 0 0-56.30625c0-46.35-37.74375-84.0375-84.09375-84.0375L202.2875-9.75c-46.29375 0-84.09375 37.6875-84.09375 84.0375L118.19375 458.3625c0 46.35 37.74375 84.0375 84.09375 84.0375l619.425 0c46.35 0 84.09375-37.6875 84.09375-84.0375l0-44.1L724.5125 414.2625z"  horiz-adv-x="1024" />

    
    <glyph glyph-name="erweima1" unicode="&#58953;" d="M171.52 610.944l113.536 0L285.056 724.48 171.52 724.48 171.52 610.944 171.52 610.944zM341.76 213.76l113.536 0 0 113.536L341.76 327.296 341.76 213.76 341.76 213.76zM257.152 128.128 257.152 213.76 114.816 213.76l0-226.944L341.76-13.184 341.76 128.128 257.152 128.128 257.152 128.128zM1.28 327.296 1.28 213.76l113.536 0 0 113.536L1.28 327.296 1.28 327.296zM341.76-126.72l113.536 0 0 113.536L341.76-13.184 341.76-126.72 341.76-126.72zM1.28-126.72l113.536 0 0 113.536L1.28-13.184 1.28-126.72 1.28-126.72zM1.28 440.704l454.016 0L455.296 894.72 1.28 894.72 1.28 440.704 1.28 440.704zM86.912 809.088l283.776 0 0-283.776L86.912 525.312 86.912 809.088 86.912 809.088zM682.24 781.184 682.24 894.72l-113.536 0 0-113.536 0-113.536 226.944 0L795.648 554.24l113.536 0L909.184 781.184 682.24 781.184 682.24 781.184zM568.704 440.704l226.944 0L795.648 554.24 568.704 554.24 568.704 440.704 568.704 440.704zM1022.72 894.72l-113.536 0 0-113.536L1022.72 781.184 1022.72 894.72 1022.72 894.72zM568.704-126.72 1022.72-126.72 1022.72 327.296 568.704 327.296 568.704-126.72 568.704-126.72zM654.336 241.664l283.776 0 0-283.776L654.336-42.112 654.336 241.664 654.336 241.664zM1022.72 440.704 1022.72 554.24l-113.536 0 0-113.536L1022.72 440.704 1022.72 440.704zM738.944 43.52 852.48 43.52l0 113.536-113.536 0L738.944 43.52 738.944 43.52zM738.944 43.52"  horiz-adv-x="1024" />

    
    <glyph glyph-name="integral" unicode="&#58970;" d="M511.99700666 437.44700154C362.85849354 437.44700154 233.81605295 475.2233424 169.93619647 530.35926968L169.93619647 443.68961111C189.00608613 378.46289062000005 334.80950666 327.73099692000005 511.99700666 327.73099692000005 702.16143934 327.73099692000005 856.30259172 386.1378804 856.30259172 458.20581695 856.30259172 458.14168056 897.39264689 458.0561659 896.81541946 458.20581695 896.81541946 363.96806385 724.52366426 287.60298746 511.99700666 287.60298746 362.85849354 287.60298746 233.81605295 325.27243461 169.93619647 380.28008835L169.93619647 294.29455248C189.00608613 229.08921024999995 334.80950666 178.35731654999995 511.99700666 178.35731654999995 702.16143934 178.35731654999995 856.30259172 236.76420005 856.30259172 308.81075828999997 856.30259172 308.74662192000005 897.39264689 308.66110647999994 896.81541946 308.81075828999997 896.81541946 214.59438349000004 724.52366426 138.20792882 511.99700666 138.20792882 362.85849354 138.20792882 233.81605295 175.87737518999995 169.93619647 230.88502971000003L169.93619647 144.57881114999998C189.00608613 79.37346893999995 334.80950666 28.641575229999944 511.99700666 28.641575229999944 702.16143934 28.641575229999944 856.30259172 87.04845873 856.30259172 159.09501696999996 856.30259172 159.05225965 897.39264689 158.96674421 896.81541946 159.09501696999996 896.81541946 64.87864217000003 724.52366426-11.5078125 511.99700666-11.5078125 332.50059616-11.5078125 182.14349103 43.05088658 139.59967814 116.76499149999995L127.17859462 116.76499149999995 127.17859462 587.09860648 130.49230893 587.09860648C128.52545939 594.1108534 127.17859462 601.22999403 127.17859462 608.4774074100001 127.17859462 702.92894869 299.47034982 779.5078125 511.99700666 779.5078125 724.52366426 779.5078125 896.81541946 702.92894869 896.81541946 608.4774074100001 896.81541946 514.02586535 724.52366426 437.44700154 511.99700666 437.44700154ZM511.99700666 739.42256115C321.98222656 739.42256115 167.92658883 680.80188947 167.92658883 608.4774074100001 167.92658883 536.15292458 321.98222656 477.53225289 511.99700666 477.53225289 702.01178752 477.53225289 856.06742525 536.15292458 856.06742525 608.4774074100001 856.06742525 680.80188947 702.01178752 739.42256115 511.99700666 739.42256115Z"  horiz-adv-x="1024" />

    
    <glyph glyph-name="brand" unicode="&#58882;" d="M948.47907954 50.46439595000004L812.69316835 267.26428558l4.69560207 6.22897835c24.88913579 33.02057187 44.16171122 69.54800014 57.28098759 108.56702066 13.16119097 39.14359922 19.83376611 79.92652686 19.83376612 121.21592263 0 210.97841323-171.6624987 382.61995406-382.66652672 382.61995406-15.46998784 0-31.18797141-0.93725696-46.71850383-2.78499328-66.00854414-7.86947072-129.43468089-33.44204686-183.42187804-73.95136398-54.11410489-40.60362525-96.2441216-94.35912875-121.83299869-155.45551076-26.65071389-63.60543915-36.11526827-132.63649223-27.37024796-199.63002993 8.52263936-65.28085902 34.08823069-127.72549632 73.93390023-180.57866923l4.69560206-6.23014229L75.31134749 50.46556103c-6.04851314-9.65549853-6.37102307-20.87930311-0.8813716-30.79211122 6.2860288-11.35304135 18.60427093-17.38991047 31.37658766-15.3849947l83.78383588 13.19611961c2.73260089 0.42846094 5.5117733 0.64618382 8.26067286 0.64618382l0.64501987 0 0.62988402 0.14087965c38.08176242 8.54709021 40.68163357-2.19120299 46.37736505-25.71578482 1.02574421-4.23803449 2.08641707-8.61811143 3.43234218-13.21009152l21.84683293-77.86339556c4.59198009-16.41423189 18.73467165-22.23803506 29.44967907-22.23803506 10.58111374 0 19.91060935 5.20672711 25.5958619 14.28473629L469.7360896 123.27475200000003l7.03583459-0.74049195c12.35200569-1.30051755 23.84126976-1.93272946 35.12328875-1.93272946 11.27968995 0 22.77244701 0.63221191 35.12911076 1.93272946l7.03699968 0.74049195 143.89056853-229.72239986c5.68874553-9.07568014 15.01591325-14.28007936 25.59353401-14.27891427 10.71500743 0.00116395 24.86235705 5.8238043 29.46481493 22.23105024l21.81190315 77.8482597 0.09197909 0.37606741c8.29676658 39.59418197 21.10051897 39.2029787 42.31630393 38.57193073 2.80129422-0.08382919 5.70038841-0.17115136 8.71241956-0.17115136 2.75472157 0 5.5280731-0.21772288 8.2432091-0.64501987l83.80130077-13.19611961c1.64165632-0.25963747 3.30776235-0.39120327 4.95174656-0.39120327 11.07943197 0 20.95731143 5.89831851 26.42600504 15.7808549C954.85126656 29.59091484999999 954.52875662 40.81239040000003 948.47907954 50.46439595000004zM286.50981262 273.03918819l-15.11487829 17.05226582c-52.41539925 59.00530915-81.28176583 134.71475939-81.28176583 213.18242418 0 177.43390834 144.32717938 321.78670251 321.72965205 321.7867025 20.64411534 0 41.60491975-1.98395904 62.30142862-5.89599061 49.65951261-9.37141134 97.23843015-31.20310727 137.58940388-63.13389966 40.30207317-31.89004174 72.51462485-73.15382272 93.15641116-119.32976469 26.10349511-58.37658909 34.67387107-121.94477056 24.78551268-183.8328741-9.65666361-60.43273443-36.37141277-116.72174365-77.25912633-162.78358472l-15.1207003-17.04411477L861.50158222 74.79350612999997l-91.15731627 14.2835712c-15.20336441 2.40310499-29.83506034-6.97994923-34.03001628-21.84333994l-23.26377927-83.18771769L584.35045831 189.45444637000003l-19.97697479-3.29379044c-17.29909533-2.85135872-34.95795939-4.29741283-52.48525653-4.29741284-17.52613319 0-35.18266823 1.44605411-52.47943566 4.29741284l-19.97813874 3.29262649L310.79584313-15.851521140000045 287.43659179 67.24887437999996c-3.65937891 13.07270485-15.67373995 22.20194247-29.21798429 22.20194247-1.58227683 0-3.18551154-0.12574379-4.75730944-0.37490346l-91.16197433-14.28590024L286.50981262 273.03918819zM367.29326137 486.39742179c12.51966521-12.22393401 18.22354659-29.79547477 15.25692188-47.00957696l-14.26377842-83.25058901c-1.55200512-9.01397277 0.77076366-17.74851413 6.54100936-24.59573248 5.82962517-6.91824071 14.58163143-11.0479963 23.41048092-11.0479963 4.87373938 0 9.64036267 1.20620942 14.16830635 3.58602866l74.81527182 39.31475057c7.57257557 3.99120384 16.10802176 6.10090553 24.68305465 6.10090554 8.57037597 0 17.11397319-2.11203072 24.70983338-6.10905658l74.78034319-39.3089297c4.5244507-2.37749021 9.28292409-3.58253568 14.14385664-3.58253568 8.82186354 0 17.57154077 4.12975445 23.40233102 11.04566727 5.78188971 6.85187641 8.11746531 15.58641778 6.57477405 24.60039054l-14.28706418 83.25757497c-2.94100878 17.24553785 2.7733504 34.81591467 15.28952263 47.00375609l60.53169948 59.01462301c8.48072477 8.26649486 11.36002731 19.92108829 7.70414023 31.17516458-3.65705102 11.25640419-12.83868103 18.99663815-24.56662584 20.70465878l-83.67788488 12.17154048c-17.25019591 2.49741312-32.18577294 13.33700039-39.94696362 28.98512554l-37.39832093 75.81423616c-5.23816391 10.59857749-15.43040227 16.92535694-27.26429696 16.92535694-11.83505977 0-22.03544803-6.33260032-27.2887478-16.9463148l-37.40763591-75.77232157c-7.70181234-15.65976803-22.64204629-26.50401223-39.97024939-29.00841131l-83.64644921-12.1680475c-11.71862983-1.70802062-20.89909589-9.4529115-24.55731086-20.71630165-3.6523941-11.25058333-0.77309155-22.90051982 7.70414023-31.1658496L367.29326137 486.39742179zM582.62264491 499.34903979c-7.15110059-6.99159211-10.41461931-17.04993678-8.73221234-26.90569444l11.25989717-65.89095026-59.11009507 31.12160712c-4.35679232 2.28667506-9.24217458 3.43001315-14.12988473 3.43001315-4.89353216 0-9.78822827-1.14683107-14.15549952-3.43932814l-59.13454592-31.1076352 11.29016889 65.89560718c1.68706389 9.86623659-1.59042674 19.91875925-8.75782713 26.88240867l-47.82807609 46.64864541 66.1063441 9.59728413c9.91397205 1.43790421 18.48085504 7.65873266 22.91681963 16.64126862l29.55330105 59.88551566 29.54980807-59.89133767c4.43829248-8.98370105 13.00168249-15.20220046 22.90517675-16.63428381l66.09703026-9.59961315-47.82458312-46.62535965L582.62264491 499.34903979z"  horiz-adv-x="1024" />

    
    <glyph glyph-name="top" unicode="&#58959;" d="M132.579551 279.078369l92.213191 0 0-240.313228 44.706201 0 0 240.313228 92.213191 0 0 39.117926L132.579551 318.196295 132.579551 279.078369zM132.579551 279.078369M518.194072 323.783547c-41.915645 0-78.238922-13.970176-100.596116-41.911552-22.352077-25.15082-33.528628-61.474097-33.528628-103.389742s11.17655-78.243015 33.528628-103.389742c25.15082-27.944446 58.680471-41.915645 100.596116-41.915645s75.445296 13.9712 100.596116 41.915645c22.352077 25.146727 36.323277 61.474097 36.323277 103.389742s-11.17655 78.238922-36.323277 103.389742C596.432994 309.813371 560.109718 323.783547 518.194072 323.783547L518.194072 323.783547zM585.256444 100.239238c-16.764825-19.558451-39.120996-27.940352-67.062372-27.940352-27.945469 0-50.297546 8.381901-67.062372 27.940352-13.970176 19.563568-22.357194 44.710294-22.357194 75.449389 0 30.735002 8.387018 58.680471 22.357194 75.444273 16.764825 19.563568 39.116903 27.945469 67.062372 27.945469 27.941376 0 50.297546-8.381901 67.062372-27.945469 16.768919-19.558451 22.357194-44.709271 22.357194-78.238922C607.613638 144.949532 602.025363 119.802806 585.256444 100.239238L585.256444 100.239238zM585.256444 100.239238M814.389028 318.196295 699.822736 318.196295l0-279.431154 44.710294 0L744.533031 144.949532l69.855998 0c67.066465 0 103.389742 27.944446 103.389742 86.624916C914.985144 290.254919 881.455493 318.196295 814.389028 318.196295L814.389028 318.196295zM853.511048 195.247078c-8.382924-8.381901-25.146727-11.17655-44.710294-11.17655l-67.062372 0 0 95.007841 67.062372 0c19.563568 0 36.32737-2.793626 44.710294-11.180644 8.381901-8.381901 13.970176-19.558451 13.970176-36.323277C867.481224 214.80553 864.687598 203.630003 853.511048 195.247078L853.511048 195.247078zM853.511048 195.247078M537.752524 690.503742 300.238039 452.988234l463.853443 0L537.752524 690.503742zM537.752524 690.503742"  horiz-adv-x="1024" />

    
    <glyph glyph-name="you" unicode="&#59032;" d="M796.288 586.24l-80.896 0 0-80.896 80.896 0L796.288 586.24 796.288 586.24zM877.184 505.344l-80.896 0 0-80.896 80.896 0L877.184 505.344 877.184 505.344zM715.392 262.656 715.392 181.76l80.896 0 0 80.896L715.392 262.656 715.392 262.656zM796.288 343.552l0-80.896 80.896 0 0 80.896L796.288 343.552 796.288 343.552zM958.08 424.448l-80.896 0 0-80.896 80.896 0L958.08 424.448 958.08 424.448zM796.288 424.448l-80.896 0 0-80.896 80.896 0L796.288 424.448 796.288 424.448zM472.704 424.448l-80.896 0 0-80.896 80.896 0L472.704 424.448 472.704 424.448zM634.496 424.448l-80.896 0 0-80.896 80.896 0L634.496 424.448 634.496 424.448zM958.08 424.448M146.048 300.032c-46.336 0-83.968 37.632-83.968 83.968 0 46.336 37.632 83.968 83.968 83.968s83.968-37.632 83.968-83.968C230.016 337.664 192.384 300.032 146.048 300.032zM146.048 460.288c-42.112 0-76.288-34.176-76.288-76.288 0-42.112 34.176-76.288 76.288-76.288s76.288 34.176 76.288 76.288C222.336 426.112 188.16 460.288 146.048 460.288z"  horiz-adv-x="1024" />

    
    <glyph glyph-name="laba" unicode="&#58952;" d="M867.2 611.2c-12.8 12.8-32 12.8-44.8 0-12.8-12.8-12.8-32 0-44.8 44.8-44.8 73.6-108.8 73.6-182.4s-28.8-134.4-73.6-182.4c-12.8-12.8-12.8-32 0-44.8 12.8-12.8 32-12.8 44.8 0 57.6 57.6 92.8 137.6 92.8 227.2S924.8 553.6 867.2 611.2zM774.4 518.4c-12.8 12.8-32 12.8-44.8 0-12.8-12.8-12.8-32 0-44.8 22.4-22.4 38.4-54.4 38.4-89.6s-12.8-67.2-38.4-89.6c-12.8-12.8-12.8-32 0-44.8 12.8-12.8 32-12.8 44.8 0 35.2 35.2 57.6 83.2 57.6 134.4S809.6 486.4 774.4 518.4zM556.8 752 320 608l0-448 236.8-144c44.8-28.8 83.2-6.4 83.2 44.8L640 704C640 758.4 601.6 777.6 556.8 752zM64 512l0-256c0-54.4 41.6-96 96-96l96 0L256 608 160 608C105.6 608 64 566.4 64 512z"  horiz-adv-x="1024" />

    
    <glyph glyph-name="huojian" unicode="&#58905;" d="M511.27182222 502.91143111c0 0-36.70016-7.09973333-31.23882667-98.66808889 0 0 5.93464889-98.81372445 15.58300445-138.71786667l-26.14158222 0.0364089c0 0-41.36049778 76.71352889-52.13752889 118.43811555 0 0-57.81731555-27.70716445-82.83022222-118.47452445 0 0-102.41820445 148.03854222 39.86773333 285.48209778 0 0-43.39939555 169.88387555 137.55278222 338.12935112 0 0 0-8.73813333 0-13.1072 0-50.42631111-0.94663111-151.16970667-0.94663111-151.16970667l-0.72817778 0c-44.92856889 0.03640889-81.26464-36.88220445-81.22823111-82.46613333s36.51811555-82.64817778 81.44668445-82.68458667l0.72817778 0 0.07281777-56.83427556zM468.96469333 217.90264889000002l38.44778667-348.17820444-15.69223111 348.14179555-22.75555556 0.03640889zM649.44355555 548.8594488900001c2.03889778 2.18453333 43.79989333 171.59509333-137.55278222 340.31388444-0.29127111-54.90460445-0.91022222-164.24049778-0.91022222-164.24049778 0.21845333 0 0.47331555 0 0.72817778 0 44.92856889-0.03640889 81.37386667-37.06424889 81.44668444-82.68458666s-36.33607111-82.53895111-81.26464-82.46613334c-0.21845333 0-0.47331555 0-0.69176888 0l0.07281777-56.83427555c0 0 36.73656889-7.20896 31.45728-98.74090667 0 0-5.71619555-98.81372445-15.25532444-138.68145778l26.14158222-0.03640888c0 0 38.99392 76.85916445 49.62531555 118.54734222 0 0 63.46069333-27.96202667 88.5100089-113.77777778 0 0 97.86709333 147.92931555-42.3071289 278.63722667zM510.68928 488.52992c-3.13116445 0.18204445-25.95953778-2.54862222-19.80643555-120.33137778 2.47580445-47.22232889 9.93962667-133.65703111 19.9520711-187.65141333l0-1.31072c0.03640889 0.21845333 0.07281778 0.43690667 0.10922667 0.65536 0.03640889-0.21845333 0.07281778-0.43690667 0.10922667-0.65536l0 1.27431111c9.90321778 53.99438222 17.22140445 140.39267555 19.58798222 187.61500445 5.93464889 117.74634667-16.89372445 120.58624-19.98848 120.40419555l0 0zM512.54613333-130.27555555000004l38.59342222 348.06897777-22.75555555 0.03640889-15.83786667-348.10538666zM856.68295111 382.32519111c0 91.53194667-35.71712 177.49333333-98.34040889 241.71861334-7.46382222 7.64586667-21.18997333 12.26979555-28.83584 4.80597333s-6.44437333-18.75057778 1.01944889-26.39644445c55.63278222-57.05272889 90.94940445-129.32437333 90.94940444-218.45333333s-34.84330667-161.32778667-90.94940444-218.45333333c-7.50023111-7.64586667-8.15559111-19.55157333-0.54613333-27.05180445s19.98848-6.37155555 27.48871111 1.23790223c63.16942222 64.29809778 99.17781333 150.62357333 99.17781333 242.59242666zM267.18663111 628.92259555c-64.69859555-64.51655111-102.96433778-153.35424-102.96433778-246.56099555 0-94.77233778 38.30215111-183.5008 104.89400889-248.27221333 7.68227555-7.46382222 19.91566222-7.28177778 27.37948445 0.40049778s7.28177778 19.91566222-0.40049778 27.37948444c-59.16444445 57.52604445-93.17034667 136.27847111-93.17034667 220.49223111 0 82.83022222 32.91363555 162.78414222 90.36686223 220.12814222 7.57304889 7.53664 7.53664 18.89621333 0 26.46926223-11.57802667 11.61443555-26.14158222 0-26.14158223 0zM512 597.90222222c25.12213333 0 45.51111111 20.38897778 45.51111111 45.51111111s-20.38897778 45.51111111-45.51111111 45.51111112c-25.12213333 0-45.51111111-20.38897778-45.51111111-45.51111112s20.38897778-45.51111111 45.51111111-45.51111111z"  horiz-adv-x="1024" />

    
    <glyph glyph-name="v" unicode="&#59034;" d="M740.693333 807.253333 283.306667 807.253333 0 472.746667l512-559.786667 512 559.786667L740.693333 807.253333 740.693333 807.253333zM795.306667 431.786667 785.066667 431.786667c-13.653333 0-13.653333-3.413333-20.48-10.24C716.8 356.693333 512 93.866667 512 93.866667c0 0 0 0 0 0l0 0c0 0-201.386667 262.826667-252.586667 327.68-6.826667 6.826667-6.826667 10.24-20.48 10.24L228.693333 431.786667c-6.826667 0-10.24 3.413333-10.24 10.24l0 54.613333c0 6.826667 3.413333 10.24 10.24 10.24l102.4 0c6.826667 0 13.653333 0 20.48-10.24l163.84-221.866667 0 0c0 0 0 0 0 0l160.426667 221.866667c6.826667 10.24 13.653333 10.24 20.48 10.24l102.4 0c6.826667 0 10.24-3.413333 10.24-10.24l0-54.613333C805.546667 438.613333 802.133333 431.786667 795.306667 431.786667L795.306667 431.786667zM795.306667 431.786667"  horiz-adv-x="1024" />

    
    <glyph glyph-name="qiandai" unicode="&#58888;" d="M508.608 828.224c1.408 0 3.136 0.704 5.248 2.112 4.224 2.816 9.856 7.744 16.832 14.784 8.448 7.744 16.832 13.376 25.28 16.832s19.648 2.432 33.728-3.136c7.04-2.112 12.672-5.12 16.832-8.96 4.224-3.84 8.256-7.552 12.096-11.072s8.064-6.528 12.672-8.96c4.544-2.432 10.368-3.712 17.408-3.712 7.04 0 12.992 1.024 17.92 3.136s9.664 4.032 14.208 5.824c4.544 1.728 9.152 3.008 13.696 3.712 4.544 0.704 9.984 0 16.32-2.112 7.04-2.816 11.776-6.848 14.208-12.096s3.136-10.688 2.112-16.32-3.52-11.264-7.36-16.832c-3.84-5.632-8.576-10.176-14.208-13.696-13.376-8.448-23.552-17.024-30.592-25.792s-14.08-18.112-21.056-27.904c-3.52-4.928-7.36-10.56-11.584-16.832-4.16-6.464-8-12.8-11.52-19.136C626.624 680.384 622.08 672.96 617.152 665.984L398.976 665.984C394.048 674.368 389.12 682.432 384.192 690.176c-4.224 7.04-8.768 14.08-13.696 21.056C365.632 718.272 361.408 724.608 357.888 730.24c-7.04 10.56-14.912 19.84-23.744 27.904C325.376 766.272 316.8 773.44 308.352 779.776 299.2 786.112 292.864 794.688 289.344 805.568 285.888 816.512 289.024 825.792 298.88 833.536 303.808 837.056 309.376 838.464 315.712 837.76c6.336-0.704 12.992-2.112 20.032-4.224 7.04-2.112 13.888-4.224 20.544-6.336s12.8-2.432 18.432-1.024C384.576 828.288 391.936 832 396.864 837.248 401.792 842.496 410.24 848.96 422.144 856.704c9.152 5.632 19.328 7.552 30.592 5.824C464 860.8 472.384 857.088 478.016 851.456c2.816-3.52 5.824-6.528 8.96-8.96C490.112 840 493.504 837.76 496.96 835.648 500.48 832.832 504.384 830.336 508.608 828.224L508.608 828.224zM627.648 617.472c8.448-11.264 18.944-23.552 31.616-36.864 10.56-11.968 23.552-25.472 38.976-40.576 15.488-15.104 33.344-31.104 53.76-47.936 16.832-14.784 34.24-32.128 52.16-52.16s33.536-43.392 46.912-70.08c13.376-26.688 22.656-57.408 27.904-92.224 5.248-34.752 4.416-73.6-2.624-116.48-6.336-35.136-18.816-68.352-37.44-99.584-18.624-31.296-43.392-58.496-74.304-81.664-30.912-23.168-67.648-41.6-110.144-55.36C612.032-89.152 563.712-96 509.632-96c-55.488 0-104.704 7.936-147.52 23.744-42.88 15.808-79.232 36.352-109.056 61.632-29.888 25.28-53.568 53.568-71.168 84.864-17.536 31.296-29.184 62.336-34.752 93.248C140.8 201.92 139.904 234.944 144.448 266.56c4.544 31.616 12.8 61.312 24.768 89.024 11.968 27.776 26.88 53.248 44.8 76.416 17.92 23.168 37.44 43.904 58.496 62.208 18.24 16.128 34.752 31.424 49.536 45.824 14.784 14.4 27.072 27.584 36.864 39.552C370.88 592.896 381.44 605.504 390.528 617.472L627.648 617.472 627.648 617.472zM515.968 293.952 487.488 322.368 465.344 344.512C458.304 351.552 453.376 356.8 450.56 360.32 444.992 365.248 437.632 369.28 428.48 372.48 419.328 375.616 411.648 373.696 405.312 366.656 399.68 358.912 398.272 351.36 401.088 344 403.904 336.64 407.04 330.816 410.56 326.592l15.808-14.784C434.112 303.36 442.496 294.272 451.648 284.416c10.56-11.264 22.144-23.168 34.752-35.84l-1.024-22.144-71.68 0c-6.336 0-11.776-2.432-16.32-7.36s-6.848-10.176-6.848-15.808 2.112-10.56 6.336-14.784 9.856-6.336 16.832-6.336l71.68 0 0-36.864-71.68 0c-6.336 0-11.776-1.92-16.32-5.824-4.544-3.84-6.848-8.96-6.848-15.296-0.704-5.632 1.216-10.368 5.824-14.208 4.544-3.84 10.368-5.824 17.408-5.824l71.68 0 0-21.056c0.704-9.856 3.84-16.704 9.472-20.544 5.632-3.84 12.672-5.824 21.056-5.824 8.448-0.704 15.296 1.92 20.544 7.872s7.872 12.096 7.872 18.432l0 21.056 73.792 0c7.04 0 12.8 1.6 17.408 4.736 4.544 3.136 6.528 8.256 5.824 15.296 0 14.784-9.856 22.144-29.504 22.144L544.384 146.24l1.024 35.84 68.48 1.024c9.856-0.704 16.832 1.216 21.056 5.824 4.224 4.544 6.336 9.984 6.336 16.32 0 5.632-2.304 10.688-6.848 15.296-4.544 4.544-11.776 6.848-21.632 6.848l-68.48 0 0 20.032c11.968 11.264 22.848 22.144 32.64 32.64C585.536 288.64 593.92 297.28 602.368 306.048 610.816 314.816 617.152 320.96 621.376 324.48c16.128 14.08 19.648 26.368 10.56 36.864C626.944 367.68 620.672 370.88 612.928 370.88S598.144 368.064 591.872 362.432C588.352 359.616 582.336 354.56 573.952 347.136 565.504 339.776 557.056 332.224 548.608 324.48 538.816 315.392 527.872 305.152 515.968 293.952L515.968 293.952z"  horiz-adv-x="1024" />

    
    <glyph glyph-name="shandian" unicode="&#58901;" d="M751.484861 837.28576 330.984808 382.777149 500.61316 334.054471 370.51308-69.28576 806.193881 375.534188 633.869117 426.036395 751.484861 837.28576Z"  horiz-adv-x="1024" />

    
    <glyph glyph-name="jia" unicode="&#58966;" d="M821.12 88.96h-606.72v608h606.72v-608z m-574.72 32h542.72v544h-542.72v-544zM701.44 377.6h-368c-8.96 0-16 7.04-16 16s7.04 16 16 16h368c8.96 0 16-7.04 16-16S710.4 377.6 701.44 377.6zM517.76 200.32c-8.96 0-16 7.04-16 16v353.92c0 8.96 7.04 16 16 16s16-7.04 16-16v-353.92c0-8.32-7.04-16-16-16z"  horiz-adv-x="1024" />

    
    <glyph glyph-name="my4" unicode="&#58883;" d="M631.25 369.371c83.475 42.675 140.588 129.113 140.588 228.825 0 142.013-115.838 257.137-258.75 257.137s-258.75-115.125-258.75-257.137c0-99.712 57.075-186.15 140.55-228.825-168.563-42.637-296.137-175.613-314.138-352.425 0-31.237 9.975-61.613 42.787-61.613h780.15c29.85 0 39.563 31.35 39.563 61.613-17.963 176.813-144 309.75-312 352.425z"  horiz-adv-x="1024" />

    
    <glyph glyph-name="menu" unicode="&#58897;" d="M927.450037 384.254803H95.961562c-17.662265 0-31.980365-14.3181-31.980365-31.980365s14.3181-31.980365 31.980365-31.980365h831.488475c17.662265 0 31.980365 14.3181 31.980365 31.980365s-14.3181 31.980365-31.980365 31.980365zM927.450037 704.057433H95.961562c-17.662265 0-31.980365-14.3181-31.980365-31.980365s14.3181-31.980365 31.980365-31.980366h831.488475c17.662265 0 31.980365 14.3181 31.980365 31.980366s-14.3181 31.980365-31.980365 31.980365zM927.450037 64.45115H95.961562c-17.662265 0-31.980365-14.3181-31.980365-31.980365s14.3181-31.980365 31.980365-31.980366h831.488475c17.662265 0 31.980365 14.3181 31.980365 31.980366s-14.3181 31.980365-31.980365 31.980365z"  horiz-adv-x="1024" />

    
    <glyph glyph-name="live" unicode="&#59083;" d="M511.689 895.911c-63.364 0-124.038-11.52-180.042-32.58-1.631-0.614-14.339-5.755-16.095-6.862l-0.049-0.025 0.002-0.005c-7.15-4.528-11.9-12.503-11.9-21.592 0-14.108 11.437-25.546 25.546-25.546 2.541 0 4.994 0.377 7.31 1.067l0.002-0.004 0.042 0.016c1.288 0.387 9.344 3.609 11.858 4.563 50.76 19.263 105.812 29.809 163.326 29.809 254.283 0 460.421-206.138 460.421-460.421s-206.139-460.421-460.422-460.421-460.421 206.138-460.421 460.421c0 53.679 9.185 105.211 26.071 153.113 0.754 2.138 1.951 5.661 2.736 7.784 0.005 0.013 0.006 0.027 0.010 0.040 1.441 3.092 2.281 6.712 2.281 10.529 0 0.006-0 0.013-0 0.019 0 14.107-11.437 25.545-25.546 25.545-11.144 0-20.615-7.138-24.106-17.088-1.591-3.833-2.896-7.681-4.255-11.582-18.367-52.724-28.35-109.377-28.35-168.359 0-282.537 229.043-511.579 511.579-511.579s511.579 229.043 511.579 511.579c0 282.538-229.043 511.578-511.579 511.578zM112.658 732.207c0-22.603 18.323-40.926 40.926-40.926s40.926 18.323 40.926 40.926c0 22.603-18.323 40.926-40.926 40.926-22.603 0-40.926-18.323-40.926-40.926zM431.183 189.932c5.681 0 11.351 1.728 16.312 5.134l234.524 161.271c8.629 5.952 13.839 16.159 13.839 27.136s-5.211 21.199-13.839 27.135l-234.539 161.272c-9.259 6.366-33.203 6.852-42.863 1.182-9.689-5.653-15.708-16.519-15.708-28.319v-322.559c0-11.811 6.019-22.65 15.708-28.319 4.507-2.61 21.604-3.933 26.566-3.933zM439.959 504.661l195.863-123.813-195.863-123.814v247.627z"  horiz-adv-x="1024" />

    
    <glyph glyph-name="ziliao" unicode="&#58917;" d="M797 834h-375c-24 0-45-19.5-45-45v-150c0-25.5-19.5-45-45-45h-150c-25.5 0-45-19.499-45-45v-525c0-49.5 40.5-90 90-90h570.001c49.5 0 90 40.5 90 90v720c0 49.5-40.5 90-90 90zM699.5 159h-374.999c-12.001 0-22.5 10.5-22.5 22.5s10.499 22.5 22.5 22.5h374.999c12.001 0 22.5-10.5 22.5-22.5s-10.499-22.5-22.5-22.5zM699.5 309h-374.999c-12.001 0-22.5 10.499-22.5 22.5 0 12 10.499 22.5 22.5 22.5h374.999c12.001 0 22.5-10.5 22.5-22.5 0-12.001-10.499-22.5-22.5-22.5zM699.5 459h-239.999c-12.001 0-22.5 10.5-22.5 22.5 0 12.001 10.499 22.5 22.5 22.5h239.999c12.001 0 22.5-10.499 22.5-22.5 0-12-10.499-22.5-22.5-22.5zM170 637.5h115.5c25.501 0 45 19.499 45 45v122.999c0 16.501-9 21.001-21 9l-150-154.499c-10.499-12.001-5.999-22.5 10.5-22.5z"  horiz-adv-x="1024" />

    
    <glyph glyph-name="order" unicode="&#58968;" d="M335.035756 636.897627c0-18.611164-15.065449-33.69709-33.677636-33.697089-18.59171 0-33.67866 15.084902-33.67866 33.697089 0 18.572256 15.085926 33.658182 33.67866 33.658183 18.611164 0.008191 33.677636-15.085926 33.677636-33.658183zM335.035756 513.390436c0-18.621402-15.065449-33.657158-33.677636-33.657158-18.59171 0-33.67866 15.044971-33.67866 33.657158 0 18.59171 15.085926 33.658182 33.67866 33.658183 18.611164 0 33.677636-15.076711 33.677636-33.658183zM301.35812 389.873006z m-33.67866 0c0-18.599901 15.077735-33.67866 33.67866-33.67866 18.598877 0 33.677636 15.077735 33.677636 33.67866 0 18.598877-15.077735 33.677636-33.677636 33.677636-18.599901 0-33.67866-15.077735-33.67866-33.677636M639.588398 606.468779H413.62305c-16.769194 0-30.398131 13.610508-30.398131 30.428848 0 16.779433 13.628938 30.388916 30.398131 30.388917h225.966372c16.79991 0 30.399155-13.609484 30.399155-30.388917 0.009215-16.81834-13.59003-30.428848-30.400179-30.428848zM639.588398 482.951349H413.62305c-16.769194 0-30.398131 13.628938-30.398131 30.427825 0 16.79991 13.628938 30.428848 30.398131 30.428848h225.966372c16.79991 0 30.399155-13.628938 30.399155-30.428848-0.002048-16.797863-13.59003-30.427824-30.400179-30.427825zM639.588398 359.454397H413.62305c-16.769194 0-30.398131 13.628938-30.398131 30.409394 0 16.828579 13.628938 30.427824 30.398131 30.427824h225.966372c16.79991 0 30.399155-13.599245 30.399155-30.427824 0.009215-16.779433-13.59003-30.409394-30.400179-30.409394zM301.35812 274.041883z m-33.67866 0c0-18.598877 15.077735-33.677636 33.67866-33.677636 18.598877 0 33.677636 15.077735 33.677636 33.677636 0 18.599901-15.077735 33.67866-33.677636 33.67866-18.599901 0-33.67866-15.077735-33.67866-33.67866M639.588398 243.614059H413.62305c-16.769194 0-30.398131 13.618699-30.398131 30.427824 0 16.79991 13.628938 30.399155 30.398131 30.399156h225.966372c16.79991 0 30.399155-13.599245 30.399155-30.399156 0.009215-16.808101-13.59003-30.427824-30.400179-30.427824zM957.999328 652.913242c0 109.868015-40.571456 150.439471-90.651735 150.43947H250.792519c-51.497336 0-93.424416-41.89022-93.424416-93.434655V122.564193H66.537188c0-137.17606 50.624986-157.917929 113.136257-157.917929H720.513223c51.536244 0 93.444894 41.889196 93.444894 93.434655V652.913242h144.041211z m-181.432479-594.822084c0-30.903931-25.138432-56.053626-56.051579-56.053626-50.041371 0-75.655911 10.6781-75.65591 120.545091H194.759371V709.928296c0 30.903931 25.099525 56.052602 56.023933 56.052602h550.446894c-14.818692-23.484858-24.050042-59.034156-24.456525-109.769722-0.117747-1.13856-0.217064-2.278145-0.217063-3.298958V58.090134h0.010239v0.001024z"  horiz-adv-x="1024" />

    
    <glyph glyph-name="left" unicode="&#58884;" d="M921.733333 792.4L886.133333 828 442.8 384.8l443.333333-443.333333 35.6 35.6-407.733333 407.733333L921.733333 792.4z"  horiz-adv-x="1365" />

    
    <glyph glyph-name="set" unicode="&#58904;" d="M664.41216-96.08192c-18.49856 0-36.46976 7.6544-48.09216 20.45952-15.8208 17.34656-65.95072 62.44864-106.97728 62.44864-40.75008 0-91.648-45.3632-106.27072-61.2608-11.58656-12.5952-29.44-20.11136-47.75424-20.11136-8.72448 0-16.96256 1.67424-24.4736 4.98176l-1.31584 0.57344-124.71808 69.73952-1.23392 0.86528c-22.7072 15.8976-31.34976 46.98112-20.10112 72.30976 0.08704 0.19968 11.50464 26.54208 11.50464 50.56 0 72.89856-59.31008 132.20864-132.1984 132.20864h-4.41856a14.1568 14.1568 0 0 0-0.80384-0.02048c-20.88448 0-37.88288 18.55488-43.3152 47.2576-0.4352 2.29376-10.64448 56.75008-10.64448 99.65568 0 42.89536 10.20416 97.3568 10.63936 99.65056 5.49888 29.0816 22.87616 47.74912 44.11904 47.25248h4.42368c72.89344 0 132.1984 59.30496 132.1984 132.1984 0 24.0128-11.41248 50.35008-11.52512 50.61632-11.2384 25.30304-2.53952 56.39168 20.25984 72.22784l1.29024 0.90624L336.62976 858.73664l1.37216 0.58368c7.40864 3.15904 15.52384 4.7616 24.12544 4.7616 18.27328 0 36.16256-7.35744 47.85664-19.67616 15.58016-16.31232 64.8192-58.73152 104.67328-58.73152 39.48032 0 88.42752 41.57952 103.94624 57.60512 11.62752 12.07296 29.3888 19.30752 47.488 19.30752 8.77056 0 17.03424-1.664 24.57088-4.93568l1.3312-0.58368 127.12448-70.62528 1.25952-0.88064c22.73792-15.872 31.4112-46.96064 20.15232-72.30976-0.09216-0.18944-11.50464-26.53696-11.50464-50.55488 0-72.89344 59.30496-132.1984 132.1984-132.1984h4.41856c21.2224 0.47104 38.61504-18.17088 44.11904-47.24736 0.4352-2.29888 10.64448-56.7552 10.64448-99.65568 0-42.9056-10.20928-97.36192-10.64448-99.65568-5.504-29.07136-22.89664-47.68256-44.11904-47.24224h-4.41856c-72.89344 0-132.1984-59.31008-132.1984-132.20864 0-24.0128 11.41248-50.35008 11.52512-50.61632 11.22816-25.28256 2.55488-56.3712-20.21376-72.23296l-1.26976-0.88576-129.26976-71.4496-1.34656-0.58368c-7.40352-3.18464-15.488-4.80256-24.0384-4.80256z m-3.92704 60.9024c0.57344-0.37376 2.20672-1.01376 3.92704-1.01376h0.19456l120.77568 66.75456c-2.90304 6.76864-16.25088 39.64416-16.25088 73.92768 0 102.53312 80.76288 186.56256 182.02112 191.83104 1.45408 8.03328 9.3696 53.30432 9.3696 87.2704 0 33.96096-7.91552 79.21152-9.3696 87.27552-101.248 5.25824-182.02112 89.28768-182.02112 191.83104 0 34.33472 13.37344 67.2512 16.26624 73.96352l-118.81472 66.01728c-0.13312 0.00512-0.30208 0.01536-0.49152 0.01536-2.02752 0-3.92704-0.73728-4.5568-1.15712-1.98656-2.048-19.21536-19.51744-43.9552-36.92032-36.61312-25.76896-71.2448-38.83008-102.92736-38.83008-31.98464 0-66.8928 13.32224-103.75168 39.59296-24.88832 17.7408-42.19392 35.53792-44.19072 37.62688-0.62976 0.43008-2.54464 1.19296-4.58752 1.19296-0.15872 0-0.3072-0.01024-0.42496-0.01536L238.62784 736.5888c2.94912-6.8608 16.23552-39.66976 16.23552-73.89696 0-102.53312-80.76288-186.56256-182.016-191.83104-1.4592-8.04864-9.3696-53.30944-9.3696-87.2704s7.9104-79.21152 9.3696-87.27552c101.25312-5.26336 182.016-89.2928 182.016-191.83104 0-34.4064-13.42464-67.36896-16.2816-74.00448l116.47488-65.13664 0.26112-0.00512c1.70496 0 3.31776 0.62464 3.8912 0.99328 2.176 2.33984 19.57376 20.75648 44.63616 39.1168 37.3504 27.37664 72.85248 41.26208 105.4976 41.26208 32.96256 0 68.72576-14.14656 106.29632-42.04544 25.20576-18.70848 42.66496-37.46816 44.84608-39.84384z m-150.71232 243.37408c-97.08032 0-176.06656 78.98624-176.06656 176.06656s78.98624 176.06144 176.06656 176.06144 176.06144-78.98112 176.06144-176.06144-78.98112-176.06656-176.06144-176.06656z m0 292.23936c-64.06656 0-116.17792-52.11648-116.17792-116.1728s52.11648-116.17792 116.17792-116.17792c64.06144 0 116.1728 52.1216 116.1728 116.17792s-52.11136 116.1728-116.1728 116.1728z"  horiz-adv-x="1024" />

    
    <glyph glyph-name="wode" unicode="&#58891;" d="M953.862861-127.977759h-46.817402c0.42258 7.472991 1.134293 14.87926 1.134294 22.485698 0 109.425946-44.215199 208.509806-115.720163 280.370626l32.894507 32.916748a442.641298 442.641298 0 0 0 129.620817-313.554267c0-7.495233-0.756196-14.812537-1.112053-22.218805zM641.509611 318.222106c2.579961-0.800678 5.248887-1.401186 7.806607-2.246345h-12.432745a302.033405 302.033405 0 0 0-157.488846-25.755132c-204.261767-16.302687-365.042288-187.047197-365.042289-395.71269 0-7.606438 0.711713-15.012706 1.134293-22.485698H68.691471c-0.378098 7.406268-1.134293 14.723572-1.134294 22.218805 0 199.613388 131.689234 368.400686 312.864795 424.247953-102.06416 48.952542-172.746204 152.973915-172.746205 273.765035C207.675767 760.018245 343.613041 896 511.266045 896c167.675246 0 303.590278-135.981755 303.590279-303.745966 0-121.035772-70.948937-225.235073-173.346713-274.031928zM511.266045 848.871223c-141.875633 0-256.884082-115.052931-256.884081-256.995286s115.008449-256.995287 256.884081-256.995287c141.875633 0 256.884082 115.052931 256.884082 256.995287S653.141678 848.871223 511.266045 848.871223z"  horiz-adv-x="1024" />

    
    <glyph glyph-name="jubao" unicode="&#59314;" d="M511.4570007324218 262.229736328125c-11.236541748046877 0-20.377716064453125-9.141998291015625-20.377716064453125-20.377716064453125v-32.552764892578125c0-11.2357177734375 9.14117431640625-20.37689208984375 20.377716064453125-20.37689208984375s20.37689208984375 9.14117431640625 20.37689208984375 20.37689208984375v32.552764892578125c0 11.2357177734375-9.140350341796875 20.377716064453125-20.37689208984375 20.377716064453125zM869.6651306152344 150.01263427734364L561.4491882324219 686.0526123046875c-12.217071533203125 21.232177734374996-30.437622070312493 33.40887451171874-49.99136352539062 33.40887451171874s-37.77593994140624-12.17669677734375-49.99301147460938-33.40969848632812L153.2496948242188 150.01263427734364c-6.821685791015625-11.877593994140625-10.279907226562502-23.685150146484375-10.279907226562502-35.097198486328125 0-13.699401855468752 5.267669677734375-26.34494018554687 14.8348388671875-35.60641479492188 10.85174560546875-10.50567626953125 26.630859375-16.059265136718746 45.63336181640625-16.059265136718746h616.0396728515625c18.99261474609375 0 34.76843261718749 5.553588867187501 45.62017822265625 16.059265136718746 9.566345214843748 9.259826660156248 14.838134765625 21.904541015625 14.8480224609375 35.60641479492188 0 11.41204833984375-3.4582214355468746 23.2196044921875-10.279907226562502 35.097198486328125zM526.1319885253905 665.7350463867188l308.2118225097656-536.0160827636719c3.1698303222656246-5.526397705078125 4.846618652343749-10.633392333984375 4.846618652343749-14.77056884765625 0-9.507843017578125-12.35137939453125-10.927551269531252-19.714416503906246-10.927551269531252H203.43716430664062c-7.362213134765625 0-19.714416503906246 1.417236328125-19.714416503906246 10.911895751953125 0 4.1363525390625 1.6751403808593748 9.2449951171875 4.844146728515624 14.76727294921875l308.2299499511719 536.0325622558594c4.55657958984375 7.914276123046877 9.7657470703125 12.273101806640623 14.667572021484375 12.273101806640623 4.90264892578125 0 10.112640380859375-4.35882568359375 14.666748046875-12.2706298828125zM491.0792846679688 502.2914428710938v-195.3338928222656c0-11.2357177734375 9.141998291015625-20.37689208984375 20.378540039062504-20.37689208984375s20.37689208984375 9.14117431640625 20.37689208984375 20.37689208984375V502.2914428710938c0 11.2357177734375-9.140350341796875 20.37689208984375-20.37689208984375 20.37689208984375s-20.377716064453125-9.14117431640625-20.377716064453125-20.37689208984375z"  horiz-adv-x="1024" />

    
    <glyph glyph-name="heart" unicode="&#59193;" d="M486.4-76.8a25.6 25.6 0 0 0-12.4416 3.2256c-4.8128 2.6624-119.0912 66.6112-235.1104 171.3664-68.6592 61.952-123.4432 125.3376-162.9696 188.416C25.4976 366.6432 0 446.9248 0 524.8A269.1072 269.1072 0 0 0 268.8 793.6c50.176 0 103.4752-18.7904 150.0672-52.9408 27.2384-19.968 50.432-44.032 67.5328-69.5808a282.7264 282.7264 0 0 0 67.5328 69.5808C600.5248 774.8096 653.824 793.6 704 793.6A269.1072 269.1072 0 0 0 972.8 524.8c0-77.8752-25.5488-158.1568-75.8784-238.592-39.4752-63.0784-94.3104-126.464-162.9184-188.416-116.0192-104.7552-230.2976-168.704-235.1104-171.3664a25.6 25.6 0 0 0-12.4416-3.2256zM268.8 742.4A217.856 217.856 0 0 1 51.2 524.8c0-155.648 120.32-297.0624 221.2352-388.352A1420.1856 1420.1856 0 0 1 486.4-21.6064a1420.1856 1420.1856 0 0 1 213.9648 158.0544C801.28 227.6864 921.6 369.152 921.6 524.8A217.856 217.856 0 0 1 704 742.4c-87.1936 0-171.8784-71.7312-193.3312-136.0896a25.6 25.6 0 0 0-48.5376 0C440.6784 670.6688 355.9936 742.4 268.8 742.4z"  horiz-adv-x="1024" />

    
    <glyph glyph-name="daili" unicode="&#58947;" d="M1024 217.89099999999996H791.275v24.181c-29.455 79.181-71.727 67.726-142.093 104.272 34.639 61.001 80.183 104.636 162.092 104.636 143.819 0 204.818-63.818 212.002-186.545h0.725v-46.544zM811.275 458.254c-33.682 0-64.82 11.182-90.091 30.183 16.001 31 25.093 66.27 25.093 103.817 0 51.001-16.774 97.909-44.864 135.181 27.865 29.545 66.772 47.819 109.864 47.819 84.772 0 153.5-70.908 153.5-158.455s-68.728-158.545-153.5-158.545zM512.001 404.07c-102.84 0-186.183 83.363-186.183 186.183s83.34 186.183 186.183 186.183c102.819 0 186.183-83.363 186.183-186.183S614.819 404.07 512.001 404.07z m-209.158 85.545c-25.32-19.001-56.455-30.183-90.137-30.183-84.772 0-153.5 71.002-153.5 158.546 0 87.546 68.727 158.455 153.5 158.455 43.069 0 81.979-18.273 109.864-47.819-28.09-37.272-44.817-84.273-44.817-135.181 0-37.544 9.09-72.909 25.091-103.818z m-90.115-37.452c81.885 0 127.455-43.637 162.092-104.636-70.365-36.548-112.636-25.091-142.091-104.275v-25.361H0.001v46.544h0.681c6.82 122.819 67.773 187.728 212.045 187.728z m298.455-90.456c213.636 0 296.09-155.91 296.09-329.999l-15.999 0.18v-0.18H232.728v4.271l-10.907 0.09c0 174.092 75.681 325.637 289.363 325.637z"  horiz-adv-x="1038" />

    
    <glyph glyph-name="gift" unicode="&#58893;" d="M1116.741564 545.978029c0 48.290898-39.517082 87.55198-88.31998 87.55198h-68.607984a151.50542 151.50542 0 0 1 46.545444 109.381793C1006.359044 827.391783 937.192514 895.999767 851.874715 895.999767c-86.830526 0-143.453058-85.434162-177.594141-166.050871-18.292359 7.982544-40.703991 12.939633-65.210167 12.939633-24.436358 0-46.847989-4.887272-65.210167-12.939633C509.74243 810.588878 453.119897 895.999767 366.312644 895.999767a153.949056 153.949056 0 0 1-149.410875-115.944701c14.033451-2.862545 28.276357-6.655998 42.728717-11.263997a110.149793 110.149793 0 0 0 107.007976 83.898163c63.534531 0 110.871248-75.217437 141.032695-149.597057a44.520717 44.520717 0 0 1-8.168725-21.550541c2.373818 0.418909 4.607999 0.837818 6.562908 1.466182-2.862545-0.930909-4.747635-2.094545-6.911999-3.374545-0.069818-0.837818-0.418909-1.536-0.418909-2.443636 0-14.056724 8.029089-26.856721 20.875632-37.492355-0.232727-0.069818-0.279273-0.232727-0.488727-0.279273-28.695266-8.959998-84.340344-7.703271-186.274867 48.127989C106.077067 811.89215 6.050908 692.386723 4.910544 691.106723a21.71345 21.71345 0 0 1 3.234909-30.719993 22.225449 22.225449 0 0 1 31.069084 3.234908c0.837818 1.047272 77.405073 92.50907 272.174483-14.266178 70.097439-38.493082 129.629061-57.739623 177.687232-57.739624 9.704725 0 18.850905 1.117091 27.578176 2.583273 0.698182-1.466181 1.675636-3.002181 2.373818-4.421818h67.979621v-174.987596H145.524331v131.258152c0 24.226904 19.758541 43.752717 44.194899 43.752717h146.525057a743.772922 743.772922 0 0 0-45.986898 23.08654 468.479894 468.479894 0 0 1-43.007991 20.712723H189.71923c-48.802898 0-88.31998-39.261082-88.31998-87.528707v-175.01087h66.257439v-393.751183c0-48.337444 39.517082-87.505435 88.31998-87.505435h706.327112c48.802898 0 88.31998 39.167991 88.31998 87.505435v393.541729H1117.090655l-0.349091 175.150505zM587.077685-66.466923H255.999942a43.892354 43.892354 0 0 0-44.125081 43.752717V370.967159h375.226096v-437.480628z m132.375242 743.679831c0 9.239271-3.211636 17.989814-8.936725 25.902539 30.161448 74.379619 77.405073 149.597057 141.032695 149.597057 60.858168 0 110.359248-49.058898 110.359248-109.381793 0-60.229804-49.50108-109.358521-110.38252-109.358521h-160.069782c17.221814 11.54327 27.997085 26.670539 27.997084 43.240718z m-110.38252-21.829813c-8.843634 0-17.384723 0.628363-25.204358 1.675636a21.061813 21.061813 0 0 1-9.14618 9.169452c-6.911998 3.42109-14.522179 2.443636-20.712722-1.117091-6.981817 3.490908-11.124361 7.633453-11.124361 12.101816 0 12.101815 29.672721 21.899631 66.187621 21.899631 36.584719 0 66.257439-9.867634 66.25744-21.876358 0-12.05527-29.672721-21.853086-66.25744-21.853086z m397.288637-678.120573c0-24.203631-19.735268-43.729445-44.101808-43.729445H631.132947V370.990432h375.226097v-393.751183z m66.327258 437.480627h-441.483536v175.01087h397.288637c24.436358 0 44.218172-19.525814 44.218171-43.752718v-131.258152z"  horiz-adv-x="1117" />

    
    <glyph glyph-name="tuijian" unicode="&#58903;" d="M832.6 830.2h-639.1c-28.4 0-51.4-23-51.4-51.4v-842.3l371 226.7 371-226.7v842.3c-0.1 28.4-23.1 51.4-51.5 51.4zM709.4 494.7l-65.4-63.8 15.4-90 15.5-90.5-162.1 85.2-162.1-85.2 15.5 90.5 15.4 90-131.2 127.8 181.3 26.3 40.4 81.9 40.7 82.4 40.7-82.4 40.4-81.9 181.3-26.3-65.8-64z"  horiz-adv-x="1024" />

    
    <glyph glyph-name="fangxiangjiantou-copy" unicode="&#58956;" d="M143.515 430.545v-46.381h586.309v-114.666l183.763 137.923-183.763 137.923v-114.8h-586.309z"  horiz-adv-x="1024" />

    
    <glyph glyph-name="coupon" unicode="&#58957;" d="M935.33990517 471.74380445c25.21760594 7.35297778 43.98841006 32.33756562 43.98841128 58.92738132v179.31944178c0 37.12735763-26.71926992 64.07964445-63.53593837 64.07964445H106.99075675c-36.81666845 0-63.53593837-26.95228682-63.53593837-64.07964445v-175.48760769c0-28.45395081 16.07816533-51.85920356 40.23424948-58.92738253 37.87819023-15.32733273 61.36111408-51.10837097 61.36111408-93.72457127 0-40.62261097-25.19171436-78.96683498-61.38700565-93.69867969-24.13019378-7.06817897-40.20835911-30.49932208-40.20835791-58.90149096v-179.34533214c0-37.12735763 26.71926992-64.05375408 63.53593837-64.05375409h805.04745954c19.28861984 0 36.06583584 7.24941392 47.22475615 20.42781393 10.35630577 12.22044089 14.7577363 28.29860622 12.5052397 45.49007527V157.19689482a25.89076502 25.89076502 0 1 1-51.78153006 0v-107.31722313l0.36246991-4.194304c0.44014341-2.71853037 0.23301689-4.97102697-0.54370607-5.92898487-0.90617719-1.06152178-3.67648829-2.14893394-7.76722963-2.14893393H106.99075675c-5.82542222 0-11.7544071 1.44988327-11.75440831 12.2722228v179.34533215c0 5.59240533 2.14893394 9.03587673 3.05511112 9.21711291l3.02921955 0.98384948c57.11502814 22.29194903 95.48514251 79.51054105 95.48514252 142.39920947 0 64.85636741-36.58365155 119.43410134-95.48514252 142.42510105l-3.05511112 1.00973986c-0.85439525 0.20712653-3.00332919 3.72827022-3.00332798 9.21711168V709.96473719c0 10.82233955 5.92898489 12.29811317 11.7544071 12.29811318h808.77573097c5.82542222 0 11.7544071-1.44988327 11.7544071-12.29811318v-179.31944178c0-3.65059792-3.52114369-8.388608-6.83516207-9.24300326l-3.02921956-0.98384949c-59.80766815-23.32757925-95.48514251-75.16089245-95.4851425-138.61915732 0-62.94045036 35.7292563-118.73505068 91.03193126-142.11441186a25.89076502 25.89076502 0 0 1 20.19479703 47.69078993c-36.11761778 15.27555201-59.41930667 52.32523734-59.41930666 94.42362193-0.02589036 41.55467852 22.31783939 74.25471525 61.33522249 89.94451911zM660.8201197 580.9251614699999a27.39243023 27.39243023 0 0 1-40.05301453 0l-108.81888711-110.03575228-108.79299553 110.03575228a27.36653866 27.36653866 0 0 1-40.02712417 0 28.35038815 28.35038815 0 0 1 0-40.59671939l108.74121481-109.98397155h-83.00579316c-17.16557748 0-28.60929539-11.59906251-28.60929662-28.99765809s11.44371792-28.99765689 28.60929662-28.99765689h94.50129301v-49.11478161h-94.50129301c-17.16557748 0-28.60929539-11.57317215-28.60929662-28.9199858 0-17.45037631 11.44371792-29.02354845 28.60929662-29.02354724h94.50129301v-66.48748563c0-17.45037631 11.41782755-29.02354845 28.58340504-29.02354845s28.60929539 11.57317215 28.60929662 29.02354845v66.48748563h88.80532502c17.13968711 0 28.58340503 11.57317215 28.58340505 29.02354724 0 17.34681244-11.41782755 28.91998459-28.58340505 28.9199858h-88.80532502V372.34915555h88.80532502c17.13968711 0 28.58340503 11.59906251 28.58340505 28.99765689s-11.41782755 28.99765689-28.58340505 28.99765809h-77.30982517l108.76710517 109.98397155a28.35038815 28.35038815 0 0 1 0 40.59671939z"  horiz-adv-x="1024" />

    
    <glyph glyph-name="admin" unicode="&#58907;" d="M511.97226667 840.4128c67.02826667-54.34026667 147.30986667-91.14986667 206.75733333-113.4592 39.75893333-14.9184 79.4528-26.71466667 109.04426667-33.96053333 0.90133333-41.6704-1.7472-118.72-25.52213334-208.62293334-20.8896-78.96213333-53.776-151.46986667-97.776-215.5136-49.95306667-72.71786667-114.6336-134.8768-192.5024-185.0848-77.2416 49.7984-141.50293333 111.33866667-191.2736 183.28213334-43.98186667 63.56053333-76.98666667 135.54133333-98.10346666 213.9296-24.44906667 90.7584-27.2064 169.64693333-26.34133334 212.03626666 29.58186667 7.2544 69.232 19.04213333 108.97173334 33.9424 59.43786667 22.3008 139.70986667 59.10933333 206.74773333 113.4496M511.97226667 902.80853333c-126.61226667-124-348.26026667-171.19466667-360.2752-171.19466666 0 0-53.6672-456.9952 360.2752-702.7552 413.9328 245.76 360.2752 702.7552 360.2752 702.7552-12.01493333-0.0096-233.66293333 47.19466667-360.2752 171.19466666zM528.53013333-52.27840000000003l-17.94026666 36.42666667-17.94026667-36.42666667-40.1312-5.83466667 29.03573333-28.36266666-6.8544-40.04053334 35.89013334 18.9056 35.88053333-18.9056-6.8544 40.04053334 29.05386667 28.36266666zM272.02026667 25.600000000000023c7.4368 42.62613333-12.816 106.15893333-33.0592 135.8688-18.1952-30.00106667-26.688-85.53386667 6.4352-118.52906667-23.5744 11.5232-53.73013333 15.76533333-109.91893334 10.02133334-9.44853333-0.94613333-17.75893333-2.2304-23.59253333-3.94986667 42.63466667-40.26773333 116.18026667-60.42026667 160.13546667-23.4112zM200.94933333 78.77546667000001c16.19306667 37.14666667 11.67786667 98.27626667-4.48746666 135.71413333-28.9728-33.296-39.03893333-81.41013333-15.37386667-115.83466667-34.416 27.13386667-83.6224 36.66346667-124.73706667 33.10506667 32.37653333-46.62186667 98.11306667-76.45866667 144.5984-52.98453333zM143.96053333 145.53066666999996c22.80106667 31.6576 29.88266667 92.14186667 19.78773334 129.69706666-31.22986667-26.43306667-48.95146667-71.77066667-33.60533334-108.4256-30.47466667 35.66293333-85.06986667 51.00906667-112.14826666 53.5488 22.90986667-49.88906667 79.2256-87.3536 125.96586666-74.82026666zM102.15466667 220.26880000000006c27.25226667 26.01386667 40.28693333 81.22773333 35.5712 119.0112-31.04746667-19.62453333-54.32213333-54.304-47.95946667-89.83893333-19.1872 32.20373333-52.30186667 51.6096-90.08426667 61.68533333 12.55146667-47.17653333 56.77013333-94.82666667 102.47253334-90.85866667zM73.35466667 304.4288c29.73653333 19.35146667 55.92426667 72.08 56.14293333 106.94186667-42.92586667-19.05066667-62.70506667-56.1696-60.86613333-86.93546667-10.1216 26.4416-36.55466667 60.52053333-80.90026667 81.0464 4.98773333-54.56746667 48.224-97.6576 85.62453333-101.0528zM59.78346667 389.04213333c24.20266667 10.26773333 64.1888 50.57173333 65.80906666 99.9968-46.1664-21.75466667-64.08-57.28-66.7744-82.2656-4.18666667 23.31093333-20.33386667 59.71093333-68.19413333 82.2656 1.25653333-38.384 31.87626667-90.576 69.1584-99.9968zM58.1088 474.80426667c25.14026667 8.17386667 63.2512 48.08746667 64.016 94.87253333-21.80906667-10.64-45.3568-28.3712-53.80373333-48.66986667-4.66986667-11.22346667-8.6656-22.45546667-10.1856-32.16746666-2.32106667 20.31573333-14.60906667 56.72533333-64.05226667 80.83733333 0.77333333-46.79466667 38.87573333-86.69866667 64.02453333-94.87253333zM58.1088 560.6016c21.25333333 6.58986667 60.5664 43.20853333 60.5664 89.712-46.33066667-23.3568-58.32746667-58.69973333-60.5664-77.63306667-2.24853333 18.93226667-14.23573333 54.27626667-60.5664 77.63306667-0.0096-46.512 39.312-83.12106667 60.5664-89.712zM351.46453333 87.63199999999995c-2.2304-17.7216-0.0096-93.3248 54.49493334-130.57173333-62.23146667 21.92746667-124.336-21.08053333-137.26186667-33.39626667 46.85866667-15.9744 118.74773333-20.37973333 162.7296 20.49813333 6.80853333 59.71093333-39.35786667 115.12533333-79.96266667 143.4688zM288.0128 120.69119999999998c-17.24906667-45.42933333-6.57173333-95.94666667 37.10933333-123.36213333-58.5632 18.2592-136.6336-15.00053333-142.70506666-18.30506667 60.6848-36.7552 129.24266667-28.18026667 166.72533333 6.83626667 6.06186667 52.1376-37.72906667 110.10986667-61.13066667 134.83093333zM60.49386667 631.06133333c32.368 22.27306667 24.70293333 68.73066667-0.91946667 99.92426667-25.24053333-32.20373333-31.648-78.1696 0.91946667-99.92426667zM780.01493333 42.93013332999999c33.1232 32.9952 24.60373333 88.5376 6.41706667 118.52906667-20.23466667-29.70986667-40.50453333-93.24266667-33.05066667-135.8688 43.9456-37.01013333 117.4912-16.8576 160.12586667 23.4016-5.83466667 1.71093333-14.14506667 3.00373333-23.5744 3.94986667-56.1792 5.76213333-86.3616 1.51146667-109.91893333-10.0128zM844.32213333 98.65493332999995c23.65653333 34.416 13.58933333 82.53013333-15.37386666 115.83466667-16.16533333-37.43786667-20.67093333-98.56746667-4.47786667-135.71413333 46.4672-23.47413333 112.19413333 6.36266667 144.5984 52.98453333-41.1328 3.568-90.33066667-5.9616-124.7456-33.10506667zM895.24906667 166.80319999999995c15.34613333 36.65493333-2.38506667 81.99253333-33.61493334 108.4256-10.07573333-37.55626667-3.00373333-98.04053333 19.79733334-129.69706667 46.7584-12.53333333 103.06453333 24.9312 125.96586666 74.82026667-27.088-2.53973333-81.67466667-17.88586667-112.14826666-53.5488zM935.62666667 249.44213333000005c6.3712 35.53493333-16.9024 70.2144-47.95093334 89.83893334-4.72426667-37.78346667 8.3104-92.99733333 35.5712-119.0112 45.6928-3.96906667 89.90293333 43.68106667 102.47253334 90.85866666-37.792-10.07573333-70.89706667-29.4816-90.09386667-61.68533333zM952.04693333 304.4288c37.392 3.3952 80.6272 46.48533333 85.616 101.0528-44.3552-20.52586667-70.77866667-54.60373333-80.90986666-81.0464 1.83893333 30.76586667-17.94026667 67.8848-60.8576 86.93546667 0.21866667-34.86186667 26.41493333-87.5904 56.15146666-106.94186667zM965.6096 389.04213333c37.29173333 9.4208 67.92106667 61.6128 69.17653333 99.9968-47.87733333-22.55573333-64.0064-58.95466667-68.20266666-82.2656-2.70293333 24.9856-20.60693333 60.512-66.7744 82.2656 1.61066667-49.42506667 41.5968-89.73013333 65.79946666-99.9968zM967.3024 474.80426667c25.14026667 8.17386667 63.24266667 48.08746667 64.02453333 94.87253333-49.46133333-24.112-61.7408-60.52053333-64.06186666-80.83733333-1.5296 9.712-5.5072 20.944-10.176 32.16746666-8.46506667 20.2976-32.0032 38.0288-53.81226667 48.66986667 0.7552-46.79466667 38.87573333-86.69866667 64.02453333-94.87253333zM967.3024 560.6016c21.2448 6.58986667 60.5664 43.20853333 60.5664 89.712-46.3392-23.3568-58.336-58.69973333-60.5664-77.63306667-2.24853333 18.93226667-14.23573333 54.27626667-60.57493333 77.63306667-0.0096-46.512 39.312-83.12106667 60.57493333-89.712zM619.4336-42.93013332999999c54.51306667 37.24586667 56.73386667 112.84053333 54.50453333 130.57173333-40.6144-28.34453333-86.7712-83.75893333-79.97226666-143.4688 43.98186667-40.87786667 115.8624-36.47253333 162.7296-20.49813333-12.9248 12.30613333-75.0208 55.32373333-137.26186667 33.39626666zM700.28906667-2.662400000000048c43.67253333 27.41546667 54.3584 77.9328 37.1008 123.36213333-23.4016-24.72213333-67.19253333-82.69333333-61.13066667-134.83093333 37.48266667-35.01653333 106.032-43.5904 166.7168-6.83626667-6.07146667 3.29493333-84.1408 36.55466667-142.68693333 18.30506667zM964.91733333 631.06133333c32.54933333 21.75466667 26.13226667 67.72053333 0.90986667 99.92426667-25.6224-31.1936-33.2864-77.6512-0.90986667-99.92426667zM692.2144 325.68213333000006l-12.42453333-10.36693333h-337.3376l-12.41493334 10.36693333v40.432l146.94613334 126.49386667h51.21813333l12.42453333-11.39626667-29.5008-66.7552 168.66453334 0.4 12.42453333-10.8768v-78.2976zM663.7792 388.23253333l-196.28906667 0.0096 30.72 62.95146667h-27.28853333l-101.25333333-86.7264-0.26346667-21.09013333 293.90186667 0.26346666 0.4736 44.592zM330.88426667 683.7365333299999l12.41493333 10.37653334h337.35573333l12.4064-10.37653334v-40.432l-146.94613333-126.49386666h-51.21813333l-12.41493334 11.4048 29.4912 66.7552-168.67306666-0.4-12.41493334 10.8864v78.27946666zM359.31946667 621.17653333h196.27093333l-30.7104-62.96h27.29706667l101.24373333 86.73493334 0.25493333 21.08053333-293.89226666-0.26346667-0.464-44.592z"  horiz-adv-x="1024" />

    
    <glyph glyph-name="visit" unicode="&#58886;" d="M829.0048-68.82560000000001c-4.92693333-18.0608-23.7984-29.56053333-41.8912-25.47093333-18.86933333 4.92693333-30.368 23.82933333-25.856 42.69866666l42.28266667 168.34133334V470.6272c0 13.97333333-7.3792 22.99093333-16.42666667 26.272-4.51093333 1.64586667-9.0176 3.2896-14.35733333 3.2896-4.512 0-9.44-1.64373333-13.53066667-3.28853333-9.04533333-3.28213333-16.032-12.29973333-16.84053333-25.43573334V432.04693333c0-19.70773333-15.1968-35.31946667-34.096-35.31946666-19.7088 0-35.29706667 15.61173333-35.29706667 35.31946666v90.32426667c0 14.7744-6.98133333 23.79733333-16.83413333 27.91786667-3.7056 0.80746667-9.024 1.6384-13.55946667 1.6384-4.896 0-9.8528-0.832-13.94133333-1.6384-8.21013333-4.11946667-15.62026667-13.14346667-16.42666667-26.27946667v-91.96266667c0-19.70666667-16.0032-35.3184-34.8992-35.3184-19.29173333 0-34.88 15.61173333-34.88 35.31946667v103.46026667c0 14.78186667-6.98666667 24.63466667-16.4192 27.91786666-4.11733333 1.6384-9.04746667 2.44586667-13.9744 2.44586667-4.512 0-9.01653333-0.8064-13.552-2.44586667-9.024-3.28213333-16.00853333-12.32853333-16.84053333-26.2784v-105.09866666c0-19.70773333-15.58826667-35.31946667-34.88106667-35.31946667-18.89386667 0-34.09066667 15.61173333-34.09066667 35.31946667V767.0592c0 14.7808-7.37813333 23.79733333-17.23306666 27.9168-4.0896 1.6448-9.0464 2.45333333-13.94346667 2.45333333-4.5344 0-9.04533333-0.80746667-13.55733333-2.45333333-9.8528-4.11946667-16.83413333-13.136-16.83413334-27.9168v-555.0688c0-19.6992-15.58826667-34.48106667-34.4896-34.48106667s-34.90453333 14.78186667-34.90453333 34.48106667V363.88266667000005c-0.8064 13.97333333-6.98666667 22.99093333-16.8416 26.27306666-3.6736 2.48106667-8.17813333 2.48106667-13.52853333 2.48106667-4.50453333 0-9.85386667 0-13.552-2.48106667-9.85386667-3.28213333-16.8416-12.29866667-16.8416-27.0816v-174.07573333c0-68.16426667 2.47573333-71.44746667 37.77066666-116.5952l9.85386667-13.13706667 75.9584-98.5344c11.49333333-14.77866667 9.0176-36.96213333-6.14826667-48.45866666-15.1968-11.49546667-37.38666667-9.01653333-48.46293333 6.5664l-76.34346667 98.53546666-9.85386666 12.32853334c-49.26933333 64.0512-52.5536 68.13973333-52.5536 159.296V363.07306667c0 47.62666667 26.69546667 78.82666667 60.34666666 91.96373333 13.136 4.92693333 27.08053333 7.37813333 39.82506667 7.37813333 9.85493333 0 20.10026667-0.8064 30.368-4.92693333v309.568c0 48.432 26.27413333 78.82453333 59.95626667 91.9616 13.552 5.73333333 26.69546667 7.37813333 39.8304 7.37813333 13.94346667 0 27.0816-1.64373333 40.2176-7.37813333 33.65226667-13.13706667 59.93066667-43.53066667 59.93066666-91.9616v-136.304c9.85386667 3.28853333 20.53866667 4.09386667 30.39253334 4.09386667 13.13706667 0 26.69546667-2.4512 40.24746666-6.57173334 11.88266667-5.7344 23.79733333-13.136 33.2352-22.98986666 6.18026667 4.11946667 11.49226667 6.57066667 17.64906667 8.20906666 12.32853333 5.76426667 26.272 8.20906667 39.408 8.20906667 13.13706667 0 27.1104-2.4448 39.41653333-8.20906667 23.40373333-9.01653333 43.11466667-26.272 52.96746667-51.7152 12.71893333 4.928 25.856 8.20906667 37.77066667 8.20906667 13.552 0 27.4944-3.28213333 39.408-8.20906667 34.90666667-13.97333333 60.76266667-44.33706667 60.76266666-91.15413333v-357.17013333c0-3.28106667-0.416-5.75786667-1.2224-9.04106667l-42.69333333-173.23946667z"  horiz-adv-x="1024" />

    
    <glyph glyph-name="shouye" unicode="&#58881;" d="M978.2210325333333 376.1672053333333L508.4847381333333 815.3702250666666 38.748444800000016 377.45738986666663c-9.189562666666665-8.567391999999998-9.702580266666667-22.974452266666667-1.1133567999999998-32.15419093333333 8.579399466666667-9.173189333333333 23.0039232-9.691665066666667 32.18693653333334-1.1046250666666666l438.6288778666666 408.8935093333333 438.6485248-410.1389407999999c4.401035733333333-4.111780266666667 9.987468799999998-6.144203733333333 15.562986666666664-6.144203733333333 6.069979733333333 0 12.143233066666665 2.4111818666666665 16.622858666666666 7.2084416000000004C987.8810432 353.1905696 987.4084128 367.58562240000003 978.2210325333333 376.1672053333333L978.2210325333333 376.1672053333333zM978.2210325333333 376.1672053333333M834.8795754666667 367.14573759999996c-12.573294933333333 0-22.772519466666665-10.1926752-22.772519466666665-22.749597866666665l0-348.8398986666666L629.9225312-4.443757866666601 629.9225312 238.2266208000001 387.0131082666667 238.2266208000001l0-242.67037973333333L204.8351338666667-4.443757866666601 204.8351338666667 344.39613973333337c0 12.556922666666665-10.188309333333333 22.749597866666665-22.771428266666664 22.749597866666665-12.589668266666667 0-22.776885333333333-10.1926752-22.776885333333333-22.749597866666665l0-394.3380021333333 273.2746026666666 0L432.5614218666667 192.72742613333332l151.81825386666665 0 0-242.66928746666667 273.26805333333334 0L857.6477290666667 344.39613973333337C857.6488202666667 356.9530624 847.4474122666668 367.14573759999996 834.8795754666667 367.14573759999996L834.8795754666667 367.14573759999996zM834.8795754666667 367.14573759999996M675.4719370666667 693.2316725333333l136.6351178666667 0 0-121.33191466666665c0-12.5754784 10.200315733333333-22.755054933333334 22.772519466666665-22.755054933333334 12.568929066666668 0 22.769244800000003 10.1795776 22.769244800000003 22.755054933333334L857.6488202666667 738.7308672 675.4719370666667 738.7308672c-12.5754784 0-22.776885333333333-10.174119466666667-22.776885333333333-22.749597866666665C652.6939594666667 703.4090666666667 662.8953674666667 693.2316725333333 675.4719370666667 693.2316725333333L675.4719370666667 693.2316725333333zM675.4719370666667 693.2316725333333"  horiz-adv-x="1024" />

    
    <glyph glyph-name="zhibiao" unicode="&#58894;" d="M713.9479699911111 360.69831111111114V34.47466666666662h132.04290446222222V453.9050666666667l-15.534460017777777 15.534458879999999-116.50844444444445-108.74121443555556zM512 236.42263665777773V34.47466666666662h132.04290332444444V306.3277033244444L535.3016888888889 213.12094776888875l-23.301688888888886 23.301688888888886z m-201.94796999111114 69.90506666666667V34.47466666666662h132.04290332444444V290.79324444444455l-69.90506666666667 62.13783665777777-62.13783665777777-46.60337777777777zM115.8712888888889 34.47466666666662h132.04290332444444V244.1898666666666l-132.04290332444444-116.50844444444445V34.47466666666662zM682.8790522311112 733.5253333333333l93.20675555555555-100.97398556444443L535.3016888888889 422.83614776888885 372.18986666666666 562.6462811022222 115.8712888888889 345.16385223111115v-93.20675555555555l256.31857777777776 217.48242887111113 163.11182222222223-139.81013333333334 295.15472554666667 256.31857777777776 77.67229667555556-85.43952554666666V733.5253333333333z"  horiz-adv-x="1024" />

    
    <glyph glyph-name="leimupinleifenleileibie" unicode="&#58961;" d="M320 832H192c-70.4 0-128-57.6-128-128v-128c0-70.4 57.6-128 128-128h128c70.4 0 128 57.6 128 128V704c0 70.4-57.6 128-128 128z m448 0H640c-70.4 0-128-57.6-128-128v-128c0-70.4 57.6-128 128-128h128c70.4 0 128 57.6 128 128V704c0 70.4-57.6 128-128 128zM320 384H192c-70.4 0-128-57.6-128-128v-128c0-70.4 57.6-128 128-128h128c70.4 0 128 57.6 128 128V256c0 70.4-57.6 128-128 128z m448 0H640c-70.4 0-128-57.6-128-128v-128c0-70.4 57.6-128 128-128h128c70.4 0 128 57.6 128 128V256c0 70.4-57.6 128-128 128z"  horiz-adv-x="1024" />

    
    <glyph glyph-name="triangle-arrow-u" unicode="&#59269;" d="M273.6 303l212.9 212.9c14.1 14.1 36.9 14.1 50.9 0l213-212.9c22.7-22.7 6.6-61.5-25.5-61.5H299.1c-32.1 0-48.1 38.8-25.5 61.5z"  horiz-adv-x="1024" />

    
    <glyph glyph-name="shaidan" unicode="&#58939;" d="M530.06336 208.44544a31.00672 31.00672 0 0 0-10.69056-1.14688c-2.8672 0-5.7344 0.4096-8.47872 1.14688-96.6656 27.15648-165.2736 107.52-170.63936 199.92576-4.01408 69.0176 37.43744 111.8208 80.2816 123.53536 36.16768 9.95328 72.58112-0.8192 99.98336-28.95872 27.4432 28.13952 63.81568 38.912 99.9424 28.95872 42.92608-11.75552 84.3776-54.55872 80.32256-123.53536-5.36576-92.40576-74.01472-172.76928-170.72128-199.8848M926.9248 648.11008c-25.76384 22.7328-61.52192 34.69312-103.46496 34.69312h-23.92064c-6.06208 0-16.26112 5.57056-21.79072 8.6016a43.008 43.008 0 0 0-15.40096 16.42496l-28.09856 50.33984c-7.24992 12.86144-18.0224 18.71872-28.54912 24.41216l-2.08896 1.14688c-11.59168 6.3488-23.63392 7.168-32.80896 7.168l-309.57568-0.16384-5.81632 0.12288c-11.0592 0.36864-23.87968 1.10592-38.25664-6.71744-10.81344-5.98016-22.9376-13.84448-30.55616-27.2384L258.4576 708.4032c-4.75136-8.3968-10.36288-14.78656-15.52384-17.57184-4.01408-2.17088-14.66368-8.02816-21.7088-8.02816h-23.92064c-41.984 0-77.74208-11.96032-103.50592-34.69312-28.2624-24.9856-42.5984-54.4768-42.5984-87.6544v-387.15392c0-35.6352 16.34304-72.2944 42.5984-95.47776 30.63808-27.0336 68.4032-42.55744 103.54688-42.55744h626.0736c35.14368 0 72.82688 15.48288 103.46496 42.55744 26.29632 23.22432 42.5984 59.8016 42.5984 95.47776V560.45568c0 33.1776-14.336 62.6688-42.5984 87.6544"  horiz-adv-x="1024" />

    
    <glyph glyph-name="meiyuan" unicode="&#58938;" d="M611.05 522.432c-27.093 23.893-49.557 37.333-91.2 37.333-46.271 0-76.65-26.816-76.65-65.344 0-99.2 207.51-70.016 207.51-211.818 0-61.803-44.267-103.83-113.665-112v-64.747h-40.298v64.17c-47.574 4.097-94.507 25.067-124.907 50.155l25.77 32.683c30.422-23.893 68.097-43.776 114.305-43.776 56.853 0 85.93 27.413 85.93 70.016 0 110.848-207.509 84.63-207.509 212.97 0 57.174 43.627 98.582 106.39 106.753v64.746h40.298v-64.17c46.933-4.118 77.312-23.894 103.083-48.384L611.05 522.4100000000001zM511.276 854.165c258.837 0 469.44-210.602 469.44-469.44s-210.582-469.44-469.44-469.44-469.44 210.582-469.44 469.44 210.602 469.44 469.44 469.44z m0 41.835C228.907 896 0 667.093 0 384.725s228.907-511.274 511.275-511.274 511.274 228.906 511.274 511.274S793.643 896 511.275 896z m376.128-327.979a22.016 22.016 0 1 1-39.595-19.285 370.667 370.667 0 0 0 37.76-164.01c0-206.4-167.936-374.273-374.293-374.273a22.016 22.016 0 0 1 0-44.01c230.656 0 418.304 187.648 418.304 418.304A414.507 414.507 0 0 1 887.403 568zM511.275 758.9970000000001c98.133 0 190.933-37.717 261.205-106.176a21.93 21.93 0 0 1 31.147 0.363 22.016 22.016 0 0 1-0.427 31.147A416.213 416.213 0 0 1 511.275 803.008a22.016 22.016 0 0 1 0-44.01z m-145.558-719.21a373.76 373.76 0 0 0-228.736 344.938c0 145.814 85.654 279.382 218.198 340.267a22.016 22.016 0 0 1-18.39 40.043C188.651 696.98 92.95 547.712 92.95 384.747a417.643 417.643 0 0 1 255.638-385.494 22.016 22.016 0 0 1 28.864 11.734 21.973 21.973 0 0 1-11.734 28.8z"  horiz-adv-x="1024" />

    
    <glyph glyph-name="tijiaodingdan" unicode="&#58997;" d="M598.18569153 448.28571416H255.32854875v-42.85624307h342.85714278v42.85624307z m171.42947051-257.14195752v-128.57142832s-2.67851513-42.85804219-42.85624306-42.85804218h-514.28751328c-42.85714307 0-42.85714307 42.85804219-42.85714307 42.85804219V705.42857168s-5.35703027 42.85714307 42.85714307 42.85714219h514.28661328c45.5356582 0 42.85624307-42.85714307 42.85624394-42.85714219v-85.71428613l85.7169835-42.85624307V748.28571386S825.69848538 834 769.61426292 834H169.61426263C103.00665921 834 83.8999765 748.28571386 83.8999765 748.28571386v-728.57232773s21.57472969-85.71338613 85.71428613-85.71338613h600.00089941c61.44215273 0 85.71698437 85.71338613 85.71698437 85.71338613l-0.04497187 253.79696163-85.6720125-82.36659112z m-514.28661328 85.71428526h214.28571358v42.85624394H255.32854875v-42.85624394z m428.57142803 299.99910058h-428.57142803v-42.85714219h428.57142803v42.85714219zM573.95493265 234.08454697000002l-19.08419678-86.17569522 85.58656611 19.08329591 265.93572656 260.55621034-73.74551396 73.68075528-258.69258193-267.14456631z m402.91506651 290.18447402l-46.79126895 46.70762081c-3.93322588 3.9548127-9.20570977 5.92277432-14.4799919 5.92277432-5.27248388 0-9.87578789-1.9679625-13.80991376-5.92277432l-44.1163503-44.091167 75.7548501-74.32924657 43.44267481 43.42018886c7.87184825 7.8889377 7.87184825 20.3820794 0 28.2926039z"  horiz-adv-x="1024" />

    
    <glyph glyph-name="sousuo" unicode="&#58990;" d="M222.6944 673.2032A323.1488 323.1488 0 0 1 133.6832 384c19.2512 87.3728 64.512 172.7488 135.0144 243.3024C339.2512 697.8815999999999 424.6272 743.1168 512 762.3679999999999c-101.632 19.1488-210.688-10.5216-289.3056-89.1648zM989.44 73.88160000000005l-121.7024 121.7024a118.016 118.016 0 0 1-92.8 34.1248c114.4576 165.5552 97.92 394.3936-49.4848 541.824-165.9392 165.9904-435.0464 165.9904-601.0368 0-165.9392-165.9904-165.9392-435.1232 0-601.1136 147.4048-147.4304 376.064-163.84 541.7216-49.3824-2.56-33.28 8.8576-67.5328 34.1248-92.8l121.7024-121.728c46.08-45.9776 121.3696-45.9776 167.3472 0 46.208 45.9776 46.208 121.2928 0.128 167.3728zM676.096 219.904c-138.6752-138.6752-363.392-138.6752-502.016 0-138.6752 138.6752-138.6752 363.4432 0 502.1184 138.624 138.6752 363.3408 138.6752 502.016 0 138.6496-138.5728 138.6496-363.4432 0-502.1184z"  horiz-adv-x="1024" />

    
    <glyph glyph-name="right" unicode="&#59836;" d="M464.93333361-24.399999999999977L500.53333361-60 943.86666661 383.20000000000005l-443.333333 443.333333-35.6-35.6 407.733333-407.733333L464.93333361-24.399999999999977z"  horiz-adv-x="1365" />

    
    <glyph glyph-name="arrow-down-copy" unicode="&#59837;" d="M750.4 465l-212.9-212.9c-14.1-14.1-36.9-14.1-50.9 0l-213 212.9c-22.7 22.7-6.6 61.5 25.5 61.49999999L724.9 526.49999999c32.10000001 0 48.10000001-38.8 25.5-61.49999999z"  horiz-adv-x="1024" />

    


  </font>
</defs>
</svg>
